<?xml version="1.0" encoding="UTF-8"?><svg id="Layer_1" xmlns="http://www.w3.org/2000/svg" viewBox="0 0 80 80"><defs><style>.cls-1{fill:#4675eb;stroke-width:0px;}</style></defs><path class="cls-1" d="M78.29848,13.97997c-1.8157-.2034-6.9849-1.17077-9.05358-3.22461-2.06867-2.05877-3.02116-7.23788-3.22461-9.05358C65.92107.7344,65.09261.00025,64.13018.00025c-.96737,0-1.79093.7342-1.89011,1.70152-.2034,1.81569-1.17077,6.9849-3.22461,9.05358-2.05877,2.06868-7.23788,3.02116-9.05358,3.22461-.96737.09922-1.70152.92768-1.70152,1.89012,0,.97729.73421,1.79093,1.70152,1.89011,1.81569.18852,6.9849,1.15589,9.05358,3.22461,2.05877,2.05877,3.02116,7.23788,3.22461,9.05358.09922.96737.92768,1.70152,1.89011,1.70152.97729,0,1.79093-.7342,1.89011-1.70152.18851-1.81569,1.15588-6.9849,3.22461-9.05358,2.05877-2.05877,7.23789-3.02116,9.05358-3.22461.96737-.09922,1.70152-.92768,1.70152-1.89012,0-.96737-.7342-1.79093-1.70152-1.89011Z"/><path class="cls-1" d="M59.24874,47.6345c-.13891-.01488-14.12348-1.58748-19.71013-7.17337-5.58589-5.58589-7.1486-19.57043-7.17337-19.71013-.09922-.96737-.92768-1.70152-1.89012-1.70152-.96737,0-1.79093.7342-1.89012,1.70152-.01488.13891-1.58748,14.12347-7.17337,19.71013-5.58589,5.58589-19.57043,7.1486-19.71013,7.17337-.96737.09922-1.70152.92768-1.70152,1.89012,0,.96737.73422,1.79093,1.70152,1.89012.13891.01488,14.12347,1.58748,19.71013,7.17337,5.58589,5.58589,7.1486,19.57042,7.17337,19.71012.09922.96737.92768,1.70152,1.89012,1.70152.96737,0,1.79093-.7342,1.89012-1.70152.01488-.13891,1.58748-14.12348,7.17337-19.71013,5.58589-5.58589,19.57043-7.1486,19.71013-7.17337.96737-.09922,1.70152-.92768,1.70152-1.89012,0-.96737-.7342-1.79093-1.70152-1.89011Z"/><path class="cls-1" d="M73.65034,69.84396c0,6.77155-10.15986,6.77155-10.15986,0s10.15986-6.77155,10.15986,0"/><path class="cls-1" d="M15.23115,8.8848c0,6.77155-10.15986,6.77155-10.15986,0s10.15986-6.77155,10.15986,0"/></svg>