<?xml version="1.0" encoding="UTF-8"?><svg id="Layer_13" xmlns="http://www.w3.org/2000/svg" viewBox="0 0 200 85"><defs><style>.cls-1{fill:#565656;stroke-width:0px;}</style></defs><path class="cls-1" d="M53.21517,29.87701h-9.53435v3.69548h9.38653c4.87804,0,10.05172,2.03251,10.05172,8.86916s-5.17368,8.86916-10.05172,8.86916h-5.50627v-13.89502h-3.69548v17.81223h9.34958c7.39097,0,13.96893-3.95417,13.96893-12.67551s-6.72578-12.67551-13.96893-12.67551Z"/><path class="cls-1" d="M75.35112,39.67004c1.18797-3.85714,4.75934-6.48315,8.79525-6.4671,4.07556-.2206,7.72789,2.49923,8.68439,6.4671h-17.47964ZM84.22028,29.32268c-7.30664-.00071-13.23041,5.92192-13.23112,13.22855-.00071,7.30663,5.92191,13.2304,13.22855,13.23112h.00257c5.64714.21858,10.77524-3.27512,12.63856-8.61048h-4.24981c-1.51293,3.1574-4.82768,5.04314-8.31484,4.73022-4.8704.13036-8.97767-3.60204-9.31262-8.46266h22.17291c.03015-.47994.03015-.9613,0-1.44124-.06075-7.06146-5.83444-12.73666-12.8959-12.67591-.01276.00011-.02553.00024-.03829.00039Z"/><path class="cls-1" d="M113.7472,33.20294c3.52755-.32188,6.88487,1.57766,8.42571,4.76718h4.32372c-1.84643-5.33653-6.95809-8.84425-12.6016-8.64743-7.30663-.00071-13.2304,5.92192-13.23112,13.22855s5.92192,13.2304,13.22855,13.23112h.00257c5.63373.20205,10.74231-3.28857,12.6016-8.61048h-4.32372c-1.47458,3.17485-4.794,5.07166-8.27788,4.73022-5.16363-.00227-9.34773-4.19006-9.34546-9.35369.00227-5.16042,4.18504-9.34319,9.34546-9.34546h-.14782Z"/><path class="cls-1" d="M142.97848,51.93905c-5.18404,0-9.38653-4.2025-9.38653-9.38653s4.20249-9.38653,9.38653-9.38653c5.01802-.16602,9.2205,3.7673,9.38653,8.78531.00663.20035.00663.40087,0,.60122.0616,5.12244-4.04102,9.32493-9.16345,9.38653-.07436.0009-.14872.0009-.22307,0ZM152.43892,29.76615v4.06503c-2.36485-3.00381-6.00821-4.71591-9.82999-4.61936-7.30663.00071-13.22926,5.92448-13.22855,13.23112.00071,7.30563,5.92292,13.22784,13.22855,13.22855,3.82178.09656,7.46513-1.61555,9.82999-4.61936v4.06503h3.88026v-25.24017l-3.88026-.11086Z"/></svg>