<?xml version="1.0" encoding="UTF-8"?><svg id="Layer_15" xmlns="http://www.w3.org/2000/svg" viewBox="0 0 200 85"><defs><style>.cls-1{fill:#565656;stroke-width:0px;}</style></defs><path class="cls-1" d="M6.85088,29.44672l-.85088,3.31806h7.88416l-2.89271,11.57101-2.12712,8.53646h5.16167l2.12693-8.53646,2.89271-11.57102h7.85579l.82251-3.31824H6.85088v.00019ZM164.42026,29.70204c-.41978,1.7242-.80545,3.06978-1.19113,4.22568h-1.92835l.62375-.39717c1.07542-.69773,1.60516-1.05614,1.61666-1.10602-.57406-1.29663-1.05967-2.19164-1.503-2.63757-.01243-.08066-.83142.41979-2.41062,1.44645l-.53883.34024c.0115.02503.07602.12126.1984.2835.55588.72257,1.02555,1.40324,1.38971,2.07038h-1.58811l-.51045,2.38244h3.57319l-.25513.48227-.25532.48209h-3.85707l-.48208,2.38244h2.66576c-1.13792,1.38841-2.49127,2.50352-4.05547,3.34661l2.49573-11.91144h-6.89162l-2.58065,12.30842c-.06935.32207-.1476.62857-.22713.9358-.60002,2.38132-1.49281,4.51734-2.69413,6.40953.72851.64322,1.32166,1.33279,1.81506,2.07019,1.44404-2.05999,2.57861-4.69757,3.43172-7.9409h1.503l-.85088,4.02728c-.06694.55143-.62745.79971-1.64484.70904.21211.98568.30297,1.97285.22695,3.00618,2.45604-.01595,3.69594-.56942,3.74341-1.70158l1.38971-6.57975.08492-.45372c.14723.14609.28917.29743.42553.45372.33116.39031.5887.77394.76578,1.16276.3764-.18597.82344-.47189,1.33278-.90762l-.90763,2.94944h8.25296l-.14203.76578c-.32671,1.59274-.78599,2.36649-1.36134,2.26878l.45372-2.26878h-8.84834l-.51065,2.35388h7.20368c.41182.88815.58759,1.798.51045,2.75086,2.29844-.07472,3.70613-.42869,4.25405-1.07765.17133-.18931.35155-.51824.53883-1.07765.37548-1.12419.81547-2.76811,1.36134-4.93472l.31187-1.24768h-3.06292l.17022-.73759.22695-1.1342c.54458.47634,1.02778.84736,1.44645,1.1342.30964.2123.58314.37454.82251.48227.13146-.16447.26663-.32671.39698-.48227.78969-.95843,1.53952-1.75721,2.24059-2.41043-1.84918-.5264-3.20346-1.28198-4.05565-2.26878h4.05565l.48208-2.38244h-7.2886c.19524-.28591.37659-.59315.51045-.96417h6.01255l.48208-2.38225h-2.1553c.94155-.92004,1.76963-1.67674,2.52391-2.26878l-2.52391-1.55992c-.80879,1.03222-1.68119,2.03737-2.63757,3.00618l1.53155.93581h-2.18366l.31206-.99254.39698-.99273c.33134-.83605.60354-1.47129.79415-1.8718.01818-.16447-.08955-.24735-.42553-.28369-.63617-.09975-1.63576-.16558-3.00619-.1984ZM179.67813,29.90044c-.76912.25532-1.96487.72146-3.63012,1.41789.52399,1.4941.90168,2.98467,1.16276,4.481.5887-.22361,1.86586-.6625,3.80014-1.36134-.80638-2.90402-1.26807-4.42296-1.33278-4.53755ZM182.48592,31.17667l-.59575,2.75105h2.26878l-1.07765,5.13311h-2.83616l-.59556,2.75086h2.86434l-.53883,2.52391-1.72995,8.19622h3.17639l1.70176-8.19622.53883-2.52391h2.26859l-.45372,2.07019c-.03282.15315-.05674.30316-.08492.45372-.58091,3.04141-.28239,5.42014.87907,7.11857.70774,1.00626,1.56214,1.4318,2.58084,1.27642,1.05485.05433,2.11117-1.64855,3.14803-5.10493-.85584-.38815-1.71618-.7663-2.58084-1.13439-.5149,1.58366-.83494,2.09745-.96418,1.53155-.20303-.80768-.16094-2.03626.11348-3.68704.08844-.53308.20192-1.10602.34025-1.72995l2.41062-11.42917h-10.83342.00001ZM135.37934,31.46036l-1.07746,4.36752h-4.14075l-.79396,3.23313h15.14439l-9.13221-7.60066h-.00001ZM153.64339,33.53055h1.503l-.70905,3.37479h-1.47463l.68067-3.37479ZM187.30715,33.92772h2.38226l-1.07765,5.13311h-2.38226l1.07765-5.13311ZM33.6512,34.86352c-3.14692,0-5.87608.82251-8.19603,2.46736-2.30734,1.66876-3.80589,3.85484-4.481,6.55119-.03968.15798-.08158.29945-.11329.45372-.51843,2.50389-.05896,4.54571,1.38971,6.09766,1.54379,1.63353,3.92623,2.43881,7.14675,2.43881,5.4893,0,9.69699-3.34884,10.12457-3.71504l-2.38225-.53882c-.56033.12924-3.61194,1.01312-6.66467.73741-3.85132-.34599-4.72464-3.16601-4.50918-4.5661h15.45627l.14184-.45372.11348-.48209c.70107-2.81112.33004-5.02205-1.10602-6.60793-1.44793-1.5996-3.74155-2.38244-6.92017-2.38244h0ZM79.45298,34.86352c-3.31138,0-6.30625.85886-9.01855,2.6092-2.71693,1.75164-4.38347,3.92159-5.01982,6.46627-.03504.13943-.08622.25959-.11329.39698-.47522,2.36186.15427,4.35973,1.8718,5.984,1.82173,1.70381,4.40034,2.55247,7.74232,2.55247,2.02495,0,4.14966-.41979,6.38098-1.24768l1.3046-5.18985c-1.48372,1.14236-2.72824,1.90128-3.71522,2.29733-1.0185.40829-2.12026.62375-3.31824.62375-1.87736,0-3.29766-.5036-4.25386-1.53137-.84625-.92579-1.14922-2.10097-.90762-3.48846.02707-.15297.07361-.29593.11329-.45372.39142-1.56307,1.33297-2.87676,2.83615-3.91362,1.49966-1.03686,3.19791-1.55992,5.07637-1.55992,1.19687,0,2.16568.20322,2.94945.62393.79878.40718,1.63576,1.17184,2.49573,2.26878l1.3046-5.24659c-1.6912-.80471-3.59933-1.1915-5.72868-1.1915h-.00001ZM98.14238,34.86352c-3.14803,0-5.87719.82251-8.19603,2.46736-2.30846,1.66876-3.80701,3.85484-4.481,6.55119-.03968.15798-.08066.29945-.11329.45372-.51954,2.50389-.06137,4.54571,1.38952,6.09766,1.54175,1.63353,3.92753,2.43881,7.14694,2.43881,5.48707,0,9.69811-3.34884,10.12457-3.71504l-2.38226-.53882c-.56033.12924-3.61195,1.01312-6.66467.73741-3.8502-.34599-4.72705-3.16601-4.50918-4.5661h15.45627l.14185-.45372.11348-.48209c.7033-2.81112.35619-5.02205-1.07765-6.60793-1.44774-1.5996-3.76862-2.38244-6.94854-2.38244h0ZM57.92761,35.34561c-2.18701,0-4.32543.67603-6.40935,2.04201l-4.62283-1.55974-2.12712,8.50791-2.12712,8.53646h5.01982l2.04182-8.22422c.02633-.1055.05896-.21675.08511-.31224.52177-1.96005,1.22172-3.35774,2.07038-4.16875.90966-.86219,2.17347-1.27623,3.82851-1.27623,1.52228,0,2.50815.30965,2.92108.96417.42998.63988.4209,1.8082,0,3.48827l-.22695.99254-2.1553,8.53646h5.01964l2.12712-8.53646.48227-1.92835c.60224-2.40376.43666-4.12463-.51064-5.18985-1.09212-1.24805-2.90272-1.87198-5.41643-1.87198h-.00001ZM121.99345,35.34561c-2.1883,0-4.3232.67603-6.40935,2.04201l-4.62283-1.55974-2.12711,8.50791-2.12693,8.53646h5.01964l2.04201-8.22422c.02707-.1055.05785-.21675.0851-.31224.52399-1.96005,1.21931-3.35774,2.07019-4.16875.91096-.86219,2.17125-1.27623,3.82851-1.27623,1.52136,0,2.50704.30965,2.92126.96417.42869.63988.4209,1.8082,0,3.48827l-.25532.99254-2.12711,8.53646h5.01982l2.12693-8.53646.48227-1.92835c.60243-2.40376.43573-4.12463-.51045-5.18985-1.09119-1.24805-2.90514-1.87198-5.41662-1.87198h-.00001ZM172.95671,37.1323l-.59556,2.77942h2.80779l-.93599,4.42407-.59556,2.94963c-.12924.61707-.62263,1.26029-1.47481,1.95672-.25068.20656-.40496.33932-.42535.39735.31206.97678.86795,1.92946,1.64484,2.8076.06026.01595.39253-.27683.96418-.85088.85329-.9041,3.01749-2.89716,6.52301-5.98381-.0115-.03986-.20433-.45372-.5672-1.2195l-.02837-.05692-.51045-1.1342-.5672.48209c-.27238.23937-.53567.45965-.76578.6523-.61262.53085-1.07765.92023-1.38971,1.16276l.25532-1.16276,1.503-7.20349h-5.84215v-.00037h-.00001ZM32.85725,38.40853c2.6613,0,4.08383,1.04594,4.25386,3.14803h-10.01109c.2835-.49006.61262-.91893,1.0211-1.3046.40495-.38344.86201-.72498,1.36134-.99273.51268-.28146,1.04928-.4832,1.61648-.62393.57364-.15228,1.16481-.22852,1.75832-.22677ZM97.34843,38.40853c2.6613,0,4.08606,1.04594,4.25386,3.14803h-10.01109c.28591-.49006.61596-.91893,1.02091-1.3046.40736-.38344.86794-.72498,1.36134-.99273.51732-.28146,1.04947-.4832,1.61666-.62393.57367-.15218,1.16482-.22842,1.75832-.22677h0ZM152.45227,39.25941h1.47463l-.6523,3.14803h-1.47481s.65248-3.14803.65248-3.14803ZM163.31443,39.65639h.87907c.12191.34835.28374.68142.48227.99254h-2.15548l.39717-.51046.39698-.48209h-.00001ZM133.30915,39.79824l-1.13438,4.53755-2.1553,8.53646h4.99127l2.15548-8.53646,1.13438-4.53755h-4.99145ZM160.25132,42.88953h3.54501l-.2835,1.44626-.1984.8227h-2.43899c.09085-.30409.17244-.57628.25532-.8227.09419-.2835.17022-.5251.25532-.73741-.11922-.06805-.19172-.11329-.25532-.11329h-1.47481l.59538-.59556h-.00001Z"/></svg>