<?xml version="1.0" encoding="UTF-8"?><svg id="Layer_15" xmlns="http://www.w3.org/2000/svg" viewBox="0 0 200 85"><defs><style>.cls-1{fill:#565656;stroke-width:0px;}</style></defs><g id="Layer_2"><g id="Layer_1-2"><path class="cls-1" d="M64.63765,37.75493v-13.01504h2.35627v5.5097h6.03302v-5.5097h2.36169v13.01504h-2.36169v-5.52868h-6.03302v5.52868h-2.35626Z"/><path class="cls-1" d="M80.44279,37.95287c-.57328.00915-1.14188-.10457-1.66755-.33351-.48162-.20723-.89176-.55137-1.17949-.98969-.30313-.48699-.4533-1.05368-.43112-1.62688-.01542-.47067.09007-.93744.3064-1.35573.19824-.35528.485-.65325.83242-.86496.37001-.22156.77129-.3861,1.19033-.48806.45268-.11495.91299-.19741,1.37742-.24674.57212-.05965,1.03578-.11117,1.39098-.15998.27227-.02361.53697-.102.77819-.23047.16236-.10644.25542-.29155.24403-.48535v-.03796c.02583-.41474-.12947-.82029-.4257-1.1117-.33903-.28358-.77349-.42711-1.21473-.4013-.47437-.02346-.9435.10786-1.33675.37418-.30506.21554-.53688.51926-.66431.87038l-2.14748-.30368c.14908-.55979.43729-1.0728.83784-1.49131.40247-.40577.89207-.71455,1.43166-.90292.60089-.20663,1.23283-.30843,1.86821-.30097.47305-.0002.94448.05532,1.40454.1654.45403.10503.88622.28855,1.2771.54229.3922.25888.71296.61228.93275,1.02765.25234.50406.37356,1.06358.35249,1.62688v6.5265h-2.21256v-1.35573h-.07592c-.15041.28621-.34952.54403-.58839.76192-.27533.24832-.59689.43996-.9463.56398-.42745.15522-.87931.23236-1.33404.22776ZM81.03931,36.26091c.41685.01235.83006-.08092,1.20118-.27115.323-.16913.59458-.42199.78632-.7321.18099-.3011.27485-.64653.27115-.99782v-1.1578c-.11033.07801-.23459.13416-.36605.1654-.1892.05487-.38105.10011-.57483.13557-.21149.03796-.42299.0705-.62906.10032l-.54229.07592c-.31563.03849-.62529.1159-.9219.23047-.2479.08973-.469.24086-.64262.43926-.38779.53345-.28746,1.27755.22776,1.68924.35396.22785.76977.34056,1.19034.32267Z"/><path class="cls-1" d="M87.70138,37.75493v-9.76128h2.23154v1.62688h.10032c.15259-.52572.47602-.98559.91919-1.30693.43576-.30768.95793-.46908,1.49131-.46095.12473,0,.27115,0,.42841.01627.13288.00771.26511.02401.39587.04881v2.11494c-.15087-.04332-.30503-.07416-.46095-.09219-.20047-.0265-.40244-.04009-.60466-.04067-.39296-.00727-.78125.08607-1.12797.27115-.3257.1715-.59778.42951-.78632.74565-.19427.33382-.29277.71471-.2847,1.10086v5.73747h-2.30203Z"/><path class="cls-1" d="M103.60957,27.99365l-3.4761,9.76128h-2.54336l-3.4761-9.76128h2.46201l2.24238,7.25046h.10304l2.24239-7.25046h2.44574Z"/><path class="cls-1" d="M107.50594,37.95287c-.57328.00915-1.14188-.10457-1.66755-.33351-.47763-.20902-.88382-.553-1.16864-.98969-.30313-.48699-.4533-1.05368-.43112-1.62688-.01542-.47067.09007-.93744.3064-1.35573.19825-.35528.485-.65325.83242-.86496.36985-.22251.77114-.38796,1.19034-.49078.45268-.11495.91299-.19741,1.37742-.24674.57212-.05965,1.03578-.11117,1.39098-.15998.27227-.02361.53697-.102.77819-.23047.16236-.10644.25542-.29155.24403-.48535v-.03796c.02583-.41474-.12947-.82029-.4257-1.1117-.34222-.28526-.78104-.42797-1.22559-.39859-.47375-.02505-.94285.10435-1.33675.36876-.30506.21554-.53688.51926-.66431.87038l-2.14749-.30368c.14908-.55979.4373-1.0728.83784-1.49131.40169-.40543.89033-.71419,1.42894-.90292.60089-.20663,1.23283-.30843,1.86821-.30097.47305-.0002.94448.05532,1.40454.1654.45403.10503.88622.28855,1.2771.54229.3909.26109.70981.61635.92733,1.03307.25234.50406.37356,1.06358.35249,1.62688v6.5265h-2.21256v-1.35573h-.07592c-.15041.28621-.34952.54403-.58839.76192-.27533.24832-.59689.43996-.9463.56398-.42488.15426-.8739.23139-1.3259.22776ZM108.10247,36.26091c.41685.01235.83006-.08092,1.20118-.27115.323-.16913.59458-.42199.78632-.7321.18099-.3011.27485-.64653.27115-.99782v-1.1578c-.11033.07801-.23459.13416-.36605.1654-.1892.05487-.38105.10011-.57483.13557-.21149.03796-.42299.0705-.62906.10032l-.54229.07592c-.31563.03849-.62529.1159-.9219.23047-.2479.08973-.469.24086-.64262.43926-.38779.53345-.28746,1.27755.22776,1.68924.35396.22785.76977.34056,1.19034.32267Z"/><path class="cls-1" d="M114.76454,37.75493v-9.76128h2.23154v1.62688h.10032c.15259-.52572.47602-.98559.91919-1.30693.43576-.30768.95793-.46908,1.49131-.46095.12473,0,.27115,0,.42841.01627.13288.00771.26511.02401.39587.04881v2.11494c-.15087-.04332-.30503-.07416-.46095-.09219-.20047-.0265-.40244-.04009-.60466-.04067-.39296-.00727-.78125.08607-1.12797.27115-.3257.1715-.59778.42951-.78632.74565-.19427.33382-.29277.71471-.2847,1.10086v5.73747h-2.30203Z"/><path class="cls-1" d="M124.86476,37.92575c-.73029.01139-1.44751-.19434-2.06072-.5911-.63174-.42394-1.12935-1.01938-1.43437-1.71636-.37498-.86017-.55552-1.79248-.52874-2.73045-.0266-.94546.15868-1.88488.54229-2.74943.31166-.69345.81615-1.28266,1.45334-1.69738.61068-.38276,1.31835-.58226,2.03902-.57483.48734-.01791.97184.08159,1.41267.29013.33609.16825.63414.40356.87581.69142.19336.23479.36149.48926.50162.75921h.09221v-4.86708h2.30746v13.01504h-2.26136v-1.5374h-.14099c-.14191.27039-.3148.52335-.51518.75379-.24889.28165-.55117.51114-.88936.67515-.43622.20115-.91366.29683-1.39371.27928ZM125.50737,36.02773c.44757.01179.88605-.12768,1.24456-.39587.36052-.28782.63143-.67255.7809-1.10899.18959-.53229.28145-1.09446.27115-1.65942.00967-.56049-.08218-1.1181-.27115-1.64586-.14895-.42851-.41818-.80504-.77548-1.08459-.76721-.51119-1.76945-.49935-2.52438.02983-.35821.28772-.62718.67141-.77548,1.10628-.18683.52175-.27866,1.07274-.27115,1.62688-.00528.55396.08649,1.10457.27115,1.62688.15156.4332.41993.81606.77548,1.10628.36458.27992.815.42463,1.27439.40943v-.01085Z"/><path class="cls-1" d="M65.69241,46.9441c-.34947.00595-.68732-.12549-.94088-.36605-.48744-.43888-.5268-1.18981-.08791-1.67725.02775-.03082.0571-.06017.08791-.08792.53544-.49606,1.36259-.49606,1.89803,0,.48744.44335.52318,1.1979.07983,1.68533-.02534.02786-.05198.0545-.07983.07983-.25743.24484-.60204.37663-.95715.36605ZM64.53461,58.09094v-9.76128h2.30204v9.76128h-2.30204Z"/><path class="cls-1" d="M71.28616,52.37245v5.71848h-2.30204v-9.76128h2.199v1.65942h.11388c.21757-.53667.59658-.99244,1.08459-1.30422.55013-.33786,1.18777-.50576,1.83295-.48264.61524-.01434,1.2233.13441,1.76245.43112.50467.29388.91196.72946,1.17136,1.2527.2921.62164.43242,1.30375.40943,1.99022v6.21468h-2.30204v-5.85948c.03309-.55625-.14729-1.10417-.50433-1.53198-.36356-.3749-.87236-.57287-1.39369-.54229-.37465-.00546-.74411.08807-1.07103.27115-.31314.17588-.56771.43988-.7321.75921-.18482.36715-.27697.77396-.26843,1.18491Z"/><path class="cls-1" d="M81.9829,52.37245v5.71848h-2.30203v-9.76128h2.199v1.65942h.11389c.21757-.53667.59658-.99244,1.08459-1.30422.55013-.33786,1.18777-.50576,1.83295-.48264.61524-.01434,1.2233.13441,1.76245.43112.50468.29388.91197.72946,1.17136,1.2527.2921.62164.43243,1.30375.40943,1.99022v6.21468h-2.30747v-5.85948c.03309-.55625-.14729-1.10416-.50433-1.53198-.36419-.37564-.87414-.57368-1.3964-.54229-.37377-.00524-.74229.08829-1.06832.27115-.31314.17588-.56772.43988-.7321.75921-.18294.36763-.27323.77441-.26301,1.18491Z"/><path class="cls-1" d="M94.63732,58.28074c-.86829.02285-1.726-.19486-2.47829-.62906-.7006-.41748-1.26557-1.02859-1.62688-1.75974-.76632-1.68105-.76632-3.61174,0-5.29279.36028-.73397.92531-1.34797,1.62688-1.76788,1.54569-.83896,3.41087-.83896,4.95656,0,.7003.42147,1.26494,1.03504,1.62688,1.76788.76632,1.68105.76632,3.61174,0,5.29279-.36296.73001-.92755,1.3407-1.62688,1.75974-.75255.43354-1.61006.65121-2.47828.62906ZM94.63732,56.43966c.46971.01607.92959-.1369,1.29608-.43112.36176-.30461.63206-.70349.7809-1.15237.3398-1.05242.3398-2.18508,0-3.23749-.14879-.45121-.41897-.85273-.7809-1.16051-.36649-.29422-.82637-.44719-1.29608-.43112-.47653-.01745-.94369.13539-1.31777.43112-.36279.30702-.63314.7088-.7809,1.16051-.34352,1.05183-.34352,2.18567,0,3.23749.14781.4494.41829.84854.7809,1.15237.37694.2982.8484.45118,1.32862.43112h-.01085Z"/><path class="cls-1" d="M109.42567,48.32966l-3.4761,9.76128h-2.54336l-3.4761-9.76128h2.45387l2.24238,7.25047h.10304l2.25051-7.25046h2.44576Z"/><path class="cls-1" d="M113.32205,58.28887c-.57328.00915-1.14188-.10457-1.66755-.33351-.47763-.20902-.88382-.553-1.16864-.98968-.29956-.48342-.44868-1.04497-.42841-1.61332-.01626-.47044.08829-.93719.30368-1.35573.19825-.35528.485-.65325.83242-.86496.37058-.22299.77283-.38846,1.19304-.49077.45171-.11519.91114-.19765,1.37472-.24674.57212-.05965,1.03578-.11117,1.39098-.15998.27227-.02361.53697-.102.77819-.23047.16339-.10578.25756-.29101.24674-.48535v-.03796c.02439-.41451-.13068-.8195-.4257-1.1117-.34386-.28396-.78334-.4256-1.22829-.39587-.47375-.02506-.94285.10435-1.33675.36876-.30506.21554-.53688.51926-.66431.87038l-2.14749-.30369c.15022-.56131.44035-1.07534.84326-1.49402.40169-.40543.89033-.71419,1.42894-.90292.60177-.20683,1.23463-.30864,1.87091-.30097.47216-.00019.94268.05533,1.40183.1654.45471.10552.88771.289,1.27981.54229.39068.25984.71035.61306.93003,1.02765.25234.50406.37356,1.06358.35249,1.62688v6.51837h-2.21256v-1.34218h-.07592c-.15041.28621-.34952.54403-.58839.76192-.27533.24832-.59689.43997-.9463.56399-.42914.15092-.88193.22348-1.33674.2142ZM113.92128,56.59692c.41683.01211.82997-.08115,1.20118-.27115.32224-.16919.59293-.42209.78362-.7321.18099-.30111.27485-.64653.27115-.99782v-1.15237c-.11033.07801-.23459.13416-.36605.1654-.1892.05487-.38105.10011-.57483.13557-.21149.03796-.42027.0705-.62906.10033l-.54229.07592c-.31563.03849-.62529.1159-.9219.23047-.2479.08973-.469.24086-.64262.43926-.3843.53485-.28305,1.27688.23048,1.68924.35658.22825.77566.33918,1.19846.31725h-.00813Z"/><path class="cls-1" d="M125.45586,48.32966v1.77872h-5.61274v-1.77872h5.61274ZM121.22869,45.99237h2.30203v9.16205c-.01406.24493.03446.48941.14099.7104.08422.15168.21835.26952.3796.33351.16714.05909.34334.08846.52061.08677.13343.00033.26669-.00964.39859-.02983.11931-.02169.21149-.04067.27115-.05694l.38774,1.7977c-.17181.05552-.3465.10168-.52331.13828-.27298.05689-.55087.08686-.82971.08948-.5322.02175-1.06289-.0707-1.55638-.27115-.44402-.18386-.82209-.49766-1.08459-.90021-.28225-.45666-.42109-.98747-.39859-1.52384l-.00813-9.53623Z"/><path class="cls-1" d="M128.32188,46.9441c-.34942.00566-.68716-.12574-.94088-.36605-.48744-.43888-.52679-1.18981-.08792-1.67725.02775-.03082.0571-.06017.08792-.08792.53348-.48774,1.35099-.48774,1.88447,0,.48744.44335.52318,1.1979.07983,1.68533-.02534.02786-.05198.0545-.07983.07983-.25408.24148-.59314.37301-.94359.36605ZM127.1668,58.09094v-9.76128h2.29933v9.76128h-2.29933Z"/><path class="cls-1" d="M135.87332,58.28074c-.86822.02214-1.72573-.19552-2.47829-.62906-.69991-.41832-1.26468-1.02921-1.62688-1.75974-.76632-1.68105-.76632-3.61174,0-5.29279.36118-.73336.926-1.34713,1.62688-1.76788,1.54569-.83896,3.41087-.83896,4.95656,0,.70157.4199,1.2666,1.0339,1.62688,1.76788.76632,1.68105.76632,3.61174,0,5.29279-.36131.73115-.92628,1.34227-1.62688,1.75974-.75239.43394-1.61002.65163-2.47828.62906ZM135.88687,56.43966c.46971.01607.92959-.1369,1.29608-.43112.36098-.30477.63035-.70368.77819-1.15237.34352-1.05183.34352-2.18567,0-3.23749-.14778-.45102-.41704-.85257-.77819-1.16051-.36649-.29422-.82637-.44719-1.29608-.43112-.4766-.01792-.94392.13497-1.31777.43112-.36283.30753-.63394.70905-.78362,1.16051-.34352,1.05183-.34352,2.18567,0,3.23749.14973.44914.42097.84802.78362,1.15237.37528.29739.84476.45036,1.3232.43112h-.00543Z"/><path class="cls-1" d="M144.58255,52.37245v5.71848h-2.30203v-9.76128h2.199v1.65942h.11389c.21726-.53686.59634-.99271,1.08459-1.30422.55129-.33748,1.18968-.50533,1.83566-.48264.61523-.01434,1.2233.13441,1.76245.43112.50478.2929.91145.72882,1.16864,1.2527.29471.62077.43517,1.30352.40943,1.99022v6.21468h-2.29932v-5.85948c.03308-.55625-.14729-1.10416-.50433-1.53198-.3646-.37502-.87426-.57295-1.3964-.54229-.37916-.00722-.75343.08635-1.08459.27115-.31244.17592-.56612.43998-.72939.75921-.18107.3681-.2695.77486-.2576,1.18491Z"/><path class="cls-1" d="M159.50376,45.07589v13.01504h-2.29934v-13.01504h2.29934Z"/><path class="cls-1" d="M164.46303,58.28887c-.57329.00915-1.14188-.10457-1.66756-.33351-.47763-.20902-.88381-.553-1.16864-.98968-.30052-.48312-.45059-1.04469-.43113-1.61332-.01542-.47067.09006-.93744.3064-1.35573.19825-.35528.485-.65325.83242-.86496.36985-.22251.77114-.38796,1.19034-.49077.45364-.11416.91486-.19572,1.38014-.24403.57212-.05965,1.03578-.11117,1.39098-.15998.27227-.02361.53696-.102.77819-.23047.16237-.10644.25544-.29155.24404-.48535v-.03796c.02583-.41474-.12947-.82029-.4257-1.1117-.34046-.29178-.78066-.44045-1.2283-.41486-.47376-.02506-.94284.10435-1.33675.36876-.30507.21554-.53688.51926-.66431.87038l-2.14748-.30369c.14908-.55979.4373-1.0728.83785-1.49131.40121-.40603.89-.71488,1.42895-.90292.6009-.20663,1.23282-.30843,1.86821-.30097.47305-.0002.94448.05532,1.40454.1654.45404.10503.88622.28855,1.27711.54229.39221.25888.71297.61228.93275,1.02765.25112.50448.3723,1.0637.35249,1.62688v6.53193h-2.21255v-1.34218h-.07593c-.1504.28621-.34951.54403-.58838.76192-.27533.24832-.59689.43997-.9463.56399-.42744.15029-.87835.22283-1.33136.2142ZM165.05956,56.59692c.41685.01235.83006-.08092,1.20118-.27115.323-.16913.59459-.42199.78633-.7321.18099-.30111.27485-.64653.27115-.99782v-1.15237c-.11032.07801-.23459.13416-.36604.1654-.18919.05487-.38105.10011-.57483.13557-.2115.03796-.42299.0705-.62906.10033l-.54229.07592c-.31563.03849-.62529.1159-.92191.23047-.24789.08973-.469.24086-.64262.43926-.38779.53345-.28746,1.27755.22777,1.68924.35442.22627.7703.3371,1.19032.31725h0Z"/><path class="cls-1" d="M171.82467,58.09094v-13.01504h2.29932v4.88064h.09489c.14112-.26938.30918-.52375.50161-.75921.24212-.28849.5412-.52388.87851-.69143.43987-.20852.92349-.30803,1.40997-.29013.72248-.00832,1.43214.19121,2.04444.57483.63489.41585,1.13735,1.00488,1.44793,1.69738.3836.86455.56891,1.80397.54229,2.74943.0263.93765-.15326,1.86968-.52603,2.73045-.30691.69661-.80525,1.29179-1.43707,1.71636-.61321.39676-1.33043.60249-2.06071.5911-.4785.01966-.95492-.07321-1.39098-.27115-.33782-.16333-.63936-.39293-.88666-.67516-.19846-.2325-.37203-.48514-.51788-.75379h-.13286v1.51571h-2.26678ZM174.08061,53.2103c-.01029.56496.08156,1.12712.27115,1.65942.15338.43514.42468.8191.78362,1.10899.75653.53341,1.7682.52797,2.51895-.01356.35813-.29621.62744-.68562.77819-1.12526.35149-1.05611.35149-2.19765,0-3.25376-.15277-.42943-.42456-.80654-.78362-1.0873-.76326-.52587-1.77195-.52587-2.53522,0-.35808.27939-.62822.65589-.77819,1.08459-.18112.5228-.26744,1.07374-.25488,1.62688Z"/><path class="cls-1" d="M190.50126,50.91097l-2.09596.22776c-.06226-.21745-.16736-.42026-.30911-.59652-.15687-.19604-.35871-.35137-.58838-.45281-.28409-.1217-.5913-.18-.90021-.17082-.42286-.01661-.84134.09084-1.20391.30911-.29945.16012-.48459.4739-.47994.81344-.0121.26834.10479.5263.31452.69414.31739.22335.68043.37339,1.06289.43926l1.66485.3552c.9246.19794,1.61061.51518,2.06342.9463.45586.44484.7038,1.06077.6833,1.69738.00278.58713-.18779,1.15884-.54229,1.62688-.38628.48532-.8943.85956-1.47232,1.08459-.68945.27492-1.4271.40861-2.16917.39316-1.19305,0-2.15471-.25036-2.88501-.75108-.71524-.48128-1.18926-1.24664-1.3015-2.10139l2.24239-.21692c.0781.4042.31053.7621.64804.99782.38643.23975.83636.35696,1.29066.33622.46304.02269.9222-.09446,1.31777-.33622.30105-.1705.49048-.48655.49892-.83242.00606-.26756-.11207-.52286-.31995-.69143-.29352-.21731-.63467-.3614-.9951-.42028l-1.66485-.34978c-.93546-.19523-1.62688-.52331-2.07698-.98697-.45342-.4732-.69514-1.11029-.66972-1.76517-.01617-.56217.1577-1.11336.49349-1.56452.36068-.46424.84179-.82062,1.39098-1.03036.65746-.25502,1.35837-.37936,2.06342-.36605,1.14425,0,2.04806.24403,2.71147.7321.6545.47194,1.09599,1.1834,1.22829,1.97938Z"/><path class="cls-1" d="M9.26677,20.13039v44.73921h44.73921V20.13039H9.26677ZM35.568,51.88981h-2.58674v-8.19405h-8.40555v8.19406h-2.55149v-18.74438h2.56234v8.16423h8.40555v-8.16423h2.57589v18.74437ZM40.99094,51.88981h-2.60572v-11.42341h2.60572v11.42341ZM40.793,36.47512c-.57422.60499-1.53015.62994-2.13514.05572-.01906-.01809-.03764-.03667-.05572-.05572-.30413-.29979-.47093-.71189-.46095-1.13882-.01105-.43031.15569-.84617.46095-1.14966.57343-.60574,1.52933-.63194,2.13507-.05851.02003.01897.03954.03848.05851.05851.61323.64063.61323,1.65056,0,2.29119l-.00271-.00271Z"/></g></g></svg>