<?xml version="1.0" encoding="utf-8"?>
<!-- Generator: Adobe Illustrator 28.3.0, SVG Export Plug-In . SVG Version: 6.00 Build 0)  -->
<svg version="1.1" id="Layer_1" xmlns="http://www.w3.org/2000/svg" xmlns:xlink="http://www.w3.org/1999/xlink" x="0px" y="0px"
	 viewBox="0 0 200 85" style="enable-background:new 0 0 200 85;" xml:space="preserve">
<style type="text/css">
	.st0{fill:#565656;}
</style>
<path class="st0" d="M133.6,37.2c0.2,0,0.3-0.2,0.3-0.3c0,0,0,0,0,0c0-0.2-0.2-0.3-0.3-0.3c-0.2,0-0.3,0.2-0.3,0.3l0,0
	C133.3,37.1,133.4,37.2,133.6,37.2 M114.5,27.5c0,0.5,0.4,0.9,0.9,0.9c0.5,0,0.9-0.4,0.9-0.9s-0.4-0.9-0.9-0.9
	C114.9,26.6,114.5,27,114.5,27.5C114.5,27.5,114.5,27.5,114.5,27.5L114.5,27.5 M120,29.3c0,0.5,0.4,0.9,0.9,0.9s0.9-0.4,0.9-0.9
	s-0.4-0.9-0.9-0.9l0,0l0,0C120.4,28.5,120,28.9,120,29.3C120,29.3,120,29.3,120,29.3L120,29.3 M99.2,52.2c0,0.5,0.4,0.9,0.9,0.9
	c0.5,0,0.9-0.4,0.9-0.9c0-0.5-0.4-0.9-0.9-0.9l0,0C99.6,51.3,99.2,51.7,99.2,52.2C99.2,52.2,99.2,52.2,99.2,52.2L99.2,52.2
	 M103.5,55.8c0,0.5,0.4,0.9,0.9,0.9c0.5,0,0.9-0.4,0.9-0.9c0-0.5-0.4-0.9-0.9-0.9l0,0l0,0C103.9,54.9,103.5,55.3,103.5,55.8
	 M109,57.5c0,0.5,0.4,0.9,0.9,0.9c0.5,0,0.9-0.4,0.9-0.9c0-0.5-0.4-0.9-0.9-0.9l0,0l0,0C109.4,56.6,109,57,109,57.5
	C109,57.5,109,57.5,109,57.5 M114.6,57.4c0,0.5,0.4,0.9,0.9,0.9c0.5,0,0.9-0.4,0.9-0.9c0-0.5-0.4-0.8-0.9-0.9
	C115,56.5,114.6,56.9,114.6,57.4C114.6,57.4,114.6,57.4,114.6,57.4L114.6,57.4 M120,55.7c0,0.5,0.4,0.9,0.9,0.9
	c0.5,0,0.9-0.4,0.9-0.9c0-0.5-0.4-0.9-0.9-0.9l0,0C120.5,54.8,120.1,55.2,120,55.7C120.1,55.7,120.1,55.7,120,55.7 M124.4,52.2
	c0,0.5,0.4,0.9,0.9,0.9s0.9-0.4,0.9-0.9s-0.4-0.9-0.9-0.9l0,0l0,0C124.8,51.3,124.4,51.7,124.4,52.2
	C124.4,52.2,124.4,52.2,124.4,52.2 M124.3,32.8c0,0.5,0.4,0.9,0.9,0.9s0.9-0.4,0.9-0.9c0-0.5-0.4-0.9-0.9-0.9
	C124.7,31.9,124.3,32.3,124.3,32.8C124.3,32.8,124.3,32.8,124.3,32.8L124.3,32.8 M118.2,30.5c0-0.6-0.5-1.1-1.1-1.1
	c-0.6,0-1.1,0.5-1.1,1.1c0,0.6,0.5,1.1,1.1,1.1C117.7,31.6,118.2,31.1,118.2,30.5C118.2,30.5,118.2,30.5,118.2,30.5L118.2,30.5
	 M121.9,32.8c0-0.6-0.5-1.1-1.1-1.1c-0.6,0-1.1,0.5-1.1,1.1c0,0.6,0.5,1.1,1.1,1.1C121.4,33.9,121.9,33.4,121.9,32.8
	C121.9,32.8,121.9,32.8,121.9,32.8L121.9,32.8 M124.8,36.1c0-0.6-0.5-1.1-1.1-1.1c-0.6,0-1.1,0.5-1.1,1.1s0.5,1.1,1.1,1.1l0,0l0,0
	C124.3,37.2,124.8,36.7,124.8,36.1C124.8,36.1,124.8,36.1,124.8,36.1L124.8,36.1 M116.8,23.6c0-0.2-0.1-0.3-0.3-0.3
	c-0.2,0-0.3,0.1-0.3,0.3c0,0.2,0.1,0.3,0.3,0.3C116.7,23.9,116.8,23.7,116.8,23.6C116.8,23.6,116.8,23.6,116.8,23.6L116.8,23.6
	 M124.3,26.3c0-0.2-0.1-0.3-0.3-0.3c0,0,0,0,0,0l0,0c-0.2,0-0.3,0.1-0.3,0.3c0,0.1,0.1,0.3,0.2,0.3
	C124.1,26.6,124.3,26.4,124.3,26.3 M130.2,30.5c0-0.2-0.1-0.3-0.3-0.3c0,0,0,0,0,0l0,0c-0.2,0-0.3,0.1-0.3,0.3c0,0,0,0,0,0l0,0
	c0,0.2,0.1,0.3,0.2,0.4C130,30.8,130.1,30.7,130.2,30.5C130.2,30.5,130.2,30.5,130.2,30.5 M120,26.6c0-0.3-0.2-0.6-0.5-0.6
	c-0.3,0-0.6,0.2-0.6,0.5c0,0.3,0.2,0.6,0.5,0.6C119.7,27.2,120,26.9,120,26.6C120,26.6,120,26.6,120,26.6L120,26.6 M125.7,29.4
	c0-0.3-0.2-0.6-0.5-0.6c0,0,0,0,0,0l0,0c-0.3-0.1-0.6,0.2-0.7,0.5c-0.1,0.3,0.2,0.6,0.5,0.7c0,0,0,0,0,0h0.1
	C125.4,30,125.7,29.8,125.7,29.4C125.7,29.4,125.7,29.4,125.7,29.4L125.7,29.4 M129.6,33.5c-0.3,0-0.6,0.2-0.6,0.5
	c0,0.3,0.2,0.6,0.5,0.6c0.3,0,0.6-0.2,0.6-0.5C130.1,33.8,129.9,33.5,129.6,33.5C129.6,33.5,129.6,33.5,129.6,33.5L129.6,33.5
	 M112.6,25c-0.3,0-0.6,0.3-0.6,0.6s0.3,0.6,0.6,0.6c0.3,0,0.6-0.3,0.6-0.6l0,0C113.2,25.3,112.9,25.1,112.6,25
	C112.6,25,112.6,25,112.6,25 M109.9,26.6c-0.5,0-0.9,0.4-0.9,0.9c0,0.5,0.4,0.9,0.9,0.9c0.5,0,0.9-0.4,0.9-0.9l0,0
	C110.7,27,110.3,26.6,109.9,26.6L109.9,26.6L109.9,26.6 M104.3,28.5c-0.5,0-0.9,0.4-0.9,0.9c0,0.5,0.4,0.9,0.9,0.9
	c0.5,0,0.9-0.4,0.9-0.9l0,0C105.2,28.9,104.8,28.5,104.3,28.5 M96.2,41.7c-0.5,0-0.9,0.4-0.9,0.9c0,0.5,0.4,0.9,0.9,0.9
	c0.5,0,0.9-0.4,0.9-0.9l0,0C97.1,42.1,96.7,41.7,96.2,41.7L96.2,41.7L96.2,41.7 M97.3,36.5c-0.5,0-0.9,0.4-0.9,0.9
	c0,0.5,0.4,0.9,0.9,0.9c0.5,0,0.9-0.4,0.9-0.9l0,0C98.2,36.9,97.8,36.5,97.3,36.5L97.3,36.5 M100.1,31.9c-0.5,0-0.9,0.4-0.9,0.9
	c0,0.5,0.4,0.9,0.9,0.9c0.5,0,0.9-0.4,0.9-0.9l0,0C101,32.3,100.6,31.9,100.1,31.9 M112.6,56.3c0.6,0,1.1-0.5,1.1-1.1
	c0-0.6-0.5-1.1-1.1-1.1c-0.6,0-1.1,0.5-1.1,1.1l0,0C111.5,55.8,112,56.3,112.6,56.3 M112.6,30.9c0.6,0,1.1-0.5,1.1-1.1
	s-0.5-1.1-1.1-1.1c-0.6,0-1.1,0.5-1.1,1.1l0,0C111.5,30.4,112,30.9,112.6,30.9 M108.2,31.6c0.6,0,1.1-0.5,1.1-1.1s-0.5-1.1-1.1-1.1
	c-0.6,0-1.1,0.5-1.1,1.1l0,0C107.1,31.1,107.6,31.6,108.2,31.6C108.2,31.6,108.2,31.6,108.2,31.6L108.2,31.6 M104.4,33.9
	c0.6,0,1.1-0.5,1.1-1.1s-0.5-1.1-1.1-1.1c-0.6,0-1.1,0.5-1.1,1.1l0,0C103.3,33.4,103.8,33.9,104.4,33.9
	C104.4,33.9,104.4,33.9,104.4,33.9L104.4,33.9 M101.5,37.2c0.6,0,1.1-0.5,1.2-1.1c0-0.6-0.5-1.1-1.1-1.2c-0.6,0-1.1,0.5-1.2,1.1
	c0,0,0,0,0,0l0,0C100.4,36.7,100.9,37.2,101.5,37.2C101.5,37.2,101.5,37.2,101.5,37.2L101.5,37.2 M100.3,41.3c0.6,0,1.1-0.5,1.1-1.1
	c0-0.6-0.5-1.1-1.1-1.1c-0.6,0-1.1,0.5-1.1,1.1l0,0C99.2,40.8,99.7,41.3,100.3,41.3L100.3,41.3L100.3,41.3 M108.7,23.8
	c0.2,0,0.3-0.2,0.3-0.3c0-0.2-0.2-0.3-0.3-0.3c-0.2,0-0.3,0.2-0.3,0.3c0,0,0,0,0,0C108.4,23.7,108.6,23.9,108.7,23.8
	C108.7,23.8,108.7,23.8,108.7,23.8L108.7,23.8 M101.3,26.6c0.2,0,0.3-0.2,0.3-0.3c0,0,0,0,0,0l0,0c0-0.2-0.2-0.3-0.3-0.3
	c-0.2,0-0.3,0.2-0.3,0.3c0,0,0,0,0,0l0,0C101,26.4,101.1,26.6,101.3,26.6 M133.6,49.9c0.2,0,0.3-0.1,0.3-0.3c0-0.2-0.1-0.3-0.3-0.3
	h-0.1c-0.2,0-0.3,0.2-0.3,0.3c0,0,0,0,0,0l0,0C133.2,49.8,133.4,49.9,133.6,49.9 M130,54.9c0.2,0,0.3-0.2,0.3-0.3
	c0-0.2-0.2-0.3-0.3-0.3c-0.2,0-0.3,0.2-0.3,0.3C129.7,54.8,129.8,54.9,130,54.9C130,54.9,130,54.9,130,54.9 M124,59.1
	c0.2,0,0.3-0.2,0.3-0.3c0,0,0,0,0,0l0,0c0-0.2-0.1-0.3-0.3-0.3c-0.2,0-0.3,0.1-0.3,0.3c0,0,0,0,0,0c0,0,0,0,0,0.1
	C123.7,59,123.9,59.1,124,59.1C124,59.1,124,59.1,124,59.1L124,59.1 M116.6,61.8c0.2,0,0.3-0.2,0.3-0.3c0-0.2-0.2-0.3-0.3-0.3l0,0
	l0,0c-0.2,0-0.3,0.2-0.3,0.3C116.3,61.6,116.4,61.8,116.6,61.8 M108.7,61.8c0.2,0,0.3-0.2,0.3-0.3c0-0.2-0.2-0.3-0.3-0.3l0,0l0,0
	c-0.2,0-0.3,0.2-0.3,0.3C108.4,61.6,108.6,61.8,108.7,61.8L108.7,61.8 M101.3,59c0.2,0,0.3-0.2,0.3-0.3c0,0,0,0,0,0l0,0
	c0-0.2-0.2-0.3-0.3-0.3c-0.2,0-0.3,0.2-0.3,0.3c0,0,0,0,0,0l0,0C101,58.9,101.1,59.1,101.3,59 M95.4,54.8c0.2,0,0.3-0.2,0.3-0.3
	c0,0,0,0,0,0c0-0.2-0.2-0.3-0.3-0.3c-0.2,0-0.3,0.2-0.3,0.3l0,0l0,0C95.1,54.7,95.2,54.9,95.4,54.8 M91.7,49.9
	c0.2,0,0.3-0.1,0.3-0.3c0-0.2-0.1-0.3-0.3-0.3h-0.1c-0.2,0-0.3,0.2-0.2,0.4C91.4,49.8,91.5,49.9,91.7,49.9 M95.4,30.7
	c0.2,0,0.3-0.2,0.3-0.3c0,0,0,0,0,0c0-0.2-0.2-0.3-0.3-0.3c-0.2,0-0.3,0.2-0.3,0.3l0,0l0,0C95.1,30.6,95.2,30.7,95.4,30.7
	 M105.8,27.1c0.3,0,0.5-0.3,0.5-0.6c0-0.3-0.3-0.5-0.6-0.5c-0.3,0-0.5,0.3-0.5,0.6C105.3,26.9,105.5,27.1,105.8,27.1L105.8,27.1
	 M100.1,29.9c0.3,0,0.5-0.3,0.5-0.6c0-0.3-0.3-0.5-0.6-0.5c-0.3,0-0.5,0.3-0.5,0.6C99.6,29.7,99.8,29.9,100.1,29.9L100.1,29.9
	 M95.1,34.1c0,0.3,0.2,0.5,0.5,0.5h0.1c0.3,0,0.6-0.3,0.6-0.6c0-0.3-0.3-0.6-0.6-0.6c0,0,0,0-0.1,0C95.3,33.5,95.1,33.8,95.1,34.1
	 M131.8,44.9c-0.3,0-0.5,0.3-0.5,0.6c0,0.3,0.3,0.5,0.6,0.5l0,0c0.3,0,0.5-0.3,0.5-0.6S132.1,44.8,131.8,44.9L131.8,44.9L131.8,44.9
	 M129.6,50.4c-0.3,0-0.5,0.3-0.5,0.6c0,0.3,0.3,0.5,0.6,0.5c0.3,0,0.5-0.3,0.5-0.6C130.2,50.6,129.9,50.4,129.6,50.4L129.6,50.4
	 M125.2,55c-0.3,0-0.6,0.3-0.6,0.6c0,0.3,0.3,0.6,0.6,0.6c0,0,0,0,0.1,0c0.3,0,0.5-0.3,0.5-0.6C125.9,55.3,125.6,55,125.2,55
	L125.2,55 M119.4,57.9c-0.3,0-0.5,0.3-0.5,0.6l0,0c0,0.3,0.3,0.6,0.6,0.5c0.3,0,0.6-0.3,0.5-0.6l0,0c0,0,0,0,0-0.1
	C120,58.1,119.7,57.8,119.4,57.9C119.4,57.9,119.4,57.9,119.4,57.9L119.4,57.9 M112.6,58.8c-0.3,0-0.6,0.3-0.5,0.6
	c0,0.3,0.3,0.6,0.6,0.5h0.1c0.3,0,0.5-0.3,0.5-0.6C113.1,59,112.8,58.8,112.6,58.8 M106,58.1c-0.3,0-0.5,0.3-0.5,0.6
	c0,0.3,0.3,0.5,0.6,0.5c0.3,0,0.5-0.3,0.5-0.6C106.6,58.3,106.3,58,106,58.1C106,58.1,106,58.1,106,58.1L106,58.1 M100,55.1
	c-0.3,0-0.6,0.3-0.5,0.6c0,0.3,0.3,0.6,0.6,0.5l0,0h0.1c0.3,0,0.5-0.3,0.5-0.6C100.6,55.3,100.3,55.1,100,55.1 M95.6,50.4
	c-0.3,0-0.5,0.3-0.5,0.6c0,0.3,0.3,0.5,0.6,0.5c0.3,0,0.5-0.3,0.5-0.6C96.2,50.6,95.9,50.4,95.6,50.4L95.6,50.4 M93.2,39.5
	c-0.3,0-0.5,0.3-0.5,0.6c0,0.3,0.3,0.5,0.6,0.5c0.3,0,0.5-0.3,0.5-0.6C93.7,39.7,93.5,39.5,93.2,39.5L93.2,39.5 M109.3,54.5
	c0-0.6-0.5-1.1-1.1-1.1c-0.6,0-1.1,0.5-1.1,1.1c0,0.6,0.5,1.1,1.1,1.1l0,0C108.8,55.6,109.3,55.1,109.3,54.5L109.3,54.5L109.3,54.5
	 M117,53.4c-0.6,0-1.1,0.5-1.1,1.1s0.5,1.1,1.1,1.1c0.6,0,1.1-0.5,1.1-1.1l0,0C118.1,53.9,117.6,53.4,117,53.4
	C117,53.4,117,53.4,117,53.4L117,53.4 M120.8,51.2c-0.6,0-1.1,0.5-1.1,1.1c0,0.6,0.5,1.1,1.1,1.1s1.1-0.5,1.1-1.1c0,0,0,0,0,0
	C121.9,51.7,121.4,51.2,120.8,51.2C120.8,51.2,120.8,51.2,120.8,51.2 M124.8,48.9c0-0.6-0.5-1.1-1.1-1.1c-0.6,0-1.1,0.5-1.1,1.1
	c0,0.6,0.5,1.1,1.1,1.1C124.3,50,124.8,49.5,124.8,48.9C124.8,48.9,124.8,48.9,124.8,48.9L124.8,48.9 M104.5,51.1
	c-0.6,0-1.1,0.5-1.1,1.1s0.5,1.1,1.1,1.1c0.6,0,1.1-0.5,1.1-1.1l0,0C105.6,51.6,105.1,51.1,104.5,51.1
	C104.5,51.1,104.5,51.1,104.5,51.1L104.5,51.1 M101.5,47.8c-0.6,0-1.1,0.5-1.1,1.1c0,0.6,0.5,1.1,1.1,1.1c0.6,0,1.1-0.5,1.1-1.1
	c0,0,0,0,0,0l0,0C102.6,48.3,102.1,47.8,101.5,47.8L101.5,47.8L101.5,47.8 M146.2,38.2h6.9v9.2h2.4v-9.2h6.3l0.6-1.6h-15.6
	L146.2,38.2z M90.3,36.6h-2.4v10.8h11l0.6-1.6h-9.2V36.6z M112.8,36.6l5.8,10.7h2.6l-5.8-10.7L112.8,36.6z M104,47.3h2.6l5.8-10.7
	h-2.6L104,47.3z M138.8,44.6l-10.2-8h-2.4v10.7h2.4v-8l10.2,8h2.4V36.6h-2.4L138.8,44.6z M187.8,41.2h-7.4c-0.7,0.1-1.4-0.5-1.5-1.2
	c0,0,0,0,0,0c0,0,0-0.1,0-0.1v-0.3c0-0.7,0.6-1.3,1.3-1.3c0,0,0,0,0,0h10.1l0.6-1.6h-11.3c-2,0-3.1,1.4-3.1,2.7v0.7
	c0,1.4,1.1,2.8,3.2,2.8h7.4c0.7-0.1,1.4,0.5,1.5,1.2c0,0,0,0,0,0c0,0,0,0.1,0,0.1v0.3c0,0.7-0.6,1.3-1.4,1.3c0,0,0,0,0,0h-10.1
	l-0.6,1.6h11.3c2,0,3.1-1.4,3.1-2.7V44C190.9,42.6,189.8,41.2,187.8,41.2 M20.4,41.2h-7.4c-0.7,0.1-1.4-0.5-1.5-1.2c0,0,0,0,0,0
	c0,0,0-0.1,0-0.1v-0.3c0-0.7,0.6-1.3,1.3-1.3c0,0,0,0,0,0h10.1l0.6-1.6H12.2c-2,0-3.1,1.4-3.1,2.8v0.7c0,1.4,1.1,2.8,3.2,2.8h7.4
	c0.7-0.1,1.4,0.5,1.5,1.2c0,0,0,0,0,0c0,0,0,0.1,0,0.1v0.3c0,0.7-0.6,1.3-1.4,1.3c0,0,0,0,0,0H9.7l-0.6,1.6h11.3
	c2,0,3.1-1.4,3.1-2.7V44C23.5,42.6,22.4,41.2,20.4,41.2 M167.5,47.3h2.4V36.6h-2.4V47.3z M28.8,38.2h6.9v9.2h2.4v-9.2h6.3l0.6-1.6
	H29.4L28.8,38.2z M61.9,38.2l0.6-1.6H50.3v10.8H62l0.6-1.6h-9.8v-3h6.9l0.6-1.6h-7.5v-3H61.9z M72.2,45.8h9.2l-0.6,1.6h-11V36.6h2.4
	V45.8z"/>
</svg>
