<?xml version="1.0" encoding="UTF-8"?><svg id="Layer_5" xmlns="http://www.w3.org/2000/svg" viewBox="0 0 200 85"><defs><style>.cls-1{fill:#565656;stroke-width:0px;}</style></defs><path class="cls-1" d="M131.76864,43.79788c-.07733,4.26698.84417,6.52698,4.36162,6.52698,3.51165,0,4.01558-3.84989,4.01558-6.77961,0-2.93153-.66639-5.77745-4.35582-5.77745-2.26332,0-3.93445,1.75873-4.02139,6.03008h0ZM124.6526,61.62864v-28.88306h7.20298v1.17156c0,1.56278.63035.91836,1.13818.30932.08503-.10178,1.69034-2.06672,5.30566-2.06672,3.60449,0,9.21186,2.51082,9.21186,11.38559,0,6.86464-3.34529,11.88686-9.12283,11.88686-3.18359,0-5.02412-1.25346-5.44501-1.7593-.42147-.49889-1.00663-.58593-1.00663,0v7.95564h-7.2842M68.97965,23.37136h7.78624v20.42652c0,3.51365-1.50866,10.88289-12.30652,10.88289-10.79909,0-11.97066-6.86854-11.97066-10.71663v-3.76676h7.53494v3.68172c0,2.26009,1.50733,4.35201,4.35202,4.35201,2.84592,0,4.60398-1.58989,4.60398-4.26698v-20.59279M93.04928,40.69942c0-2.09516-1.16966-4.10395-3.84865-4.10395-2.59519,0-3.51679,1.83996-3.51679,4.10395h7.36544ZM88.44977,31.90846c6.11464,0,11.47005,2.34322,11.47005,13.14289h-14.48157c0,3.43242,1.42172,4.85595,3.93312,4.85595,2.51206,0,3.34862-2.01069,3.34862-2.01069h7.11794c0,3.09855-4.27012,7.2843-10.71786,7.20117-7.36487,0-10.96536-5.44178-10.96536-11.05106,0-5.61128,3.17902-12.13825,10.29506-12.13825M116.19997,40.69942c0-2.09516-1.17099-4.10395-3.84998-4.10395-2.59386,0-3.51745,1.83996-3.51745,4.10395h7.36744ZM111.60046,31.90846c6.11398,0,11.46806,2.34322,11.46806,13.14289h-14.48091c0,3.43242,1.42296,4.85595,3.93635,4.85595,2.50949,0,3.34728-2.01069,3.34728-2.01069h7.11794c0,3.09855-4.27079,7.2843-10.71653,7.20117-7.36877,0-10.96926-5.44178-10.96926-11.05106,0-5.61128,3.18292-12.13825,10.29706-12.13825M142.74361,58.16598c0-1.14389.9312-2.07318,2.07899-2.07318,1.14398,0,2.07328.9293,2.07328,2.07318,0,1.14198-.9293,2.07709-2.07328,2.07709-1.14769,0-2.07899-.9351-2.07899-2.07709ZM142.50391,58.16598c0,1.2799,1.03631,2.31878,2.31869,2.31878,1.2741,0,2.31611-1.03888,2.31611-2.31878s-1.04202-2.31878-2.31611-2.31878c-1.28238,0-2.31869,1.03888-2.31869,2.31878M145.86018,59.3969l-.48149-1.13685c.15276-.05289.20365-.09027.28488-.1772.10568-.11347.17216-.29258.17216-.45504,0-.40986-.31522-.68884-.77216-.68884h-.96658v2.45784h.28678v-1.06456h.69864l.45885,1.06465h.31903-.00009ZM144.37597,58.08285v-.87651h.68181c.28488,0,.46598.16246.46598.41376,0,.28554-.19214.46275-.50593.46275h-.64185"/></svg>