<?xml version="1.0" encoding="UTF-8"?><svg id="Layer_15" xmlns="http://www.w3.org/2000/svg" viewBox="0 0 200 85"><defs><style>.cls-1{fill:#565656;stroke-width:0px;}</style></defs><path class="cls-1" d="M169.34172,39.08526h-6.17635v10.22751c0,2.91161,1.53363,3.45358,3.51954,3.45358.69158,0,1.43749-.0996,2.19158-.20049l.46522,4.58321c-1.61771.28629-3.77868.53076-5.17994.53076-4.25856,0-8.03506-1.4862-8.03506-6.7071v-11.88748h-3.58724v-4.51682h3.58724v-4.97945l7.03867-1.99238v6.97183h6.17635v4.51682ZM150.39963,57.21591h-7.03996v-14.54513c0-2.13812-.89983-3.31992-3.31993-3.31992-1.82121,0-2.99957.87525-4.31632,1.92685v15.93864h-7.03996v-22.64703h6.84076v1.99238c2.29333-1.54182,4.9221-2.52314,7.76905-2.52314,4.49052,0,7.10679,2.79046,7.10679,7.03996v16.1374h-.00043Z"/><path class="cls-1" d="M114.47938,15.2991c-3.56266,6.03579-2.01481,11.499-5.49813,14.9819-2.79693,2.79951-5.39293,2.70897-8.44467,2.70897-1.05978,0-3.12331.09184-3.98477.71788-.50143-1.59399-.71745-3.34838-.71745-5.02041,0-2.8741.64544-5.42699,2.70983-7.49138,3.95545-3.95459,11.11871-5.21228,15.93519-5.89696"/><path class="cls-1" d="M76.41757,57.21591h-7.03952v-14.54513c0-2.13812-.89853-3.31992-3.31992-3.31992-1.81906,0-3.00086.87611-4.31633,1.92685v15.93864h-7.04039v-22.64703h6.84076v1.99238c2.29463-1.54182,4.92426-2.52314,7.76991-2.52314,4.48836,0,7.10549,2.79046,7.10549,7.03996v16.1374ZM53.2497,34.5693l-11.28945,27.42815c-1.73412,4.21328-5.21961,7.30469-9.96149,7.30469-2.37396,0-3.63165-.30914-5.17994-.66355l.99598-4.51682c1.24993.27939,2.19029.39839,3.05433.39839,2.83228,0,4.33573-2.40759,5.71199-5.71113l.66442-1.59399-8.76761-22.64574h7.57201l4.11713,11.22392c.49669,1.35513.77436,2.74174.99598,3.71874.25826-.9839.7597-2.61368,1.26114-3.91794l4.25079-11.02429h6.57474v-.00044Z"/><path class="cls-1" d="M28.38004,49.97762c0,4.92857-4.55303,7.63625-9.96149,7.63625-3.51955,0-6.3639-.58853-9.3639-1.79189l1.92555-4.58235c1.78413.7209,4.35255,1.52716,6.44194,1.52716,1.63452,0,3.91794-.20049,3.91794-2.19158,0-.93044-.58422-1.40946-1.65953-1.72722-1.34823-.39753-3.4165-.7528-4.78155-1.12877-2.87065-.79118-5.24677-2.29894-5.24677-6.5092,0-4.66945,3.98218-7.57071,9.42944-7.57071,3.59759,0,5.88187.47557,7.90357,1.06281l-1.79276,4.58235c-.89207-.40529-3.3971-.99598-5.17994-.99598-1.9359,0-3.25438.73901-3.25438,1.92555,0,.58767.36562,1.33012,1.3948,1.66082,1.10592.35441,2.85168.67476,4.31633.99598,3.00043.65881,5.91075,2.38172,5.91075,7.10679M190.94535,57.21634h-6.64243v-1.79319c-1.72507,1.52716-3.95847,2.25712-6.44108,2.25712-4.21328,0-7.10679-2.03981-7.10679-6.30958,0-7.50647,7.49397-8.67103,13.34953-8.69949v-.59759c0-1.86562-.70624-3.18756-4.05031-3.18756-2.25841,0-4.82811,1.11843-6.51006,2.12604l-1.72636-4.18483c2.99181-1.62202,6.70365-2.7883,10.22621-2.7883,5.40543,0,8.90084,2.58436,8.90084,7.10549v16.07187h.00043ZM184.10502,51.17279v-4.18483c-3.25999-.05303-6.31001.27292-6.31001,3.38675,0,1.92685,1.62332,2.52443,2.85599,2.52443,1.46163,0,2.58996-.73038,3.45401-1.72636M125.59595,45.06241c0,.75065-.02371,1.52501-.06554,2.32524h-15.00906c.06467,3.29276,1.70696,5.24548,6.5079,5.24548,2.1269,0,4.68411-.96666,5.77881-1.72636l1.85873,4.18396c-3.10047,1.68454-6.44108,2.58997-10.16068,2.58997-7.0365,0-11.41967-4.53018-11.41967-11.75468,0-7.34306,5.74605-11.88833,11.95042-11.88833,7.73153.00043,10.55908,4.51725,10.55908,11.02472M118.35807,42.87083c.11986-2.49598-1.13179-4.0516-3.58637-4.0516-2.37051,0-3.78557,1.74102-4.18396,4.0516h7.77033ZM103.09981,60.00507c0,6.60535-6.58465,9.66485-13.08351,9.69546-5.71544.02846-11.22263-1.61771-11.22263-7.10549,0-2.56755,2.27436-4.28442,3.6532-5.17994-.76401-.43676-1.46033-.77997-2.05921-1.46163-.63036-.71659-1.12877-1.76258-1.12877-3.51955,0-2.214,1.95272-4.26071,4.31633-5.57962-1.31202-.68942-3.05433-1.80095-3.05433-5.5115,0-4.82682,4.57761-7.37152,10.55908-7.37152,5.08249,0,9.96149,1.21673,9.96149,7.17362,0,5.69043-5.34766,7.76905-10.75956,7.76905-1.00762,0-1.9096-.15953-2.78916-.33156-.57732.30785-1.72636,1.071-1.72636,1.92685,0,1.73972,2.37396,1.99238,3.45358,1.99238h5.57833c5.17261-.00043,8.30153,2.50891,8.30153,7.50345M94.19984,41.47646c0-1.89839-1.04728-3.45358-3.38589-3.45358-2.13812,0-3.45358,1.80655-3.45358,3.45358,0,1.89968,1.1831,3.45272,3.32035,3.45272,2.34895,0,3.51912-1.55993,3.51912-3.45272M96.05986,60.93422c0-1.84622-1.47715-2.52314-2.98836-2.52314h-6.17634c-.94079.53766-2.39077,1.71601-2.39077,3.25438,0,1.98764,2.67706,3.31992,5.84435,3.31992,3.27853.00043,5.71113-1.50647,5.71113-4.05117"/></svg>