<?xml version="1.0" encoding="UTF-8"?><svg id="Layer_7" xmlns="http://www.w3.org/2000/svg" viewBox="0 0 200 85"><defs><style>.cls-1{fill:#565656;stroke-width:0px;}</style></defs><g id="Camada_1"><path class="cls-1" d="M94.35423,41.94607v19.00389h4.47401v-19.00389h-4.47401ZM86.30101,34.70244h-4.60184c-.51132,0-.4261.46871-.4261.46871.08522.59653.21305,1.57656.21305,3.62182,0,4.51662-.55393,10.99328-5.49664,17.17168l-.34088.4261s-2.98267-20.79349-3.02528-21.17698c0,0,0-.46871-.4261-.46871h-4.64445c-.4261,0-.4261.46871-.4261.46871-.12783,2.38614-1.44873,22.41266-16.06383,25.65099,3.1105.34088,6.86015-.63914,10.14109-2.6418,4.04791-2.51397,6.77493-6.221,7.66973-10.48197,0,0,1.7896,11.16372,2.00265,13.7203v.17044l-.12783.08522c-4.09052,2.17309-8.73497,3.36616-13.37942,3.36616-11.5046,0-21.6883-6.81754-26.16231-17.21429,2.6418,12.22896,13.54986,21.13437,26.29013,21.13437,14.87076,0,23.73356-12.44201,25.2675-21.30481,0,0,2.00265,12.91071,2.04526,13.33681h6.09318c-.08522-.55393-4.13313-25.35272-4.17574-25.73621,0,0,0-.46871-.4261-.46871v-.12783ZM34.78598,45.56789c0-13.63508,11.5046-24.71358,25.60838-24.71358,8.73497,0,16.87341,4.38879,21.60308,11.5046-3.45138-9.71499-13.08115-16.36209-23.86139-16.36209-13.93335,0-25.2675,10.86545-25.2675,24.20226,0,3.66443.8948,7.24364,2.55658,10.52458-.38349-1.66178-.63914-3.40877-.63914-5.11315v-.04261ZM141.56568,44.67309c-1.61917-1.87482-3.87748-2.85484-6.60449-2.85484-2.76963,0-5.11315.8948-6.98798,2.68441-1.83221,1.74699-2.76963,4.09052-2.76963,6.98798,0,2.85484.8948,5.15576,2.68441,6.86015s4.38879,2.55658,7.62712,2.55658c6.30622,0,7.66973-4.34618,8.18105-5.7523l-1.61917-.51132c-1.44873,2.6418-4.68706,2.81223-6.60449,2.68441-1.36351-.08522-2.59919-.55393-3.57921-1.23568-.98002-.72436-1.66178-1.74699-1.96004-3.32355l-.08522-.59653h14.14639c-.04261-3.1105-.85219-5.62447-2.42875-7.45668v-.04261ZM130.18892,49.48798c-.21305,0-.21305-.21305-.21305-.29827.17044-1.10785.59653-1.96004,1.36351-2.72702.85219-.8948,2.17309-1.40612,3.57921-1.40612,1.27829,0,2.30092.38349,3.19572,1.10785.72436.63914,1.23568,1.53395,1.53395,2.76963.04261.12783.12783.51132-.21305.51132h-9.24629v.04261ZM155.7973,41.73303c-5.36881,0-7.28624,3.28094-7.88278,4.81489,0,.04261-.21305.55393-.21305.55393l1.7896.59653s1.15046-3.32355,5.70969-3.1105c4.60184.17044,4.04791,3.96269,4.04791,4.55923-2.55658-.76697-6.17839-.68175-8.56453.38349-2.98267,1.36351-3.45138,4.09052-3.32355,6.09318.12783,2.98267,2.76963,5.07054,6.17839,5.24098,3.06789.17044,4.4314-.51132,5.70969-1.74699l-.04261,1.74699h4.04791v-13.08115c.08522-2.25831-1.49134-6.09318-7.45668-6.09318v.04261ZM159.20607,56.47596c0,.29827-.08522.51132-.34088.63914-.76697.38349-2.38614.8948-4.38879.76697-2.08787-.17044-2.89745-1.66178-3.02528-2.30092-.04261-.25566-.51132-3.02528,2.17309-3.87748,1.74699-.55393,3.96269-.21305,5.15576.12783.34088.08522.4261.29827.4261.72436v3.96269-.04261ZM98.52997,34.70244h-3.70704c-.55393,0-.46871.55393-.46871.55393v4.0053h4.55923v-4.04791s.04261-.46871-.4261-.46871l.04261-.04261ZM121.2835,34.70244h-3.79226c-.38349,0-.38349.4261-.38349.4261v7.79756l-.55393-.29827c-.59653-.29827-1.19307-.51132-1.83221-.63914s-1.40612-.17044-2.25831-.17044c-2.98267,0-5.41142.85219-7.20103,2.59919-1.74699,1.70438-2.68441,4.17574-2.68441,7.20103,0,2.68441.76697,4.94272,2.25831,6.73232,1.49134,1.74699,3.66443,2.6418,6.51927,2.6418,4.09052,0,5.70969-2.47136,5.70969-2.47136v2.38614h4.60184v-25.73621s0-.46871-.38349-.46871ZM116.8521,55.75159c-.4261.38349-.98002.68175-1.66178.93741-.72436.29827-1.57656.4261-2.51397.4261-1.53395,0-2.76963-.51132-3.66443-1.53395s-1.3209-2.51397-1.3209-4.51662c0-1.96004.4261-3.40877,1.23568-4.30357.85219-.93741,2.13048-1.40612,3.83487-1.40612.8948,0,1.74699.12783,2.51397.4261.68175.25566,1.19307.51132,1.57656.85219.12783.12783.25566.34088.25566.63914v7.79756c0,.29827-.12783.51132-.25566.63914v.04261Z"/><path class="cls-1" d="M166.0236,31.54933c-1.57656,0-2.76963,1.19307-2.76963,2.76963,0,1.53395,1.19307,2.76963,2.76963,2.76963s2.76963-1.19307,2.76963-2.76963c0-1.53395-1.19307-2.76963-2.76963-2.76963ZM166.0236,31.93281c1.3209,0,2.34353,1.06524,2.34353,2.38614s-.98002,2.38614-2.34353,2.38614c-1.3209,0-2.34353-1.06524-2.34353-2.38614s.98002-2.38614,2.34353-2.38614ZM165.42707,34.48939h.68175l.8948,1.40612h.46871l-.93741-1.40612c.4261-.08522.80958-.34088.80958-.8948s-.29827-.8948-1.02263-.8948h-1.23568v3.19572h.38349v-1.40612h-.04261ZM165.42707,34.14851v-1.10785h.72436c.38349,0,.76697.08522.76697.55393,0,.55393-.46871.55393-.93741.55393h-.55393Z"/></g></svg>