<?xml version="1.0" encoding="UTF-8"?><svg id="Layer_8" xmlns="http://www.w3.org/2000/svg" viewBox="0 0 200 85"><defs><style>.cls-1{fill:#878d96;stroke-width:0px;}</style></defs><path class="cls-1" d="M24.35451,29.66928h5.63932v5.03115h4.06363v4.00834h-4.06363v8.26547c0,1.74155.55287,2.07328,2.43265,2.07328h1.63098v4.09127h-3.59368c-4.56121,0-6.10926-.8846-6.10926-5.16938v-9.26064h-2.90259v-4.00834h2.90259v-5.03115h-.00002ZM53.18691,47.3889c-1.65862,4.3677-5.52875,6.24748-9.20535,6.24748-5.99868,0-10.1176-3.62133-10.1176-9.78587,0-5.91576,4.47828-9.64765,9.89645-9.64765,6.13691,0,9.89645,4.64414,9.50944,11.19571h-13.68364c.16586,2.62615,2.21149,3.81483,4.25714,3.81483,2.15621,0,3.51076-.77402,4.14656-1.85213l5.19702.02765h-.00001ZM39.66914,41.97073h7.98904c-.11058-2.32207-1.71391-3.48311-3.87012-3.48311-2.04563,0-3.81483,1.05046-4.11892,3.48311ZM72.67574,41.47315h-5.2523c-.49758-2.15621-1.85213-2.90259-3.51076-2.90259-2.01799,0-4.00834,1.38219-4.00834,5.33523,0,4.00834,1.99034,5.33523,4.00834,5.33523,2.07328,0,3.37253-1.0781,3.78719-2.8473h5.2523c-1.27161,5.47345-5.69461,7.21501-9.39887,7.21501-6.08162,0-9.4265-3.89776-9.4265-9.78587s3.84248-9.64765,9.4265-9.64765c3.81483,0,8.01668,1.74156,9.12243,7.29793h0ZM79.2273,37.16073c.80166-1.38219,2.81966-2.8473,5.72225-2.8473,4.72707,0,6.21983,2.79201,6.21983,7.79553v11.08513h-5.63932v-9.64765c0-2.62615-.08294-4.78236-2.81966-4.78236-2.43265,0-3.45546,1.5757-3.45546,5.03116v9.45415h-5.63932v-24.87935h5.63932l-.02764,8.79069h0ZM104.16193,40.14624c-.38701-1.38219-1.82448-1.7692-3.59368-1.7692-1.9627,0-2.93023.46994-2.93023,1.38219,0,.85696.66345,1.35454,2.26678,1.65862l3.45546.60817c4.423.80167,6.55156,2.12857,6.55156,5.36288,0,4.14656-3.81484,6.24748-8.92892,6.24748-4.92058,0-8.40369-2.07328-9.03949-6.44098h5.25231c.49758,1.7692,1.93506,2.32207,3.87011,2.32207,2.01799,0,3.42782-.55287,3.42782-1.65862,0-.80167-.71874-1.35454-2.90259-1.71391l-3.28959-.55287c-3.56604-.58052-5.99868-2.37736-5.99868-5.63931,0-3.67662,3.87011-5.69461,8.43134-5.69461,4.20185,0,8.04432,1.68627,8.73542,5.91576l-5.30759-.02765h-.00001ZM112.81441,29.66927h5.63931v5.03116h4.06363v4.00835h-4.06363v8.26547c0,1.74155.55287,2.07328,2.43265,2.07328h1.60334v4.09127h-3.56604c-4.56121,0-6.10926-.8846-6.10926-5.16938v-9.26064h-2.90259v-4.00834h2.90259v-5.03116h0ZM135.39933,40.92027c0-2.21149-1.05045-2.93024-3.12374-2.93024-1.82448,0-3.04081.93988-3.28959,2.70908h-5.27995c.27643-3.48311,3.56604-6.55156,9.0395-6.55156,5.33523,0,8.34842,2.15621,8.23783,7.76788l-.08292,4.00834v1.93506c0,2.01799.13822,4.20185.41466,5.33523h-5.55639l-.08292-2.23914c-1.38219,1.96271-3.56604,2.68145-6.21983,2.68145-3.51075,0-6.3857-2.04563-6.3857-5.41817,0-4.53357,5.11409-5.99869,12.27381-6.55156l.05528-.74636h-.00003ZM135.56519,44.9839c-3.95305.38701-6.5792.77402-6.5792,2.81966,0,1.18868,1.13339,1.99036,2.5985,1.99036,2.26678,0,3.98069-.96753,3.98069-4.3677v-.44231h.00001ZM153.92062,40.14625c-.49758-.08293-1.05045-.13822-1.54805-.11058-2.73673,0-4.14656.99518-4.14656,3.87012v9.26064h-5.66697v-18.466h5.44582v3.51076c.85695-2.21149,2.405-3.51076,5.03117-3.62133h.41466c.16586,0,.30409,0,.46994.02765v5.52875h-.00001ZM166.41558,40.14625c-.38701-1.38219-1.82448-1.7692-3.59368-1.7692-1.96271,0-2.93024.46994-2.93024,1.38219,0,.85696.66344,1.35454,2.26678,1.65862l3.42782.60817c4.42299.80167,6.55156,2.12857,6.55156,5.36288,0,4.14656-3.81483,6.24748-8.92892,6.24748-4.89294,0-8.40368-2.07328-9.0395-6.44098h5.25231c.49758,1.7692,1.93506,2.32207,3.87011,2.32207,2.01798,0,3.42782-.55287,3.42782-1.65862,0-.80167-.71874-1.35454-2.90259-1.71391l-3.28959-.55287c-3.56604-.58052-5.97104-2.37736-5.97104-5.63931,0-3.67662,3.87011-5.69461,8.43134-5.69461,4.20184,0,8.04433,1.68627,8.73542,5.91576l-5.3076-.02765h-.00001Z"/><path class="cls-1" d="M172.02725,57.9488v-4.75472h15.25933v4.75472h-15.25933Z"/></svg>