<?xml version="1.0" encoding="UTF-8"?><svg id="Layer_15" xmlns="http://www.w3.org/2000/svg" viewBox="0 0 200 85"><defs><style>.cls-1{fill-rule:evenodd;}.cls-1,.cls-2{fill:#565656;stroke-width:0px;}</style></defs><path class="cls-1" d="M93.87007,25.49722C60.44761,55.74828,47.34293-15.80453,5.74033,11.27512l46.88172,66.72855"/><path class="cls-1" d="M101.57207,44.35019l11.44286,24.81078,2.62702-.02149,10.05325-24.94329-4.48223-.154-6.80483,18.43572-8.19982-18.28172M137.78094,44.17111l-10.68896,24.79108,4.92455.16833,2.01459-6.21389h10.52063l2.01459,6.04556,4.81353.16833-10.07294-24.95941h-3.52598ZM139.68451,50.32769l2.79714,8.72988h-6.32312l3.52598-8.72988Z"/><path class="cls-1" d="M68.97705,28.7085c12.02936,7.00928,24.47778-4.15985,28.29834-8.08411l4.99866-7.15204c-10.88049-10.76215-22.04218.81311-42.41895,9.25952,2.01398,1.51794,4.97766,3.56049,9.12195,5.97662Z"/><path class="cls-1" d="M77.19678,32.97656c-3.00391,0-6.11816-.72803-9.22656-2.54053-4.9328-2.87549-8.22687-5.22473-10.27509-6.83539-.18567.07239-.36609.14691-.55322.21863,8.99628,9.63837,18.63684,12.02826,28.92426,7.18524-2.74231,1.18018-5.74371,1.97205-8.86938,1.97205Z"/><path class="cls-2" d="M158.32974,68.82968v-23.66291h4.37837v19.64269h10.88774v4.02022M179.06837,68.67568v-24.0139h14.17196v1.85521c-1.03327.64646-2.01101,1.46125-2.96905,2.20799h-7.44591v5.32389h9.34053v4.0453h-9.34053v6.53443h10.3917v4.04708"/></svg>