<?xml version="1.0" encoding="utf-8"?>
<!-- Generator: Adobe Illustrator 28.3.0, SVG Export Plug-In . SVG Version: 6.00 Build 0)  -->
<svg version="1.1" id="Layer_1" xmlns="http://www.w3.org/2000/svg" xmlns:xlink="http://www.w3.org/1999/xlink" x="0px" y="0px"
	 viewBox="0 0 200 85" style="enable-background:new 0 0 200 85;" xml:space="preserve">
<style type="text/css">
	.st0{fill-rule:evenodd;clip-rule:evenodd;fill:#565656;}
</style>
<path class="st0" d="M110.7,73.9h-6l-2.4-6.1h-11L89,73.9h-5.9l10.7-27h5.8L110.7,73.9z M100.5,63.2l-3.8-10l-3.7,10H100.5z
	 M113.2,73.4v-27h5.3v9.7c1.6-1.8,3.5-2.7,5.8-2.7c2.4,0,4.4,0.9,6,2.6c1.6,1.7,2.4,4.2,2.4,7.4c0,3.3-0.8,5.9-2.4,7.7
	c-1.6,1.8-3.6,2.7-5.9,2.7c-1.1,0-2.3-0.3-3.4-0.8c-1.1-0.6-2.1-1.4-2.8-2.5v2.9L113.2,73.4L113.2,73.4z M118.4,63.3
	c0,2,0.3,3.5,1,4.5c0.9,1.4,2.1,2.1,3.6,2.1c1.2,0,2.2-0.5,3-1.5c0.8-1,1.2-2.5,1.2-4.6c0-2.2-0.4-3.8-1.2-4.8
	c-0.8-1-1.9-1.5-3.2-1.5c-1.3,0-2.3,0.5-3.1,1.4C118.8,59.8,118.4,61.3,118.4,63.3L118.4,63.3z M140.2,73.9H135V54.4h4.9v2.8
	c0.8-1.3,1.6-2.2,2.2-2.6c0.7-0.4,1.4-0.6,2.3-0.6c1.2,0,2.4,0.3,3.5,1l-1.6,4.5c-0.9-0.6-1.7-0.8-2.5-0.8c-0.7,0-1.4,0.2-1.9,0.6
	c-0.5,0.4-0.9,1.1-1.2,2.2c-0.3,1-0.4,3.2-0.4,6.5L140.2,73.9L140.2,73.9z M150.1,51.7v-4.8h5.3v4.8H150.1z M150.1,73.9V54.4h5.3
	v19.5L150.1,73.9L150.1,73.9L150.1,73.9z M160.2,73.9v-27h5.3v27H160.2z M50.9,55.3c-0.2,6.1-1.7,12.2-5.3,18.3l20.9,0.2
	c-2.9-5.7-4.7-11.8-5-18.8c-0.2-5,0.3-9.2,3.6-12.5c2.9,4.2,8,6.1,15.2,5.5c0.4-2.8,0.2-5.6-1.8-8.4c3-0.5,6-2,9.1-5
	c-1.5-3.2-4-5.6-8.9-6.2c3.3-3.6,3.9-8.2,3-13.6C75.7,14,68.7,18.2,69.5,25c-0.4-1.7-1.1-2.9-2.2-3.6c0.9-3.8,0.4-9-1-12.8
	c-4.5,0.9-6.3,2.2-8.9,5.8c-0.2-1.8-1.1-4.2-3.1-6c-2.6,1-4.3,3.4-5.2,5.2c-1.3-3.8-4.5-6.5-8.4-7.8c-4.1,3.5-3.9,7.9-2.4,13.1
	c-3.4-0.5-7.4-1-11.2,0.5c0.6,3.3,3.1,7.3,5.8,9.7c-2.4,0.2-4.7,0.7-7.1,3.6c1.1,2.9,3.4,4.9,7.1,6c-2.8,2.4-4.4,5.2-4.9,8.4
	c7.1,2.6,16.4,0.6,19.3-5C51,46.5,51.1,51,50.9,55.3L50.9,55.3z M40.9,10.4c-1.7,4.9-0.4,9.1,3.9,12.7C47,17.7,46.4,13.2,40.9,10.4z
	 M78.6,17.3c0.7,4.9-1.9,8.9-6.9,12.5C70.6,24.4,72.5,20.1,78.6,17.3z M63.5,12.8c1.7,4.9,0.4,9.1-3.9,12.7
	C57.5,20.1,58,15.6,63.5,12.8L63.5,12.8z M51.3,27.6c-2.6-4.9-1.9-10.5,2.4-14.1C56.3,18.1,56.7,24.7,51.3,27.6z M45.2,30.8
	c-2.8-6.9-7.2-9.6-13.2-8.3C34.4,28.5,39.3,30.5,45.2,30.8z M42.1,34.9c-3.2-3.5-7-4.1-11.5-1.7C33.7,37.5,37.5,38,42.1,34.9
	L42.1,34.9z M33.5,45c1.4-4.9,4.5-7.7,11.2-5.7C42.9,43.8,39.6,46.3,33.5,45L33.5,45z M56.2,28.5c-5.5,0.7-8.5,3.8-9.3,8.9
	C53.5,36.1,56.6,33.2,56.2,28.5z M60.4,32.4c-3.7,2.2-4.6,6.2-3.3,11.6C62.6,41.2,63.2,37.3,60.4,32.4z M65.4,36.2
	c-3.5-5.2-3.7-9.4,1-12.6C69.8,27.7,68.7,31.9,65.4,36.2L65.4,36.2z M69.8,34.9c3.9-4.5,8.3-5.1,13.2-1.8
	C79.9,37.2,75.5,37.7,69.8,34.9z M67.2,39.4c4.7-2.1,9.2,0.4,10.4,5.7C72.2,45.7,68.6,43.9,67.2,39.4L67.2,39.4z"/>
</svg>
