<?xml version="1.0" encoding="UTF-8"?><svg id="Layer_11" xmlns="http://www.w3.org/2000/svg" viewBox="0 0 200 85"><defs><style>.cls-1{fill:#565656;stroke-width:0px;}</style></defs><g id="Layer_1-2"><path class="cls-1" d="M97.20849,56.6045c-1.59823,0-2.91694-.24368-3.95614-.72386s-1.81323-1.23988-2.32208-2.27908-.75969-2.37942-.75969-4.02781v-21.17825h6.57923v20.07454c0,.53035.07884.96037.24367,1.29005.16484.32968.41568.57335.75969.72386.34401.1505.73819.22934,1.19687.22934h8.5573v5.89121h-10.30603.00716Z"/><path class="cls-1" d="M131.92505,32.36597c-5.59736-5.59736-14.67069-5.59736-20.26805,0s-5.59736,14.67069,0,20.26805c5.59736,5.59737,14.67069,5.59737,20.26805,0,5.59736-5.59736,5.59736-14.67069,0-20.26805M127.69657,48.41271c-3.26095,3.26095-8.5573,3.26095-11.81825,0-3.26095-3.26095-3.26095-8.5573,0-11.81825,3.26095-3.26095,8.5573-3.26095,11.81825,0,3.26095,3.26095,3.26095,8.5573,0,11.81825"/><path class="cls-1" d="M77.7503,56.6045c-1.59822,0-2.91694-.24368-3.95614-.72386s-1.81323-1.23988-2.32208-2.27908c-.50885-1.0392-.75969-2.37942-.75969-4.02781v-21.17825h6.57923v20.07454c0,.53035.07884.96037.24368,1.29005s.41568.57335.75969.72386c.34401.1505.73819.22934,1.19687.22934h8.5573v5.89121h-10.30603.00717Z"/><path class="cls-1" d="M147.64211,56.6045h-10.45653v-5.89121h10.17703c1.45488,0,2.63742-.90303,2.63742-2.35075,0-1.36171-2.15724-2.21458-4.88785-3.03877-2.0999-.63069-7.67578-2.30775-7.67578-8.39963,0-4.7015,3.44729-8.52864,8.52863-8.52864h8.78664l-1.54088,5.89121h-7.24576c-1.45488,0-2.63742.90303-2.63742,2.35075,0,1.36171.75253,2.21458,3.48312,3.03877,2.0999.63069,9.08049,2.30775,9.08049,8.39963,0,5.07418-3.54046,8.52864-8.24196,8.52864"/><path class="cls-1" d="M44.10878,56.6045c1.45488-5.6547,6.5864-9.84018,12.69978-9.84018,4.92368,0,8.00545,2.72343,8.00545,2.72343,0,0-1.9709-2.38658-4.93801-3.82714l-3.03877-11.63908-2.97427,11.3524c-3.01011.40851-5.6332,1.71289-7.28876,3.08894l5.38952-17.66646c.43718-1.42622,1.74873-2.40092,3.23945-2.40092h3.19645c1.49072,0,2.80943.9747,3.23945,2.40092l7.48943,24.59687c.14334.39418.27234.80269.37985,1.21838h-6.77991l-.01433-.05017c-1.16104-2.06407-3.37562-3.45446-5.90554-3.45446s-4.69433,1.36172-5.86971,3.38279l-.02867.12184h-6.80141v-.00717Z"/></g></svg>