<?xml version="1.0" encoding="UTF-8"?><svg id="Layer_15" xmlns="http://www.w3.org/2000/svg" viewBox="0 0 200 85"><defs><style>.cls-1{fill:#565656;stroke-width:0px;}</style></defs><path class="cls-1" d="M63.67349,25.14419c-.67383-.71937-1.50932-.42076-1.46892.46827l.50538,8.92425c.20885,4.05833,2.52003,6.42685,6.54939,6.63719l8.86058.50899c.88267.04074,1.13198-.76007.46492-1.47947l-14.91135-15.05924Z"/><path class="cls-1" d="M78.1132,43.32525l-8.85386.50222c-4.02936.21035-6.34054,2.57886-6.54939,6.63719l-.50538,8.92423c-.0404.88906.79509,1.18087,1.46892.46831l14.90464-15.05249c.66705-.71939.41775-1.52697-.46492-1.47946Z"/><path class="cls-1" d="M59.64413,50.47165c-.2089-4.05833-2.52003-6.42679-6.54944-6.63719l-8.86056-.50899c-.88269-.04068-1.13199.80081-.46493,1.47946l14.91134,15.05249c.67383.71939,1.50938.42075,1.46892-.46825l-.50533-8.91752Z"/><path class="cls-1" d="M58.68082,25.14482l-14.90461,15.05246c-.67381.67865-.41776,1.5202.46493,1.47946l8.86054-.50899c4.02941-.21035,6.34054-2.57886,6.54944-6.63719l.50533-8.92426c.03369-.88903-.80852-1.18085-1.47563-.46148Z"/><path class="cls-1" d="M102.80171,44.22901c2.7023,1.4591,3.53757,4.66233,2.93762,9.70473-.04718.38684-.37018.67865-.75425.67865h-3.35553c-.45177,0-.80864-.40043-.7548-.85509.72095-6.13503-.06049-8.32028-3.57797-8.32028h-5.7341l-1.46892,8.53746c-.06067.36647-.37735.63115-.74792.63115h-3.43645c-.47164,0-.82878-.42757-.74792-.89583l3.99567-22.70089c.06738-.36647.37734-.63115.74797-.63115h10.80813c4.84459,0,7.55965,2.11061,7.55965,6.26395-.00666,3.71223-2.10234,6.37934-5.47119,7.58729ZM103.17911,37.2389c0-1.83233-1.03119-2.87068-3.16017-2.87068h-5.92274c-.37063,0-.68731.26468-.74797.63115l-1.1589,6.73903h6.05078c3.05256,0,4.939-1.97491,4.939-4.4995Z"/><path class="cls-1" d="M128.69635,38.20166l-2.75613,15.77865c-.06049.36647-.3774.63115-.74814.63115h-3.13298c-.47175,0-.82861-.42757-.74814-.89582l.26307-1.52697c-1.54956,1.79842-3.64524,2.94533-6.15217,2.94533-4.0898,0-6.80541-3.04712-6.80541-7.71622,0-5.71428,3.98934-10.6277,9.3795-10.6277,2.81662,0,4.74358,1.35054,5.67376,3.63758l.4107-2.47708c.06105-.36647.3774-.63792.74814-.63792h3.12632c.46509-.00683.82196.42075.74148.889ZM122.84055,44.92032c0-2.5585-1.47519-4.11943-3.84726-4.11943-3.33555,0-5.56554,3.01321-5.56554,6.12826,0,2.5585,1.50904,4.18725,3.91497,4.18725,3.26118,0,5.49783-3.01321,5.49783-6.19608Z"/><path class="cls-1" d="M132.13235,37.30694h3.13298c.47175,0,.82917.42752.74814.89583l-2.75613,15.77859c-.0605.36647-.3774.63115-.74759.63115h-3.13354c-.47174,0-.82861-.42752-.74759-.89577l2.75558-15.77865c.06771-.36647.38406-.63115.74814-.63115ZM132.04467,32.60387c0-1.62876,1.27372-2.94533,2.92429-2.94533,1.47574,0,2.47308,1.07226,2.47308,2.49067,0,1.66267-1.27372,2.97924-2.88433,2.97924-1.48186,0-2.51304-1.07226-2.51304-2.52458Z"/><path class="cls-1" d="M156.59842,38.20166l-2.75557,15.77865c-.06105.36647-.3774.63115-.74814.63115h-3.13353c-.47119,0-.82862-.42757-.74759-.89582l.26251-1.52697c-1.54956,1.79842-3.64524,2.94533-6.15162,2.94533-4.09035,0-6.80541-3.04712-6.80541-7.71622,0-5.71428,3.98878-10.6277,9.3795-10.6277,2.81607,0,4.74358,1.35054,5.67321,3.63758l.41125-2.47708c.0605-.36647.3774-.63792.74759-.63792h3.12687c.46454-.00683.82196.42075.74093.889ZM150.74317,44.92032c0-2.5585-1.47574-4.11943-3.84781-4.11943-3.335,0-5.56554,3.01321-5.56554,6.12826,0,2.5585,1.5096,4.18725,3.91497,4.18725,3.26118,0,5.49838-3.01321,5.49838-6.19608Z"/></svg>