<?xml version="1.0" encoding="UTF-8"?><svg id="Layer_8" xmlns="http://www.w3.org/2000/svg" viewBox="0 0 200 85"><defs><style>.cls-1{fill-rule:evenodd;}.cls-1,.cls-2{fill:#565656;stroke-width:0px;}</style></defs><path class="cls-2" d="M99.54259,34.97135l-19.12585,19.50586h5.74447l9.55968-9.75022v9.75022l9.58349-9.80869v9.80869h3.82712v-19.52318l-9.58891,9.77945v-9.76213Z"/><path class="cls-1" d="M111.79695,40.80026c1.559-3.83253,5.22697-6.32909,9.29443-6.32693,2.67563.00427,5.23678,1.08601,7.10535,3.00107,1.89156,1.93767,2.9487,4.5393,2.94477,7.24717.00108,4.14866-2.44676,7.89025-6.20567,9.47848-3.75675,1.58931-8.08405.71238-10.96061-2.22157-2.87548-2.93395-3.73509-7.34569-2.17827-11.17822ZM114.86947,44.72157c0,3.50449,2.78562,6.34533,6.22191,6.34533s6.22191-2.84084,6.22191-6.34425c0-3.50558-2.78562-6.34641-6.22191-6.34641s-6.22191,2.84084-6.22191,6.34533ZM159.14063,38.37082h.71454l3.35509-3.4168h-4.54707c-4.62503,0-8.37419,3.82387-8.37419,8.54092v10.98226h3.80979v-10.98335c0-2.83001,2.24972-5.12412,5.0256-5.12412M140.71741,54.47721c-2.03924-.00193-3.9917-.82537-5.41643-2.28436-1.44149-1.47609-2.24719-3.45826-2.2443-5.52145v-11.74119h3.82821v11.73902c.00325,2.15661,1.71814,3.90399,3.83253,3.90399h3.34968v-15.61919h3.82821v19.52318h-7.17789ZM166.43868,45.93629h5.85923v4.63801h-5.85923c-1.11728-.18188-1.939-1.16383-1.939-2.31793s.82172-2.13712,1.939-2.31901v-.00108ZM167.01464,38.37083h-4.28183l3.34967-3.4168h1.67484c4.6261,0,8.37636,3.82279,8.37961,8.54092v10.98226h-9.95159c-2.13712.06821-4.14216-1.05665-5.2313-2.93394-1.08899-1.88351-1.08899-4.20524,0-6.08875,1.08913-1.87837,3.09418-3.00215,5.2313-2.93394h5.97507c-.55756-2.42727-2.67844-4.14541-5.12303-4.14975,0,0-.02273,0-.02273,0Z"/><path class="cls-2" d="M23.86307,50.48552v11.98046l28.71476-21.96453v-11.98046l-28.71476,21.96453Z"/><path class="cls-2" d="M65.62576,62.46598l10.43986-7.98877v-16.95733l-10.44095,7.98877v16.95733h.00108Z"/><path class="cls-2" d="M52.57783,40.50145l-9.13961,6.99058v14.97286l9.13962-6.97218s0-14.99127,0-14.99127Z"/><path class="cls-2" d="M52.57783,55.49272v-14.99126l23.48779-17.96743v14.98585l-23.48779,17.97285Z"/></svg>