<?xml version="1.0" encoding="UTF-8"?><svg id="Layer_14" xmlns="http://www.w3.org/2000/svg" viewBox="0 0 200 85"><defs><style>.cls-1{fill:#565656;stroke-width:0px;}</style></defs><path class="cls-1" d="M25.98337,28.28798c-.55216-.58635-1.23977-.34552-1.20849.3769l.4167,7.3081c.17712,3.31902,2.06284,5.26646,5.37588,5.43397l7.27204.41883c.71889.03138.92724-.62822.37509-1.21457l-12.23122-12.32324Z"/><path class="cls-1" d="M37.82911,43.17675l-7.27204.41878c-3.31305.17801-5.19876,2.11495-5.37588,5.43397l-.41676,7.3081c-.03123.72242.65639.97374,1.20854.37696l12.23122-12.32329c.5626-.59679.3542-1.25639-.37509-1.21452Z"/><path class="cls-1" d="M22.67017,49.0294c-.17712-3.32947-2.06284-5.26646-5.37588-5.43397l-7.27203-.41878c-.71887-.03144-.92724.65961-.37506,1.21452l12.23119,12.32329c.55216.5863,1.23977.34547,1.20854-.37695l-.41675-7.3081Z"/><path class="cls-1" d="M21.87838,28.28834l-12.23119,12.32324c-.55217.55491-.34381,1.24595.37506,1.21452l7.27203-.41878c3.31305-.17801,5.19876-2.11495,5.37588-5.43397l.41675-7.3081c.03123-.73292-.65639-.97369-1.20854-.3769Z"/><path class="cls-1" d="M93.62943,32.24614c-2.91692,0-5.36518,1.00513-7.28243,2.984-1.91674,1.95788-2.88575,4.39741-2.88575,7.26622,0,2.83737.96901,5.2769,2.88575,7.25572,1.91724,1.98932,4.36551,2.984,7.28243,2.984,2.89666,0,5.34492-1.00513,7.26165-2.984,1.93804-1.99976,2.90705-4.43929,2.90705-7.25572,0-2.84787-.9794-5.2874-2.90705-7.25578-1.91673-1.98931-4.36499-2.99444-7.26165-2.99444ZM97.66137,46.83095c-1.09371,1.1517-2.40669,1.70661-4.03194,1.70661-1.61485,0-2.97927-.57585-4.06311-1.70661-1.06255-1.12032-1.60447-2.57566-1.60447-4.33459s.54192-3.21433,1.60447-4.33459c1.07293-1.13076,2.43786-1.70666,4.06311-1.70666s2.93822.55496,4.03194,1.70666c1.08385,1.13076,1.62525,2.59655,1.62525,4.33459s-.5414,3.20383-1.62525,4.33459Z"/><path class="cls-1" d="M158.0464,40.28716c-.58348-.18845-1.57328-.47115-2.09391-.60723-.53152-.13613-1.18775-.3874-1.51093-.56541-.61467-.29315-.87497-.61773-.87497-1.09938,0-.40829,0-1.65424,3.01096-1.65424,2.13548,0,4.18781.59679,6.07389,1.77992,0,0,.07275.04188.16679.1047.13508.08376.21874-.02094.21874-.07331v-4.05189c0-.1885-.12522-.25132-.12522-.25132-1.94842-1.07839-4.09429-1.62286-6.37628-1.62286-2.28147,0-4.10468.51303-5.42752,1.52865-1.35456,1.01557-2.04247,2.42904-2.04247,4.20896,0,2.63848,1.60445,4.16708,3.85527,5.18265.53101.24083,1.01059.3874,1.29167.47115l1.42729.47115,1.52133.47115.65623.21989c.55231.19895.71858.27221,1.07293.48165.53152.25127.84379.74336.84379,1.37154,0,1.46584-1.85438,1.97887-3.43806,1.97887-1.25011,0-2.55217-.24082-3.85477-.72242-1.29167-.50259-2.30226-1.07844-3.09409-1.76948,0,0-.10445-.0942-.21875-.18845-.11482-.0942-.18756-.03138-.18756.09425v4.34509c0,.20939.10392.25127.10392.25127,2.00039,1.40297,4.49073,2.10445,7.41804,2.10445,2.26068,0,4.09428-.53397,5.58444-1.6333,1.50002-1.10982,2.2607-2.64892,2.2607-4.56498-.02079-3.33996-2.45866-5.06751-6.26147-6.26109Z"/><path class="cls-1" d="M167.72565,52.17052c0,.1047.08313.19895.19797.19895h4.01063c.10445,0,.19797-.08376.19797-.19895v-19.34868c0-.1047-.08313-.19895-.19797-.19895h-4.01063c-.10443,0-.19797.08376-.19797.19895v19.34868Z"/><path class="cls-1" d="M181.23785,48.32802c-.15639,0-.28108-.12564-.28108-.2827v-15.13972c0-.15707-.12522-.2827-.28162-.2827h-3.87554c-.15639,0-.2811.12563-.2811.2827v19.18117c0,.15707.12471.2827.2811.2827h13.58545c.15639,0,.28161-.12563.28161-.2827v-3.48654c0-.15707-.12522-.2827-.28161-.2827h-9.14721v.01049Z"/><path class="cls-1" d="M121.87379,40.71638h-5.17761c-.11483,0-.18757.0942-.18757.19895v3.59118c0,.12569.07274.19895.19797.19895h3.34401c.146,0,.19796.07331.19796.17801v2.44998c0,.14657-.05195.18845-.08313.21989-.8438.71198-1.98999,1.047-3.5212,1.047-1.67773,0-3.10501-.54447-4.22989-1.63335-1.12541-1.07839-1.69851-2.55467-1.69851-4.38692,0-1.87417.5731-3.32952,1.76086-4.43934,1.18776-1.1412,2.68779-1.68567,4.58425-1.68567,1.33324,0,2.60465.27221,3.87555.83761.4271.18845.8438.40834,1.27089.65961.06235.04188.20835.04188.24992-.08376.21875-.73292.94823-3.20383.9898-3.32947.04157-.14657-.03117-.25127-.07274-.27221-2.06273-1.38208-4.40707-2.01025-6.59502-2.01025-3.05253,0-5.59432.96325-7.57392,2.86876-1.98999,1.91605-3.00057,4.39746-3.00057,7.38141,0,2.95256,1.01058,5.43397,3.00057,7.38141,1.9796,1.90556,4.47982,2.86875,7.43882,2.86875,1.61485,0,3.16684-.30359,4.60452-.88994,1.35455-.56535,2.47996-1.27734,3.30297-2.16727.09352-.09425.12469-.16756.12469-.31414v-8.43886c0-.12564-.06235-.20939-.19796-.20939-.11431-.02094-2.60465-.02094-2.60465-.02094Z"/><path class="cls-1" d="M77.3562,44.93568c2.18795-1.34015,3.44845-3.08864,3.44845-5.42348,0-4.34509-3.56328-6.88932-6.86573-6.88932h-8.67854c-.13561,0-.19796.07331-.19796.19895v19.32774c0,.13613.08313.19895.19796.19895h4.18833c.1247,0,.19796-.05237.19796-.19895v-15.13972c0-.13608.09352-.19895.19744-.19895h3.87606c1.50003,0,2.50022,1.37159,2.50022,2.68036,0,1.34015-.97941,2.63848-2.50022,2.63848h-2.71948c-.1143,0-.19796.07326-.19796.1989v.65961c0,.15707,0,.17801.09404.2932.07274.0942,5.78189,7.51749,6.81325,8.86813.10443.13613.16678.20939.36474.20939h4.71986c.16626,0,.16626-.11514.10391-.19895-.06235-.08376-5.54235-7.22434-5.54235-7.22434Z"/><path class="cls-1" d="M59.07182,35.38669c-1.98989-1.83225-4.59454-2.75362-7.74086-2.75362h-7.38666c-.10418,0-.19796.08376-.19796.19889v19.33824c0,.1047.08334.1989.19796.1989h7.37621c3.1672,0,5.77181-.91088,7.74086-2.73268,2.00033-1.84274,3.01086-4.24034,3.01086-7.14058,0-2.87925-1.01048-5.2769-3.00042-7.10915ZM50.99755,48.32765h-2.45876c-.1354,0-.19791-.04188-.19791-.19889v-11.26579c0-.12563.06251-.18845.19791-.18845h2.45876c4.15695,0,6.53236,2.12539,6.53236,5.83182,0,3.69593-2.37541,5.82132-6.53236,5.82132Z"/><path class="cls-1" d="M147.28436,52.1077l-5.69875-13.45405-2.38591-5.63287-.06235-.14657c-.06235-.13613-.22913-.25132-.38553-.25132h-3.52171c-.15587,0-.32265.11519-.38501.25132l-8.15792,19.223c-.06235.13613.02078.25132.16678.25132h4.09428c.1564,0,.32318-.11519.38553-.25132l1.65642-3.92626c.06287-.13613.22965-.25127.38552-.25127h7.17852c.146,0,.32266.11514.38553.25127l1.65641,3.92626c.06235.13613.22914.25132.38553.25132h4.14625c.14599.02094.21874-.09425.15639-.24083ZM139.09578,44.19232h-4.29276c-.14548,0-.22913-.11514-.16627-.25127l2.21913-5.25596c.06235-.13613.15587-.13613.21874,0l2.19783,5.25596c.05248.13613-.03118.25127-.17666.25127Z"/></svg>