<?xml version="1.0" encoding="UTF-8"?><svg id="Layer_17" xmlns="http://www.w3.org/2000/svg" viewBox="0 0 200 85"><defs><style>.cls-1{fill:#565656;stroke-width:0px;}</style></defs><path class="cls-1" d="M126.68122,40.74369v16.9827h-6.16607v-15.32388c0-3.74101-1.86069-6.03599-5.84694-6.03599-3.72137,0-6.114,2.51-6.59381,3.58041v17.78168h-6.16176v-26.21016h5.89904v3.31098c1.80424-2.50978,4.88944-4.00578,8.61082-4.00578,5.68844,0,10.25872,4.11218,10.25872,9.93515v-.0151Z"/><path class="cls-1" d="M93.64604,49.08733c-1.53931,2.40429-3.50647,4.00872-7.01525,3.99477-4.04127,0-7.01758-2.62055-7.76166-6.57114h20.0994c1.33003-8.75919-4.09476-15.86281-12.91905-15.86281-7.65935,0-13.3469,6.51766-13.3469,14.15377,0,7.91047,5.95494,13.73056,13.93054,13.73056,5.42245,0,9.72881-2.24154,12.44005-7.20825l-5.4248-2.23688h-.00233ZM85.99598,35.94738c3.82968,0,6.27351,2.1369,7.06874,5.61081h-13.98169c.84872-3.41811,3.353-5.60617,6.91294-5.61081Z"/><rect class="cls-1" x="129.17376" y="41.89774" width="10.8479" height="5.45158"/><path class="cls-1" d="M148.64073,36.96358h6.63722l.00653-5.45158h-6.64375v-6.64375h-6.16612v26.61839c0,3.45936,2.80437,6.26373,6.26373,6.26373h6.54614v-5.60819h-6.64375v-15.17861Z"/><path class="cls-1" d="M71.93941,58.52759l-17.91014.01416c-4.89269-.04139-3.76266-5.6162-1.7327-6.37405,1.71382.69166,3.49374,1.03631,5.34212,1.0316,7.0158,0,12.41694-4.77085,12.41694-11.27676-.00473-2.00418-.54767-3.97059-1.56983-5.69385l3.45361-3.44539-3.50318-3.65777-3.67315,3.46777c-2.18831-1.33139-4.56311-1.98056-7.1244-1.94516-7.06774,0-12.35794,4.8275-12.35794,11.28149-.0236,3.00036,1.0198,5.56401,3.13021,7.69803-2.53768,2.24024-4.12721,5.15143-3.59174,8.37822.61337,3.69623,3.8779,6.07844,8.12653,6.12585h18.99367v-5.60415ZM57.63868,35.89348c3.84547,0,6.42328,2.65099,6.42328,6.01726,0,3.47721-2.63446,6.06919-6.42093,6.06919-3.78409,0-6.36427-2.5967-6.36899-6.05739,0-3.36391,2.58963-6.01962,6.36664-6.02906Z"/></svg>