<?xml version="1.0" encoding="UTF-8"?><svg id="Layer_4" xmlns="http://www.w3.org/2000/svg" viewBox="0 0 200 85"><defs><style>.cls-1{fill:#878d96;stroke-width:0px;}</style></defs><path class="cls-1" d="M83.64728,46.58652v7.66532c.0008.20337-.00916.40665-.02981.60897-.04749.62557-.45501,1.16615-1.04334,1.38401-1.71205.73425-3.51095,1.24658-5.35294,1.52455-1.44053.21062-2.89827.27909-4.3522.20441-1.44114-.05577-2.86052-.37023-4.19037-.92836-2.40576-.9806-4.26936-2.95447-5.11021-5.41256-1.07601-2.88097-1.15993-6.03862-.23848-8.97268,1.19664-3.83266,3.83266-6.11522,7.70365-7.03932,1.40957-.30197,2.85566-.39665,4.29258-.28106,2.38423.13926,4.73341.6404,6.96692,1.48622,1.02204.39178,1.35421.81763,1.35421,1.92911v7.8314h0ZM77.96642,46.67595v-4.42033c.07358-.56603-.29521-1.09523-.8517-1.22219-.14054-.05536-.28957-.08943-.42585-.13202-.90094-.24109-1.8313-.35433-2.76377-.33642-2.64879.02129-4.48421,1.38401-5.11021,3.83266-.41567,1.54699-.39355,3.17901.06388,4.71417.45735,1.83297,1.96656,3.21473,3.83266,3.50901,1.49142.26015,3.02455.13557,4.4544-.36197.63452-.20441.8517-.54083.8517-1.23071-.03975-1.45357-.06104-2.90856-.06388-4.36497,0,0,.01277.01277.01277.01277ZM134.92399,46.66743c.0388,2.02401-.42193,4.02638-1.34143,5.8299-1.64805,3.11723-4.25851,4.87174-7.72494,5.36998-1.86486.28537-3.77032.13969-5.57013-.42585-3.17201-.928-5.66603-3.38683-6.63901-6.54533-.99049-2.84481-.95584-5.94629.09794-8.76827,1.46919-3.96893,4.39478-6.18761,8.56812-6.7327,1.89205-.26425,3.81992-.07,5.62123.56638,3.57714,1.27755,5.71918,3.83266,6.63901,7.48646.24808,1.05474.36537,2.13603.3492,3.21943h0ZM123.88168,40.50963c-2.07478-.07315-3.95654,1.21009-4.64603,3.16833-.2813.76402-.4422,1.56709-.47695,2.38051-.1071,1.27034.08544,2.54808.56213,3.73045.53467,1.37097,1.69906,2.39894,3.12574,2.75951.3605.09236.72796.15502,1.09869.18737,2.25567.33084,4.42196-1.01027,5.1315-3.17685.69184-1.87879.69184-3.94259,0-5.82138-.49358-1.50061-1.73833-2.6322-3.27906-2.98095-.50677-.13201-1.01778-.17034-1.51603-.247h.00001ZM88.93634,47.51487v-9.14302c.01474-.70013.47367-1.31316,1.14129-1.52455,2.15457-.76311,4.3965-1.25241,6.67309-1.45641,1.63557-.15348,3.28348-.11488,4.91006.11498,1.05742.14713,2.08756.44843,3.0576.89429,2.13583.95089,3.6198,2.94837,3.91357,5.26778.0959.58416.1429,1.17531.14054,1.76728v13.20564c0,.61323-.29384.91132-.89855.91558h-3.86247c-.44633.05082-.84934-.26981-.90017-.71614-.00593-.05208-.00681-.10461-.00263-.15686v-12.19211c-.00132-.43905-.04554-.87691-.13201-1.30737-.18575-.98712-.86629-1.80924-1.80135-2.1761-.48131-.20842-.99071-.34474-1.51177-.40456-1.31539-.1355-2.64436-.03892-3.92634.28532-.19836.04554-.39115.11266-.5749.20015-.32217.1426-.53058.46106-.53231.81337v14.78555c.02167.46988-.34169.86836-.81157.89003-.02614.00121-.05232.00121-.07846,0h-.71117c-.93262,0-1.86522-.02981-2.79358,0s-1.30736-.28531-1.27755-1.27755c-.00426-2.92559-.0213-5.85545-.0213-8.7853h-.00002ZM56.46095,57.56495h-1.87801c-.69839,0-.89855-.29384-.74098-.97094.1176-.45776.19314-.9253.2257-1.39679.07732-1.19185-.49615-2.33228-1.49899-2.98095-.74054-.50955-1.55686-.89903-2.41883-1.15406-1.40105-.42585-2.81061-.8517-4.21167-1.31588-1.13536-.34646-2.21628-.85107-3.21092-1.49899-1.65697-1.06711-2.6654-2.8967-2.68286-4.86748-.15756-3.5516,1.75877-6.20465,4.93987-7.43962,1.60186-.60603,3.30952-.88268,5.02078-.81337,2.59616.03122,5.1563.61175,7.51201,1.7034.33642.15757.66859.3279.99223.51102.57255.22778.85204.87659.62426,1.44914-.01786.04489-.03861.08857-.06213.13077-.11924.2981-.26403.58342-.4003.87726-.28532.61323-.60045,1.21367-.8517,1.83968-.39605.9752-1.20516,1.06889-1.93337.65155-1.09929-.63723-2.2757-1.13098-3.50049-1.46919-1.45977-.45657-3.0117-.53424-4.50976-.2257-.44295.10368-.86493.28227-1.24775.52805-.79239.46203-1.06019,1.47892-.59817,2.27131.12818.21983.30515.40726.51726.54783.47877.34689,1.00708.61966,1.56713.80911,1.31162.44714,2.64879.81763,3.97745,1.22219,1.25399.35327,2.46947.83119,3.62825,1.4266.73472.38822,1.41369.87381,2.01853,1.44363,1.1397,1.09724,1.8598,2.55851,2.03556,4.13075.13512,1.02654.09915,2.06838-.10646,3.08316-.05582.25345-.12549.50366-.20867.7495-.11977.48277-.57343.80629-1.06889.76227h-1.9291s0-.00426,0-.00426ZM144.85483,35.73158h5.35721c.6984,0,.97094.28106.98798.99223v2.74248c0,.8219-.24699,1.07314-1.05612,1.0774h-5.34017c0,.247-.0213.45992-.0213.67285v15.4882c.01752.45358-.33598.83548-.78956.853-.02923.00113-.05851.00069-.08769-.0013h-3.6538c-.83041,0-1.09869-.27254-1.09869-1.09444v-20.57712c.00107-1.01595.13129-2.02765.38753-3.01077.80486-3.03631,2.75951-4.89729,5.80861-5.59142,1.75875-.38947,3.58141-.38947,5.34017,0l.19589.04684c.7495.19589.93261.49398.78783,1.27755l-.44714,2.34218v.04684c-.15756.76653-.42586.95816-1.20941.8517-.31558-.05789-.63398-.09911-.9539-.12349-.60617-.03634-1.21429-.02352-1.81839.03833-1.17306.11971-2.11961,1.01211-2.30812,2.1761-.1365.58762-.16392,1.1953-.08091,1.79283h-.00001ZM160.09178,46.65891v9.79457c0,.8517-.25551,1.10295-1.13277,1.10721h-3.5516c-.68988,0-.97946-.30236-1.005-.99223v-19.95963c-.0131-.4702.35746-.86199.82766-.87509.02932-.00081.05866-.00012.08792.00209h3.75602c.73246,0,1.00926.28106,1.00926,1.02204.00851,3.30176.01136,6.60211.00851,9.90104Z"/><path class="cls-1" d="M45.74654,54.98004c-.03833.26829-.06388.53657-.11498.8006-.21876,1.21339-1.26279,2.1042-2.49549,2.12925-.38818.02464-.77791-.00401-1.15832-.08517-1.2212-.18609-2.14007-1.21022-2.19313-2.44438-.03092-.45559.00495-.91325.10646-1.35847.22125-1.00783,1.04087-1.77496,2.06112-1.9291.58115-.12114,1.18292-.10069,1.7545.05962,1.29885.34494,2.01002,1.35847,2.03983,2.82765h0ZM157.31949,32.99336c-.30297-.01773-.60452-.05472-.90281-.11072-1.22771-.24409-2.10675-1.32902-2.09093-2.58066-.01681-.42176.02038-.84394.11073-1.25626.24557-1.05217,1.13831-1.82817,2.21443-1.92484.43664-.05023.87818-.03877,1.31161.03407,1.33835.18333,2.31769,1.35449,2.26127,2.70415.00732.40506-.04141.80919-.14479,1.2009-.24699.9752-1.1285,1.95466-2.75952,1.93337h.00001Z"/></svg>