<?xml version="1.0" encoding="UTF-8"?><svg id="Layer_6" xmlns="http://www.w3.org/2000/svg" viewBox="0 0 200 85"><defs><style>.cls-1{fill:#878d96;stroke-width:0px;}</style></defs><path class="cls-1" d="M179.20564,35.15485h.29431c.33186,0,.61455-.12078.61455-.43299,0-.2236-.16195-.44458-.61455-.44458-.1324,0-.22278.00898-.29431.01969,0,0,0,.85789,0,.85789ZM179.20564,36.55749h-.40254v-2.53243c.21289-.03041.41326-.06088.71562-.06088.38463,0,.6369.08052.78808.19236.15119.11093.23165.28269.23165.52419,0,.33279-.22181.53404-.49377.61634v.01969c.22093.04026.37305.24242.4231.61542.05995.39361.11991.54479.16195.62531h-.42403c-.06083-.08051-.12164-.31222-.17176-.64588-.05995-.32293-.22186-.44279-.54388-.44279h-.28446v1.08867h.00003ZM179.63052,33.31922c-.99917,0-1.81589.85789-1.81589,1.91702,0,1.0797.81672,1.92682,1.82574,1.92682,1.00993.01076,1.81589-.84712,1.81589-1.91697,0-1.06898-.80595-1.92687-1.81589-1.92687,0,0-.00985,0-.00985,0ZM179.64037,32.96501c1.2416,0,2.23098,1.00903,2.23098,2.27124,0,1.28099-.98938,2.28108-2.24083,2.28108-1.24073,0-2.24975-1.00009-2.24975-2.28108,0-1.26221,1.00903-2.27124,2.24976-2.27124h.00985-.00001Z"/><polygon class="cls-1" points="24.12865 53.4338 29.16312 31.11421 49.07195 31.11421 48.14698 35.61643 37.19251 35.61643 36.37044 39.3869 45.9214 39.3869 44.94274 43.8363 35.373 43.8363 34.31744 48.69635 45.57789 48.69635 44.59031 53.4338 24.12865 53.4338"/><path class="cls-1" d="M56.86785,39.25984c-1.41427,3.93777-1.90447,7.54903-1.90447,7.54903-.47591,2.65317,1.42942,3.60499,3.26505,3.60499,1.50193,0,3.62285-.8883,4.2848-2.71939,1.37222-3.80985,1.90538-7.61879,1.90538-7.61879.67986-4.21683-3.26597-3.60499-3.26597-3.60499-3.15591-.21288-4.2848,2.78915-4.2848,2.78915M48.29729,40.3476c2.04132-7.88979,7.48189-7.82182,13.94404-7.68584,4.42436.09302,11.29083.13598,10.06709,7.074,0,0-.27283,1.97156-.72278,4.10412h-6.96577l13.99863,16.76813h-9.29068l-6.06675-7.26901s-2.31324.8167-5.98532.67986c-3.67209-.13689-10.47503.00265-10.2022-6.39327.13598-3.19618,1.22374-7.27799,1.22374-7.27799"/><path class="cls-1" d="M75.96709,33.61175h8.12241s-2.59862,11.42951-3.1577,14.24907c0,0,.08231,2.34997,2.56371,2.35625,0,0,3.24984.50184,3.90287-2.16209l3.24899-14.44321h8.24672s-3.12015,14.28576-3.66581,16.05424c-.54296,1.76853-3.26506,4.14978-9.45346,4.49058-1.06627.05638-2.92426,0-5.03267-.27462l-7.41392-8.77273s1.98585-9.15378,2.63888-11.49747"/><polygon class="cls-1" points="101.96324 33.61175 110.26184 33.61175 105.78024 53.39624 97.67395 53.39624 101.96324 33.61175"/><polygon class="cls-1" points="117.22496 53.39533 109.03993 53.39533 113.34536 33.61088 131.20298 33.61088 130.25656 37.48242 120.85495 37.48242 119.95686 41.12589 127.98262 41.12589 127.13642 44.92585 119.1956 44.92585 117.22496 53.39533"/><path class="cls-1" d="M134.15495,44.76843h5.208l-.6369-6.52925-4.5711,6.52925ZM128.43884,53.39533h-5.75009l13.97093-19.78445h9.92218l1.97335,16.05603,6.66338-6.12309-6.53904-9.93294h10.51618l3.16667,5.03711,5.123-5.03711h8.05709l-10.4607,9.18598,6.82891,10.59846h-10.1396l-3.42252-5.90664-5.67402,5.90664h-12.26143l-.3811-4.3224h-8.67073s-2.92248,4.3224-2.92247,4.32241Z"/></svg>