<?xml version="1.0" encoding="UTF-8"?><svg id="Layer_9" xmlns="http://www.w3.org/2000/svg" viewBox="0 0 200 85"><defs><style>.cls-1{fill:#565656;fill-rule:evenodd;stroke-width:0px;}</style></defs><path class="cls-1" d="M105.69849,36.81065l-.96248,4.40472h1.94823c1.11055,0,1.83702-.04951,2.1794-.14839.98559-.28349,1.59179-.96294,1.81858-2.04273.05092-.23398.07857-.44094.07857-.62088,0-.69741-.34707-1.16085-1.04104-1.39483-.41657-.13042-1.11055-.1979-2.07771-.1979h-1.94354ZM122.76411,44.58545h5.0901l-.75427-7.50489h-.07872l-4.25711,7.50489ZM86.20371,43.87444l-.93483,4.28788h2.8829c1.7861,0,2.83183-.70194,3.14188-2.10567.05092-.21602.07872-.41845.07872-.60292,0-1.05276-.8144-1.57929-2.44321-1.57929h-2.72546ZM87.78613,36.6532l-.88376,4.01329h2.44321c.91624,0,1.54087-.07654,1.8695-.22492.72646-.35097,1.17522-.93593,1.35109-1.7547.15729-.70194.03249-1.23738-.3655-1.60632-.31005-.28349-.83752-.42735-1.58258-.42735h-2.83198ZM79.47558,51.4693l3.95628-18.0242h10.14772c.32395.02702.60151.05857.83299.0945,1.1938.21602,2.10536.65243,2.72546,1.30486.56918.60291.85595,1.32719.85595,2.18205,0,.30146-.03686.61197-.10168.92687-.46734,2.08771-2.10552,3.46005-4.9097,4.11248l-.02765.04936c2.44321.43657,3.66482,1.5568,3.66482,3.36102,0,1.13835-.32864,2.16862-.98559,3.09549-.65712.92687-1.53634,1.64224-2.63768,2.14628-1.10133.49936-2.84573.7513-5.23349.7513h-8.28743ZM46.29297,45.61571h5.14096c-.06941.31942-.10181.58042-.10181.78738,0,1.25534.86993,1.88075,2.60981,1.88075,1.82316,0,2.89207-.65243,3.19748-1.95276.0324-.15744.0509-.31036.0509-.44984,0-.58948-.42571-.99434-1.28177-1.21489l-4.27101-1.09337c-2.42472-.62088-3.63245-1.81765-3.63245-3.59484,0-.35097.04164-.72443.12956-1.12039.3563-1.52525,1.254-2.77154,2.68847-3.73885,1.61956-1.09337,3.72962-1.64224,6.32093-1.64224,4.3358,0,6.50143,1.30033,6.50143,3.90536,0,.42751-.06951.95389-.20368,1.57024h-5.20106c.08328-.31942.12956-.58495.12956-.80987,0-1.04838-.66633-1.57023-1.99438-1.57023-.73574,0-1.36506.17103-1.89258.51295-.5275.34191-.84216.77379-.94859,1.2958-.0324.14401-.0509.27897-.0509.40486,0,.65243.50439,1.10243,1.50851,1.3589l3.24839.83237c1.41596.3644,2.40621.72881,2.96611,1.09321.9579.60291,1.43445,1.47589,1.43445,2.61862,0,.38252-.05092.79191-.1526,1.23738-.41189,1.84014-1.50858,3.24387-3.29935,4.21572-1.63809.89094-3.6741,1.33188-6.11732,1.33188-3.15584,0-5.23813-.68398-6.24227-2.04726-.47661-.63884-.71723-1.41716-.71723-2.33513,0-.38236.06016-.87282.18047-1.47574ZM63.17812,51.4693l3.97487-17.96563h14.08088l-.75427,3.44193h-8.93533l-.83299,3.74339h8.41723l-.77739,3.44193h-8.41723l-.83284,3.84241h9.14354l-.77739,3.49144h-14.28909v.00453ZM135.83175,51.4693l3.97487-17.96563h14.08088l-.75427,3.44193h-8.93532l-.833,3.74339h8.41723l-.77738,3.44193h-8.41723l-.83283,3.84241h9.14353l-.77738,3.49144h-14.28909v.00453ZM86.27774,20.30269h34.04784l1.26784-6.12354h-34.05253l-1.26315,6.12354ZM84.19534,29.80965h34.04784l1.268-6.12349h-34.04784l-1.268,6.12349ZM77.38396,61.31369h34.04784l1.26784-6.12349h-34.04784l-1.26784,6.12349ZM75.30172,70.82085h34.04784l1.26784-6.12365h-34.04784l-1.26784,6.12365ZM113.54185,51.4693l11.37401-17.88019h6.33936l3.42896,17.88471h-5.87218l-.49514-3.59047h-7.50552l-2.07755,3.59047-5.19195-.00453h-5.63601c-.03702-.66586.06013-2.01571.28677-4.05843.06951-.71538.10653-1.2013.10653-1.46668,0-.54887-.14354-.93593-.43032-1.15632-.28693-.22492-.84221-.33754-1.6752-.33754h-2.18408l-1.55931,7.01896h-5.21975l3.97487-17.97016h8.67635c1.48995,0,2.47554.0314,2.96147.09903,1.17522.16635,2.01742.5623,2.52178,1.19677.46749.56246.70335,1.26878.70335,2.11458,0,.43204-.05077.88641-.15729,1.36781-.34706,1.54337-1.17069,2.6547-2.46633,3.334-.8469.44547-1.8695.75583-3.06331.92234l-.0278.09903c1.35124.03155,2.26749.2924,2.75326.76942.41657.40033.62478,1.07072.62478,2.01571,0,.31489-.02781.85486-.07873,1.61975-.16197,2.22266-.1943,3.6984-.11105,4.43174Z"/></svg>