<?xml version="1.0" encoding="UTF-8"?><svg id="Layer_16" xmlns="http://www.w3.org/2000/svg" viewBox="0 0 200 85"><defs><style>.cls-1{fill:#565656;stroke-width:0px;}</style></defs><path class="cls-1" d="M152.09156,42.14263c-.82785-4.31193-4.51574-7.68819-9.73203-7.46397-6.93332.30185-10.60373,5.92031-9.35982,12.46157.90223,4.74317,4.81786,7.71838,9.74521,7.50276,6.72737-.28893,10.66492-5.57101,9.34663-12.50035ZM142.77116,50.33536c-2.0322.08619-3.42947-1.3367-3.84554-3.54449-.56499-2.94071.17958-7.69676,3.48208-7.83906,2.27313-.09918,3.42058,1.72478,3.75352,3.44955.61314,3.25127-.3242,7.81761-3.39005,7.95119v-.01718Z"/><path class="cls-1" d="M98.57433,45.61858l.23219-9.98649c-2.15581-.60576-4.38491-.92196-6.62675-.94-9.56992,0-12.70156,6.86893-11.55841,13.30237.71834,3.97989,3.58713,6.63611,7.09543,6.63611,2.27313,0,4.67324-1.05651,5.89967-4.21714.11379.9444.03941,2.29398.13573,3.14345.14017.62955.3285,1.08657,1.39712,1.08657h3.97253c-.50809-2.38017-.58692-6.5671-.5475-9.02487ZM92.88063,43.51001c-.07453,4.68274-1.83957,6.59302-3.55646,6.59302-1.59434,0-2.58414-1.29361-2.92138-3.16063-.63952-3.54879,1.27014-7.99442,4.97981-7.99442.53078.006,1.05988.05794,1.58116.15522l-.08313,4.40682Z"/><path class="cls-1" d="M100.16899,47.60629c.73138,3.88082,3.65276,7.04145,7.52024,7.04145,2.31254,0,3.90244-.92278,5.05863-2.93642h.10076v1.69035c-.13143,3.94538-2.01471,5.2304-4.88795,5.2304-1.67302,0-4.10396-.43125-5.29527-1.08672l-.41163,3.25127c-.02546.34506.05874.68921.24078.98504.18204.29599.45303.52879.7754.66636,1.76013.53293,3.59387.79334,5.43529.77187,2.59289,0,5.33024-.52603,7.13914-2.21193,1.97529-1.89294,2.51405-5.1097,2.54473-8.7318l.04387-16.21287c-2.37435-.90715-4.89898-1.37211-7.44586-1.37121-8.545,0-12.01818,6.43774-10.81812,12.91421ZM112.73467,44.75193c-.04815,3.2985-1.5373,5.43299-3.41183,5.43299-1.75185,0-2.89072-1.44881-3.24989-3.44956-.66574-3.6997,1.1082-7.60197,4.57693-7.60197.72878-.00656,1.45279.11613,2.1374.36219l-.05261,5.25635Z"/><path class="cls-1" d="M59.7878,40.39342c-.63937-3.57029-3.89799-5.71333-7.84429-5.71333-7.05586,0-10.24011,6.03674-9.19771,11.87507.89793,5.02781,4.37985,8.08492,9.9248,8.08492,1.95781,0,4.10396-.18112,6.07051-1.06065.7139-.43125.60869-1.45326.60869-1.45326l-.07438-3.31154c-1.86472.91373-3.90949,1.41553-5.99168,1.47043-1.67747,0-3.06585-.50885-4.01624-1.4919-.47021-.57526-.80653-1.24499-.9855-1.96195,7.87052.1983,12.37736-1.55662,11.5058-6.43778ZM48.08048,42.71329c.08328-1.76794,1.24392-3.96702,3.91563-3.96702,1.314,0,2.23371.66835,2.40011,1.60835.32421,1.80672-1.80445,2.39318-6.31574,2.35867Z"/><path class="cls-1" d="M131.95793,34.68201c-.31975,0-.63507-.02587-.95038-.02587-.70501.00089-1.40096.15706-2.03665.45706-.1052.04313-.20152.09487-.29353.1423-1.62487.86238-2.78995,2.83725-3.50385,4.65258,0,0,.06135-2.50091,0-4.79919h-4.57693c-.24783.01986-.47818.13416-.64166.31856-.16363.18442-.24768.42438-.23433.66887,0,10.26682-.03067,17.38142-.03067,17.38142,0,0,0,1.15129,1.44543,1.19883h4.57693l.11823-7.28299c.0569-3.60047,1.12997-6.71365,4.45424-7.08448.44996-.01974.89103-.12974,1.29621-.32327.40518-.19351.76604-.46648,1.06019-.80216,1.34023-1.56955,1.34023-4.25158,1.34023-4.25158-.6682-.12672-1.34422-.21027-2.02346-.25009Z"/><path class="cls-1" d="M78.68517,39.84561c-.6044-3.36764-2.81189-5.17434-5.84277-5.17434-1.1154-.03995-2.22282.19939-3.2186.69562-.99578.49622-1.8474,1.2331-2.47526,2.14165l-.18833.31908v-9.99509c.00598-.18521-.02592-.36969-.0937-.54258-.06763-.17289-.16977-.33069-.30044-.46411s-.28709-.23974-.46008-.31271c-.17299-.07297-.35902-.11111-.54719-.11217h-4.32296v26.82895c.01687.37681.18066.73261.45717.99363.27651.26102.64458.40702,1.02752.40779h4.23968l.10521-9.02058c0-3.93256,1.60294-6.42055,3.63529-6.42055,1.43654,0,2.11976.92275,2.35625,2.24652.14738.79348.21194,1.5997.19277,2.40607l.16211,9.48634c.00092.17851.03849.35488.11042.51882.07178.16379.17652.31178.3078.43494.13112.12315.28632.219.45594.28188.16977.06288.35058.09125.5317.08374h4.32296l-.15337-11.26702c-.01165-1.18441-.11272-2.36626-.30212-3.53588Z"/><path class="cls-1" d="M40.75838,47.43514c-1.45417-2.54841-2.81633-4.9157-3.86746-5.81251,1.83511-.86238,5.41779-2.85881,5.43543-7.01554.02193-5.4503-3.39006-8.0849-11.12485-8.13233l-8.48376-.02587.05256,5.29938-.0657,15.02281c0,3.06585-.04818,5.12258-.11825,6.82153-.00966.13634.00939.27298.05595.40181.04656.12867.11963.24645.21462.34614.09499.09953.20986.17866.3374.2325.12754.05383.265.08128.40377.08036,1.35774,0,3.33744,0,4.34043-.08205.77961-.09048,1.10371-.26731,1.10371-1.16417l.0438-9.94335c.21394-.02377.4299-.02377.64384,0,1.00737,0,1.92276.17683,3.14911,2.58721,1.90961,3.79877,2.6279,5.56672,3.66593,6.82152,1.23074,1.51767,2.3739,1.78084,4.29659,1.78084,3.43377,0,3.50385-1.37121,3.06601-1.98358-.876-1.2591-1.66443-2.64748-3.14913-5.23469ZM33.23812,39.16914c-.64383.31477-3.0659.43119-4.12581.31477l.03941-8.96023c.54664-.07785,1.09917-.10814,1.6512-.09054,2.74617,0,4.8485,1.35826,4.81784,4.74314.00437,2.90625-1.78699,3.67378-2.38264,3.98424v.00862Z"/><path class="cls-1" d="M183.05051,35.36109s-25.71399-6.83011-26.71697,16.59669c4.65376-4.90849,10.07249-9.05539,16.05205-12.28473-1.55478,1.06072-10.78745,7.53297-14.67686,14.03105,27.0671,4.54487,25.34178-18.34302,25.34178-18.34302Z"/></svg>