<?xml version="1.0" encoding="UTF-8"?><svg id="Layer_2" xmlns="http://www.w3.org/2000/svg" viewBox="0 0 200 85"><defs><style>.cls-1{fill:#878d96;stroke-width:0px;}</style></defs><path class="cls-1" d="M158.75124,39.60679h-5.23304v8.66547c0,2.46692,1.2994,2.92612,2.98201,2.92612.58595,0,1.21794-.08439,1.85686-.16987l.39417,3.88322c-1.37064.24256-3.20157.4497-4.38882.4497-3.60815,0-6.80788-1.25921-6.80788-5.68273v-10.07192h-3.03936v-3.82697h3.03936v-4.21894l5.96366-1.68809v5.90703h5.23304v3.82698ZM142.70215,54.96837h-5.96476v-12.32367c0-1.81157-.7624-2.81287-2.81288-2.81287-1.54306,0-2.54145.74158-3.65709,1.63256v13.50435h-5.96476v-19.18817h5.79598v1.68808c1.94308-1.30634,4.17036-2.13778,6.58249-2.13778,3.80469,0,6.02138,2.36427,6.02138,5.96475v13.67275s-.00036,0-.00036,0Z"/><path class="cls-1" d="M112.26796,19.45347c-3.01854,5.11395-1.70709,9.74277-4.65841,12.69373-2.36976,2.37194-4.56927,2.29523-7.15493,2.29523-.89792,0-2.64629.07781-3.37618.60824-.42484-1.35054-.60788-2.83699-.60788-4.25365,0-2.43514.54686-4.59813,2.29596-6.34723,3.35134-3.35061,9.42056-4.41621,13.50142-4.99632"/><path class="cls-1" d="M80.01929,54.96837h-5.96438v-12.32367c0-1.81157-.7613-2.81287-2.81288-2.81287-1.54124,0-2.54254.7423-3.6571,1.63256v13.50435h-5.96512v-19.18817h5.79598v1.68808c1.94418-1.30634,4.17219-2.13778,6.58322-2.13778,3.80286,0,6.02028,2.36427,6.02028,5.96475,0,0,0,13.67275,0,13.67274ZM60.38983,35.78055l-9.56522,23.23908c-1.46927,3.56979-4.42243,6.18905-8.44008,6.18905-2.01139,0-3.07699-.26193-4.38881-.56221l.84386-3.82697c1.05903.23672,1.85577.33755,2.58785.33755,2.39971,0,3.67354-2.03988,4.8396-4.83887l.56294-1.35054-7.42854-19.18708h6.41555l3.48833,9.5097c.42083,1.14816.65609,2.323.84386,3.15078.21882-.83363.64367-2.21449,1.06853-3.31956l3.60157-9.34056h5.57059v-.00037h-.00002Z"/><path class="cls-1" d="M39.31848,48.83557c0,4.17583-3.85765,6.46997-8.44008,6.46997-2.98201,0-5.39195-.49865-7.93376-1.51822l1.63146-3.88249c1.51164.6108,3.68779,1.29392,5.45807,1.29392,1.38488,0,3.31956-.16987,3.31956-1.85686,0-.78833-.49499-1.19419-1.40607-1.46342-1.14232-.33682-2.8947-.63783-4.05127-.95637-2.43222-.67034-4.44544-1.94782-4.44544-5.51506,0-3.95629,3.37399-6.41444,7.98929-6.41444,3.04813,0,4.98354.40294,6.69647.90049l-1.51895,3.88249c-.75583-.34339-2.87826-.84386-4.38881-.84386-1.64023,0-2.75734.62614-2.75734,1.63146,0,.49792.30978,1.12697,1.18177,1.40716.93701.30028,2.41615.5717,3.6571.84386,2.54218.55819,5.00801,2.01796,5.00801,6.02138M177.05536,54.96873h-5.62794v-1.51932c-1.4616,1.29392-3.35389,1.91239-5.45735,1.91239-3.5698,0-6.02138-1.72827-6.02138-5.34592,0-6.36001,6.34943-7.34671,11.31067-7.37083v-.50632c0-1.58069-.59837-2.70073-3.43171-2.70073-1.91348,0-4.09072.94761-5.51578,1.80133l-1.4627-3.54569c2.53487-1.37429,5.6798-2.36245,8.66437-2.36245,4.57986,0,7.54142,2.18965,7.54142,6.02028v13.61723h.00039ZM171.25976,49.84821v-3.54569c-2.7621-.04493-5.34629.23124-5.34629,2.86949,0,1.63256,1.37539,2.13888,2.4198,2.13888,1.23839,0,2.1944-.61883,2.92648-1.4627M121.68671,44.67106c0,.636-.02009,1.2921-.05553,1.97011h-12.71675c.05479,2.78986,1.44626,4.44434,5.51396,4.44434,1.80206,0,3.96871-.81902,4.89622-1.4627l1.57485,3.54495c-2.62694,1.42726-5.45734,2.19441-8.60885,2.19441-5.96182,0-9.67556-3.83829-9.67556-9.9594,0-6.22156,4.86846-10.07264,10.12524-10.07264,6.5507.00037,8.9464,3.82734,8.9464,9.34093M115.55427,42.8142c.10155-2.11477-.95893-3.4328-3.03863-3.4328-2.00847,0-3.2074,1.47512-3.54495,3.4328h6.58358ZM102.62638,57.33154c0,5.59652-5.57898,8.18875-11.08528,8.21468-4.84253.02411-9.50861-1.37064-9.50861-6.02028,0-2.17541,1.927-3.63007,3.09525-4.38881-.64732-.37005-1.23729-.66084-1.74471-1.2384-.53409-.60715-.95637-1.49338-.95637-2.98201,0-1.87586,1.65448-3.60997,3.6571-4.72745-1.11164-.58412-2.58784-1.52589-2.58784-4.66974,0-4.08963,3.87847-6.24568,8.9464-6.24568,4.30625,0,8.44008,1.0309,8.44008,6.078,0,4.82134-4.53091,6.58249-9.11626,6.58249-.85373,0-1.61795-.13517-2.36318-.28092-.48914.26083-1.46269.90743-1.46269,1.63256,0,1.47401,2.01139,1.68808,2.92612,1.68808h4.72636c4.3826-.00037,7.03365,2.12573,7.03365,6.35745M95.08569,41.63279c0-1.60845-.88733-2.92612-2.86876-2.92612-1.81157,0-2.92612,1.53064-2.92612,2.92612,0,1.60954,1.0024,2.92539,2.81324,2.92539,1.9902,0,2.98165-1.32168,2.98165-2.92539M96.66164,58.11878c0-1.56425-1.25155-2.13778-2.53195-2.13778h-5.23303c-.7971.45554-2.02563,1.45393-2.02563,2.75734,0,1.68407,2.2682,2.81288,4.95175,2.81288,2.7778.00036,4.83887-1.27639,4.83887-3.43244"/></svg>