<?xml version="1.0" encoding="UTF-8"?><svg id="Layer_10" xmlns="http://www.w3.org/2000/svg" xmlns:xlink="http://www.w3.org/1999/xlink" viewBox="0 0 200 85"><defs><style>.cls-1,.cls-2,.cls-3,.cls-4{stroke-width:0px;}.cls-1,.cls-5{fill:#565656;}.cls-6{clip-path:url(#clippath);}.cls-2{fill:none;}.cls-7{mask:url(#mask);}.cls-3{fill:url(#linear-gradient);}.cls-8{clip-path:url(#clippath-1);}.cls-9{clip-path:url(#clippath-2);}.cls-4{fill:url(#linear-gradient-2);}.cls-10{mask:url(#mask-1);}</style><clipPath id="clippath"><path class="cls-1" d="M21.02809,52.27946c0,2.70054,2.18919,4.88973,4.88973,4.88973h4.88973v-20.2052c-6.50899-1.86161-9.76969-7.52102-9.77946-13.99272v29.30819Z"/></clipPath><linearGradient id="linear-gradient" x1="-1076.56225" y1="337.80977" x2="-1075.6745" y2="337.80977" gradientTransform="translate(9256.23047 -29368.83123) rotate(-90) scale(27.324 -27.324)" gradientUnits="userSpaceOnUse"><stop offset="0" stop-color="#fff"/><stop offset=".08489" stop-color="#f6f6f6"/><stop offset=".22345" stop-color="#ddd"/><stop offset=".39848" stop-color="#b5b5b5"/><stop offset=".60311" stop-color="#7e7e7e"/><stop offset=".82982" stop-color="#393939"/><stop offset="1" stop-color="#000"/></linearGradient><mask id="mask" x="21.02808" y="22.97127" width="9.77946" height="34.19793" maskUnits="userSpaceOnUse"><rect class="cls-3" x="21.02808" y="22.97216" width="9.77946" height="34.19704"/></mask><clipPath id="clippath-1"><rect class="cls-2" x="21.02809" y="13.1634" width="56.23189" height="58.67321"/></clipPath><clipPath id="clippath-2"><path class="cls-1" d="M52.81133,27.8317c-2.70054,0-4.88973,2.1892-4.88973,4.88973v29.30731c.00887-6.4717,3.26958-12.13022,9.77946-13.99184v-20.2052h-4.88973Z"/></clipPath><linearGradient id="linear-gradient-2" x1="-1095.27707" y1="337.93421" x2="-1094.38932" y2="337.93421" gradientTransform="translate(9286.52413 29965.19563) rotate(90) scale(27.324)" xlink:href="#linear-gradient"/><mask id="mask-1" x="47.92159" y="27.8317" width="9.77946" height="34.19704" maskUnits="userSpaceOnUse"><rect class="cls-4" x="47.92159" y="27.8317" width="9.77946" height="34.19704"/></mask></defs><path class="cls-5" d="M21.02809,52.27946c0,2.70054,2.18919,4.88973,4.88973,4.88973h4.88973v-20.2052c-6.50899-1.86161-9.76969-7.52102-9.77946-13.99272v29.30819Z"/><g class="cls-6"><g class="cls-7"><rect class="cls-1" x="21.02808" y="22.97127" width="9.77946" height="34.19793"/></g></g><g class="cls-8"><path class="cls-1" d="M62.59078,27.83161h-9.77946c-2.70054,0-4.88973,2.1892-4.88973,4.88973v1.67164c-2.62774-3.95404-7.12065-6.56137-12.22432-6.56137-2.6961,0-4.88973-2.19274-4.88973-4.88884v-4.88973c0-2.70054-2.1892-4.88973-4.88884-4.88973-2.70143,0-4.89062,2.18919-4.89062,4.88973v4.88973c0,7.94181,4.89062,14.66919,14.66919,14.66919,2.6961,0,4.88884,2.19185,4.88884,4.88884,0,2.6961-2.19274,4.88885-4.88884,4.88885h-14.66919v4.88973c0,2.70054,2.18919,4.88973,4.89062,4.88973h9.77857c8.10161,0,14.66919-6.56669,14.66919-14.6683,0-1.71513-.2974-3.36013-.83804-4.88973h13.06236c2.69609,0,4.88884,2.19274,4.88884,4.88884s-2.19363,4.88885-4.88884,4.88885c-9.77946,0-14.67008,6.72737-14.67008,14.66918h.00089v4.88973c0,2.70054,2.18919,4.88973,4.88973,4.88973s4.88973-2.18919,4.88973-4.88973v-4.88973c0-2.6961,2.19274-4.88884,4.88973-4.88884,8.10161,0,14.66918-6.56669,14.66918-14.66919,0-8.10161-6.56757-14.6683-14.66918-14.6683"/></g><path class="cls-5" d="M52.81133,27.8317c-2.70054,0-4.88973,2.1892-4.88973,4.88973v29.30731c.00887-6.4717,3.26958-12.13022,9.77946-13.99184v-20.2052h-4.88973Z"/><g class="cls-9"><g class="cls-10"><rect class="cls-1" x="47.92159" y="27.8317" width="9.77946" height="34.19704"/></g></g><path class="cls-1" d="M114.94683,32.76385c.11537.01758.27031.03077.4637.04395.1923.01099.39558.01759.61095.01759.32087,0,.63513-.02857.9439-.08571.30876-.05714.58238-.15603.82082-.29558.23955-.13956.43074-.32526.57468-.55491s.21537-.51645.21537-.86148-.06153-.63513-.1846-.86917c-.12416-.23405-.29228-.42415-.50656-.57249-.21317-.14724-.46481-.25382-.75269-.31976-.28899-.06593-.59666-.09889-.92631-.09889h-1.25925v3.59647ZM116.12037,28.36633c.66589,0,1.15377-.14724,1.46255-.44283.30876-.29558.4626-.68237.4626-1.15816,0-.44393-.16262-.81533-.48677-1.11532-.32635-.29888-.83841-.44942-1.53726-.44942-.21537,0-.41865.00879-.61095.02528-.19339.01648-.34833.03296-.4637.04835v3.0921h1.17354ZM114.09525,24.59735c.0813-.00769.19889-.02087.35162-.03736.15275-.01648.31426-.03187.48788-.04945.17251-.01648.34722-.02857.52524-.03627.17582-.00879.33515-.01318.4747-.01318.97026,0,1.71636.1879,2.23501.56149.51865.37361.77687.95379.77687,1.74275,0,.25492-.03846.48677-.11648.69555-.07802.20988-.1835.39887-.31537.56699-.13185.16812-.28569.30988-.4626.42525-.17692.11538-.36042.20108-.54941.25823.25492.03296.50216.1011.74061.20328.23844.10219.45052.24614.63622.43075.1846.1857.33295.41535.44393.69006.11098.27581.16701.60655.16701.99224,0,.44283-.089.82522-.26481,1.14498-.17801.32086-.42524.58787-.74171.80104-.31646.21317-.69116.37141-1.12301.47469-.43183.10219-.90323.15274-1.41418.15274-.13187,0-.28021-.00329-.44393-.01208-.16482-.0077-.33185-.01869-.49997-.03077-.16921-.01209-.33294-.02857-.49447-.04836-.16042-.02197-.29778-.03955-.41315-.05603v-8.85655Z"/><path class="cls-1" d="M125.40426,29.75931c0-.25493-.03296-.50546-.09889-.75269-.06593-.24504-.16921-.46151-.30876-.64612-.13957-.1846-.32087-.33513-.54282-.44942-.22307-.11538-.49008-.17251-.80325-.17251-.57579,0-1.02411.17691-1.34496.52963-.32196.35273-.51425.85049-.58018,1.49111h3.67887ZM121.70012,30.43619c0,.83731.19339,1.45375.58127,1.84714.38569.39447.96587.59226,1.74054.59226.31206,0,.60216-.02746.86917-.08021.26812-.05384.52963-.12526.78457-.21647.04066.0912.07471.20218.09889.33295.02418.13185.04175.25053.04945.35712-.23844.10768-.51865.189-.8395.24614-.32087.05824-.67139.08681-1.04938.08681-.54393,0-1.01092-.08021-1.4021-.24065-.39008-.15933-.71205-.38349-.96258-.67138-.25053-.2868-.43624-.62963-.5549-1.0285-.11978-.39777-.17912-.83511-.17912-1.312,0-.45931.05494-.89006.16592-1.29222.11098-.40327.28021-.75599.50656-1.05927.22637-.30438.51645-.54282.87028-.71534.35381-.17251.77796-.25823,1.27134-.25823.41206,0,.77796.06922,1.09883.20878.32196.13955.59116.33514.80873.58567.21867.25053.3824.54941.49449.89884.11098.34943.16592.72852.16592,1.13949,0,.07471-.00111.16812-.0055.28349-.00439.11538-.00989.21317-.01868.29558h-4.4942Z"/><path class="cls-1" d="M128.00904,27.1719l.19119-.01868.1791-.00659.1846.00659.18571.01868c.01648.14725.02857.33295.03736.55381.0077.22196.01209.41535.01209.57908.08241-.14725.189-.29779.32085-.44943.13187-.15164.2868-.28899.46261-.41316.17801-.12307.3802-.22306.61095-.30108.23076-.07802.48238-.11757.7538-.11757.72412,0,1.25156.21537,1.58121.64721.32854.43074.49338,1.03729.49338,1.81636v3.96677l-.20439.01868-.20328.0066-.1978-.0066-.20987-.01868v-3.71953c0-.69775-.10878-1.19882-.32746-1.50319-.21757-.30328-.54502-.45601-.98124-.45601-.2879,0-.55931.05824-.81533.17251-.25492.11538-.4747.2813-.66039.49887-.1846.21757-.33076.48678-.43734.80654-.10768.32086-.16042.68677-.16042,1.09663v3.10418l-.20437.01868-.2033.0066-.19778-.0066-.20987-.01868v-6.282Z"/><path class="cls-1" d="M139.29256,29.75931c0-.25493-.03187-.50546-.0978-.75269-.06593-.24504-.16921-.46151-.30876-.64612-.13957-.1846-.32087-.33513-.54282-.44942-.22198-.11538-.49008-.17251-.80325-.17251-.57579,0-1.02411.17691-1.34607.52963-.32085.35273-.51425.85049-.58018,1.49111h3.67888ZM135.58952,30.43619c0,.83731.19339,1.45375.58018,1.84714.38678.39447.96696.59226,1.74054.59226.31315,0,.60215-.02746.87026-.08021.26812-.05384.52854-.12526.78457-.21647.04066.0912.07362.20218.09889.33295.02418.13185.04066.25053.04945.35712-.23955.10768-.51865.189-.8395.24614-.32196.05824-.67139.08681-1.05049.08681-.54282,0-1.00981-.08021-1.401-.24065-.39119-.15933-.71205-.38349-.96258-.67138-.25162-.2868-.43624-.62963-.556-1.0285-.11868-.39777-.17801-.83511-.17801-1.312,0-.45931.05494-.89006.16592-1.29222.11098-.40327.2791-.75599.50656-1.05927.22637-.30438.51645-.54282.87028-.71534.35381-.17251.77796-.25823,1.27134-.25823.41206,0,.77796.06922,1.09883.20878.32085.13955.59007.33514.80873.58567.21867.25053.38349.54941.49338.89884.11209.34943.16703.72852.16703,1.13949,0,.07471-.00221.16812-.0055.28349-.00439.11538-.01098.21317-.01978.29558h-4.49309Z"/><path class="cls-1" d="M142.21984,27.86163h-1.07467l-.01868-.14724-.00548-.1857.00548-.19669.01868-.16043h1.07467v-.55381c0-.77138.17032-1.35046.51204-1.73725.34174-.38569.88237-.57908,1.62406-.57908.17253,0,.33076.01099.4747.03077.14394.02088.26592.04395.36481.06813-.01648.15603-.03516.28349-.05603.38239-.02089.09779-.04725.20438-.08021.31976-.07362-.01648-.17253-.03517-.29669-.05494-.12307-.02087-.25494-.03077-.39449-.03077-.21426,0-.40326.02198-.56809.06703-.16482.04505-.30217.12747-.41315.24614-.11209.11977-.1978.28569-.26042.49886-.06153.21427-.09121.48898-.09121.82632v.51645h1.72736l.01868.16043.00659.19669-.00659.1857-.01868.14724h-1.72736v5.59194l-.20437.01868-.2033.0066-.19778-.0066-.20987-.01868v-5.59194Z"/><path class="cls-1" d="M146.07155,25.63211c-.0088-.07361-.01429-.16482-.01868-.2714-.0033-.10659-.0055-.19669-.0055-.27141l.0055-.24504.01868-.24723c.07362-.0077.16482-.01319.2714-.01759.10659-.00439.1978-.00659.2714-.00659l.24724.00659.24724.01759.01868.24723.00659.24504c0,.07472-.0022.16483-.00659.27141s-.011.19779-.01868.2714l-.24724.01869-.24724.00549c-.07361,0-.16482-.0011-.2714-.00549-.10659-.0044-.19778-.01099-.2714-.01869M146.47922,27.86163h-.79007l-.01868-.14724-.00659-.1857.00659-.19669.01868-.16043h1.60539v6.282l-.20437.01868-.2033.0066-.19778-.0066-.20987-.01868v-5.59194Z"/><path class="cls-1" d="M153.63984,32.66593c.04064.08242.08021.1934.11757.33185.03627.13955.06373.25493.07911.34504-.20548.07472-.43952.13626-.70325.1857-.26371.04835-.5549.07252-.87576.07252-1.0296,0-1.81086-.28021-2.34599-.8428-.53513-.5626-.80325-1.37794-.80325-2.4449,0-.46809.06593-.90104.1978-1.29991.13185-.39777.32524-.74501.58018-1.04059.25492-.29558.57468-.52854.95706-.69556.3824-.16922.82523-.25382,1.32739-.25382.31206,0,.61095.02307.89444.06812.2846.04505.50875.0967.67359.15493,0,.10549-.01539.22965-.04396.36921-.02857.13955-.05934.25053-.0923.33184-.16482-.05713-.37249-.10659-.62413-.14724-.25053-.04176-.51975-.06153-.80764-.06153-.37031,0-.69336.06373-.96917.19009-.2758.12746-.50656.30657-.69227.53623-.1846.22965-.32305.50107-.41315.81314-.0901.31206-.13626.6571-.13626,1.03509,0,.88675.21208,1.53726.63623,1.95152.42415.41535.99772.62304,1.72295.62304.24614,0,.48349-.02087.70984-.06153.22526-.04176.42965-.0956.61096-.16043"/><path class="cls-1" d="M159.42934,29.75931c0-.25493-.03187-.50546-.0978-.75269-.06593-.24504-.16921-.46151-.30876-.64612-.14066-.1846-.32087-.33513-.54282-.44942-.22307-.11538-.49008-.17251-.80325-.17251-.57579,0-1.02411.17691-1.34607.52963-.32085.35273-.51425.85049-.58018,1.49111h3.67888ZM159.61503,26.14967c-.13955.02417-.2791.03736-.41974.03736l-.25933-.00659-.2714-.03077-1.0252-1.1329-1.02411,1.1329-.27799.03077-.25274.00659c-.14834,0-.28899-.01319-.41976-.03736l1.44387-1.59001.26592-.02967.26481-.00659.27251.00659.2714.02967,1.43177,1.59001ZM155.7263,30.43619c0,.83731.19228,1.45375.58018,1.84714.38678.39447.96696.59226,1.74054.59226.31315,0,.60215-.02746.87026-.08021.26812-.05384.52854-.12526.78457-.21647.04066.0912.07362.20218.09889.33295.02418.13185.04066.25053.04945.35712-.23955.10768-.51865.189-.8395.24614-.32196.05824-.67139.08681-1.05049.08681-.54282,0-1.00981-.08021-1.401-.24065-.39119-.15933-.71205-.38349-.96258-.67138-.25162-.2868-.43624-.62963-.556-1.0285-.11868-.39777-.17801-.83511-.17801-1.312,0-.45931.05494-.89006.16592-1.29222.11098-.40327.2791-.75599.50656-1.05927.22526-.30438.51645-.54282.87028-.71534.35381-.17251.77796-.25823,1.27134-.25823.41206,0,.77796.06922,1.09883.20878.32085.13955.59007.33514.80873.58567.21867.25053.3824.54941.49338.89884.11209.34943.16703.72852.16703,1.13949,0,.07471-.00221.16812-.0055.28349-.00439.11538-.01098.21317-.01978.29558h-4.49309Z"/><path class="cls-1" d="M162.03522,27.1719l.19119-.01868.1791-.00659.1846.00659.18571.01868c.01648.14725.02966.33295.03736.55381.0077.22196.01209.41535.01209.57908.08241-.14725.189-.29779.32085-.44943.13187-.15164.2868-.28899.46261-.41316.17801-.12307.38129-.22306.61095-.30108.23076-.07802.48238-.11757.7538-.11757.72412,0,1.25156.21537,1.58121.64721.32854.43074.49338,1.03729.49338,1.81636v3.96677l-.20439.01868-.20328.0066-.1978-.0066-.20987-.01868v-3.71953c0-.69775-.10878-1.19882-.32635-1.50319-.21867-.30328-.54613-.45601-.98235-.45601-.2879,0-.55931.05824-.81424.17251-.25601.11538-.47579.2813-.66148.49887-.1846.21757-.33076.48678-.43734.80654-.10768.32086-.16042.68677-.16042,1.09663v3.10418l-.20437.01868-.2033.0066-.19778-.0066-.20987-.01868v-6.282Z"/><path class="cls-1" d="M173.27006,32.66593c.04064.08242.08021.1934.11757.33185.03627.13955.06373.25493.07911.34504-.20548.07472-.43952.13626-.70325.1857-.26371.04835-.5549.07252-.87576.07252-1.0296,0-1.81197-.28021-2.34599-.8428-.53513-.5626-.80325-1.37794-.80325-2.4449,0-.46809.06593-.90104.1978-1.29991.13185-.39777.32524-.74501.58018-1.04059.25492-.29558.57468-.52854.95706-.69556.3824-.16922.82523-.25382,1.32739-.25382.31206,0,.61095.02307.89444.06812.2846.04505.50875.0967.67359.15493,0,.10549-.01539.22965-.04396.36921-.02857.13955-.05934.25053-.0923.33184-.16482-.05713-.37249-.10659-.62413-.14724-.25053-.04176-.51975-.06153-.80764-.06153-.37031,0-.69336.06373-.96917.19009-.2758.12746-.50656.30657-.69227.53623-.1846.22965-.32305.50107-.41315.81314-.0901.31206-.13626.6571-.13626,1.03509,0,.88675.21208,1.53726.63623,1.95152.42415.41535.99772.62304,1.72295.62304.24614,0,.48349-.02087.70984-.06153.22526-.04176.42965-.0956.61096-.16043"/><path class="cls-1" d="M174.99808,25.63211c-.0077-.07361-.01429-.16482-.01868-.2714-.0033-.10659-.0055-.19669-.0055-.27141l.0055-.24504.01868-.24723c.07471-.0077.16482-.01319.27251-.01759.10659-.00439.19669-.00659.2714-.00659l.24614.00659.24724.01759.01868.24723.00659.24504c0,.07472-.0022.16483-.00659.27141s-.011.19779-.01868.2714l-.24724.01869-.24614.00549c-.07471,0-.16482-.0011-.2714-.00549-.10769-.0044-.1978-.01099-.27251-.01869M175.40575,27.86163h-.79007l-.01868-.14724-.00659-.1857.00659-.19669.01868-.16043h1.60539v6.282l-.20437.01868-.2033.0066-.19778-.0066-.20987-.01868v-5.59194Z"/><path class="cls-1" d="M181.86312,30.39927c-.13957-.01648-.31428-.03516-.52525-.05603-.20987-.01978-.40986-.03077-.59886-.03077-.61645,0-1.09443.11537-1.43177.34503-.33735.23075-.50547.55821-.50547.98565,0,.27141.05055.48898.15384.65271.1033.16482.23624.28899.40108.37579.16482.08681.34613.14395.54391.17252.19669.02856.39449.04285.59227.04285.25492,0,.49338-.01208.71534-.03736.22307-.02418.44063-.05714.65491-.0978v-2.35259ZM181.86312,29.30264c0-.54172-.12748-.93839-.38351-1.18892-.25492-.24944-.63291-.3758-1.13508-.3758-.32965,0-.62963.02307-.90105.06812-.27251.04505-.51425.1011-.72852.16592-.04177-.07362-.07693-.18021-.1055-.31976s-.04284-.2714-.04284-.39447c.21426-.06484.47688-.12087.79005-.16592s.63293-.06813.96256-.06813c.79885,0,1.39112.17472,1.77792.52415.38788.34832.58127.89664.58127,1.64384v4.15137c-.28899.05824-.63841.11428-1.04938.17252-.41206.05713-.80323.0857-1.17354.0857-.76589,0-1.36803-.15164-1.80867-.45601-.44063-.30328-.66041-.79555-.66041-1.47682,0-.32855.06375-.62304.19121-.88126s.30437-.47689.53074-.65271c.22635-.17691.49886-.30987.81423-.39997.31756-.0912.66589-.13626,1.04388-.13626.29669,0,.55161.00989.76589.03077.21426.02087.39117.03845.53074.05604v-.3824Z"/><path class="cls-1" d="M104.42873,43.01129l.21537.01868.18462.01209.21096.01208c.07803.0055.17801.0066.30219.0066.29669,0,.58788-.02528.87687-.07362.28789-.04945.54941-.15054.78346-.30218.23514-.15164.42415-.36481.56809-.64062.14394-.27471.21537-.63842.21537-1.09003,0-.36152-.05494-.6626-.16592-.90544-.11098-.24173-.26921-.43733-.47579-.58457-.20548-.14834-.45602-.25493-.75269-.32086-.29669-.06483-.62634-.09779-.98785-.09779-.21428,0-.40327.00549-.56809.01758-.16483.01319-.29999.02747-.40658.04395v3.90414ZM103.57606,38.41708c.08241-.00769.19778-.02307.34612-.04285.14835-.02088.30987-.03736.48788-.04945.17582-.01208.35713-.02527.54282-.03736.1846-.01209.35163-.01868.49997-.01868.48568,0,.92631.04945,1.32079.14834.39449.0978.73512.25493,1.01862.4681.2846.21317.50436.49117.66039.83182.15603.34063.23515.75269.23515,1.23728,0,.51755-.089.96038-.26592,1.33068-.17691.3692-.41535.66919-.71534.89884-.30108.22965-.6505.39887-1.05047.50546-.39888.10659-.81642.16042-1.25266.16042-.189,0-.35383-.00439-.49447-.01318-.13955-.0077-.29999-.01978-.4802-.03736v3.4745l-.19778.01868-.22307.00549-.24064-.00549-.19119-.01868v-8.85655Z"/><path class="cls-1" d="M112.40372,46.70708c.65929,0,1.15047-.22965,1.47571-.69007.32415-.45931.48788-1.08784.48788-1.88448s-.16373-1.42518-.48788-1.88449c-.32524-.46041-.81642-.69006-1.47571-.69006-.65821,0-1.15049.22965-1.47573.69006-.32526.45932-.48788,1.08785-.48788,1.88449s.16262,1.42518.48788,1.88448c.32524.46042.81751.69007,1.47573.69007M112.40372,47.42131c-.4692,0-.88126-.08461-1.23509-.25273s-.6483-.39997-.88235-.69556c-.23515-.29558-.40877-.64501-.52525-1.04718-.11537-.40218-.17251-.83401-.17251-1.29332s.05714-.89115.17251-1.29332c.11648-.40217.2901-.7516.52525-1.04718.23405-.29559.52852-.52744.88235-.69556s.76589-.25273,1.23509-.25273.87905.08461,1.22848.25273c.34942.16812.64171.39997.87685.69556.23406.29558.41097.64501.53074,1.04718.11868.40218.17912.83401.17912,1.29332s-.06044.89115-.17912,1.29332c-.11977.40217-.29667.7516-.53074,1.04718-.23514.29559-.52743.52744-.87685.69556-.34944.16812-.7593.25273-1.22848.25273"/><path class="cls-1" d="M117.03373,40.99108l.19119-.01868.1791-.00549.1846.00549.18571.01868c.01648.14834.02857.32306.03736.52415.0077.20108.01209.38349.01209.54722.16482-.30328.39447-.5604.69116-.76918.29669-.20987.68787-.31426,1.17245-.31426h.12966l.15494.01208c.02527.13956.03736.27141.03736.39448,0,.13186-.01209.25823-.03736.38129l-.15494-.01208h-.11648c-.5604,0-1.00872.17691-1.34605.52963-.33735.35382-.50547.9406-.50547,1.76143v3.22835l-.20437.01758-.2033.0066-.19778-.0066-.20987-.01758v-6.2831Z"/><path class="cls-1" d="M121.63837,41.68126h-1.07467l-.01868-.16042-.00548-.19669.00548-.1846.01868-.14834h1.07467v-1.18233l.76587-.7516h.04945v1.93393h1.70319l.01868.14834.00659.1846-.00659.19669-.01868.16042h-1.70319v4.08874c0,.20549.02637.36811.07912.48788.05384.11868.12416.21098.20987.27581.08682.06594.18571.10989.29778.12967.10989.02087.22417.03077.33845.03077.28789,0,.53952-.03626.75378-.10988.05714.21317.0978.44283.12307.68896-.29558.0901-.64171.13516-1.03729.13516-.4692,0-.84939-.12526-1.14168-.3758-.29228-.24943-.43842-.6582-.43842-1.22519v-4.1261Z"/><path class="cls-1" d="M125.4903,40.99108l.20987-.01868.19778-.00549.2033.00549.20437.01868v3.53603c0,.44283.04396.80544.13516,1.09004.09121.28349.22416.50436.40108.66479.17691.15933.39338.27031.6483.33185s.54282.0923.86367.0923c.27251,0,.51536-.01319.72853-.04176.21426-.02857.40436-.06812.56918-.11757v-5.55568l.20878-.01868.1978-.00549.20437.00549.2033.01868v6.12157c-.30438.08241-.64502.15493-1.01862.21647-.3747.06153-.7593.0923-1.15488.0923-.38678,0-.7505-.03736-1.09222-.11098-.34174-.07362-.63843-.21538-.88896-.42525-.25053-.20988-.45052-.49887-.59886-.86807-.14835-.3692-.22196-.85049-.22196-1.44167v-3.58438Z"/><path class="cls-1" d="M133.21913,43.03535c0,.42854.12635.78676.37688,1.07905.25055.29119.64393.43623,1.17906.43623.53402,0,.9296-.14504,1.18563-.43623.25492-.29229.38238-.65051.38238-1.07905,0-.42635-.12746-.78567-.38238-1.07685-.25603-.29229-.65161-.43733-1.18563-.43733-.53513,0-.92851.14504-1.17906.43733-.25053.29119-.37688.65051-.37688,1.07685M134.13225,47.38451c-.38679-.0077-.69666.1-.9318.32635-.23406.22526-.35163.52305-.35163.89335,0,.19669.04505.36041.13625.49227.0901.13076.21539.23405.37581.30767s.34833.12526.56259.15384c.21317.02857.44063.04286.67798.04286.76589,0,1.36255-.12856,1.79109-.38678.42744-.25932.64171-.56919.64171-.93071,0-.31207-.10659-.53403-.32087-.66479-.21426-.13185-.5637-.20108-1.04938-.20987l-1.53176-.02418ZM135.88599,46.64499c.72412.01649,1.24057.16702,1.54933.44943.30878.2835.46261.65929.46261,1.1274,0,.32086-.08241.60985-.24614.86807-.16483.25932-.39558.48128-.69227.66588-.29558.1846-.64721.32855-1.05486.43075-.40767.10219-.8494.15384-1.32739.15384-.37031,0-.70984-.02857-1.01862-.08681-.30876-.05714-.57579-.14944-.80214-.27581-.22635-.12746-.40108-.29669-.52524-.50546-.12307-.20988-.1846-.46591-.1846-.77028,0-.31206.0901-.61205.2714-.89884.18021-.28789.41536-.50106.70325-.64062-.15603-.09889-.28789-.22306-.39447-.37579-.10769-.15164-.16044-.33844-.16044-.5604,0-.31976.07582-.58677.22856-.80104.15164-.21317.35492-.40657.61095-.57908-.28789-.17911-.51865-.42195-.69227-.72633-.17251-.30328-.25823-.66479-.25823-1.08454,0-.30218.05166-.58897.15384-.85599.10219-.26592.25714-.49777.46261-.69556.20658-.19669.45931-.35272.76039-.46809.29997-.11428.64721-.17252,1.04279-.17252.33733,0,.63731.04395.90103.12967.26372.0868.49338.19889.69116.33844.08241-.03187.1846-.06923.30878-.11098.12307-.04066.25931-.07472.40767-.10439.14834-.02857.29997-.05275.45711-.07362.15603-.02087.30876-.03077.45601-.03077.03296.12307.04945.25823.04945.40547,0,.15713-.01648.29558-.04945.41975h-1.17245c.11428.18021.20328.3714.26592.57249.06153.20218.0923.41645.0923.64611,0,.35382-.06153.66589-.18571.9362-.12307.27141-.29447.49997-.51204.68457-.21867.1846-.47359.32636-.76589.42415-.2923.09889-.60655.14834-.94389.14834-.35383,0-.66261-.04505-.92631-.13516-.23076.14724-.39338.28899-.48788.42415-.0945.13626-.14175.29009-.14175.4626l.03736.23405.15384.20329c.07802.06153.1868.11098.32746.14724.13955.03736.32085.05604.54281.05604l1.6054.02417Z"/><path class="cls-1" d="M139.20708,40.99108l.20987-.01868.19778-.00549.2033.00549.20437.01868v3.53603c0,.44283.04505.80544.13516,1.09004.09121.28349.22416.50436.40217.66479.17582.15933.39229.27031.64721.33185.25603.06153.54391.0923.86478.0923.2714,0,.51425-.01319.72852-.04176.21428-.02857.40327-.06812.56809-.11757v-5.55568l.20878-.01868.1978-.00549.20437.00549.2033.01868v6.12157c-.30438.08241-.64393.15493-1.01862.21647-.3747.06153-.7593.0923-1.15377.0923-.38788,0-.7516-.03736-1.09333-.11098-.34174-.07362-.63732-.21538-.88896-.42525-.25053-.20988-.45052-.49887-.59886-.86807-.14725-.3692-.22196-.85049-.22196-1.44167v-3.58438Z"/><path class="cls-1" d="M150.57719,43.57795c0-.25493-.03187-.50436-.0978-.7516-.06593-.24614-.16921-.46151-.30876-.64612-.13957-.1846-.32087-.33404-.54282-.44942-.22307-.11538-.49008-.17251-.80325-.17251-.57579,0-1.02411.17691-1.34607.52853-.32085.35383-.51425.85049-.58018,1.49111h3.67888ZM146.87414,44.25592c0,.83731.19339,1.45266.58018,1.84714.38678.39447.96696.59116,1.74054.59116.31315,0,.60325-.02637.87026-.08021.26812-.05274.52854-.12417.78457-.21537.04175.0912.07362.20108.09889.33295.02418.13185.04066.25053.04945.35712-.23955.10659-.51865.189-.8395.24614-.32087.05824-.67139.08681-1.05049.08681-.54282,0-1.00981-.08021-1.401-.24065-.39119-.16042-.71205-.38349-.96258-.67138-.25162-.2868-.43624-.62963-.556-1.0285-.11868-.39777-.17801-.83511-.17801-1.312,0-.45931.05494-.89006.16592-1.29332.11098-.40217.2791-.75489.50656-1.05927.22637-.30328.51645-.54173.87028-.71424.35381-.17251.77796-.25823,1.27134-.25823.41206,0,.77796.06922,1.09883.20878.32085.13955.59007.33514.80873.58567.21867.25053.38349.54941.49338.89884.11209.34833.16703.72852.16703,1.13949,0,.07361-.00221.16812-.0055.28239-.00439.11648-.01098.21427-.01978.29668h-4.49309Z"/><path class="cls-1" d="M153.0099,46.41105c.1813.07362.41535.13735.70325.1912.28789.05385.56479.08021.82741.08021.49447,0,.88456-.10878,1.17245-.32635.28899-.21757.43293-.48678.43293-.80764,0-.22086-.04395-.40437-.12966-.54722-.08571-.14394-.20108-.26591-.34613-.36371-.14394-.09889-.30656-.178-.48788-.23954-.1813-.06264-.3659-.12637-.55491-.1923-.20548-.06483-.40985-.13845-.61095-.22086-.20217-.08242-.38129-.18681-.53732-.31427s-.2813-.2813-.37688-.4626c-.09451-.17911-.14176-.40657-.14176-.67688,0-.50107.18241-.90763.54941-1.2197.36592-.31206.9329-.46809,1.6977-.46809.32085,0,.63182.02967.9318.0857.30108.05824.53293.11977.69775.1857-.04175.23845-.09889.4725-.17251.70215-.1736-.05713-.39338-.11537-.66039-.17251-.26812-.05714-.54502-.0857-.83401-.0857-.50106,0-.85817.0879-1.06806.26481-.20878.17581-.31426.40877-.31426.69555,0,.15604.03516.28899.10548.39998.06923.11098.16373.20548.28351.28349.11868.07802.25492.14615.40767.20329.15164.05823.31426.11098.48788.15933.22196.07472.44611.15493.67248.24065.22635.0868.43183.19889.61643.33844.18571.14065.33844.31756.45711.52964.11978.21427.17912.48128.17912.80104,0,.29559-.05934.5648-.17912.80654-.11868.24284-.28569.44832-.49997.61644-.21426.16812-.46809.29779-.76587.38789-.29558.0901-.62084.13516-.97467.13516-.39447,0-.74719-.02418-1.05597-.07362-.30876-.04945-.55709-.11428-.74719-.19669.04945-.24614.12746-.49337.23515-.73952"/><path class="cls-1" d="M162.23234,44.21912c-.13957-.01648-.31428-.03516-.52415-.05603-.21098-.02088-.40986-.03077-.59997-.03077-.61645,0-1.09333.11537-1.43177.34503-.33735.22965-.50547.55821-.50547.98565,0,.27031.05055.48898.15384.65271.1033.16372.23624.28899.40108.37579.16482.08571.34613.14395.54391.17252.19669.02856.39449.04285.59227.04285.25492,0,.49338-.01208.71534-.03736.22307-.02418.44063-.05714.65491-.0978v-2.35259ZM162.23234,43.12249c0-.54172-.12748-.93839-.3824-1.18892-.25603-.25054-.63402-.3758-1.13618-.3758-.32965,0-.62963.02307-.90105.06812-.2714.04505-.51425.1-.72852.16592-.04177-.07362-.07693-.18021-.1055-.31976s-.04284-.2714-.04284-.39447c.21426-.06594.47688-.12087.79005-.16592s.63402-.06813.96256-.06813c.79885,0,1.39112.17472,1.77901.52304.38679.34943.58018.89774.58018,1.64495v4.15137c-.28899.05714-.63841.11428-1.04938.17252-.41206.05713-.80323.0857-1.17354.0857-.76589,0-1.36803-.15164-1.80867-.45601-.44063-.30328-.66041-.79555-.66041-1.47792,0-.32854.06375-.62193.19121-.88016.12746-.25932.30547-.47689.53074-.65271.22635-.17691.49886-.30987.81532-.40107.31647-.0901.6648-.13516,1.04279-.13516.29669,0,.55161.00989.76589.03077.21426.02087.39117.03845.53074.05604v-.3824Z"/><path class="cls-1" d="M107.65084,55.64966c-.16483-.06593-.3747-.12636-.62964-.17911-.25603-.05384-.51865-.08021-.79116-.08021-.38678,0-.72193.06593-1.00542.19669-.28349.13186-.52084.31426-.70984.54832-.189.23405-.33185.51535-.42635.8439-.0945.32855-.14175.69006-.14175,1.08344,0,.85489.20328,1.47682.61095,1.86691s.98563.58458,1.73394.58458c.27251,0,.53184-.01429.77798-.04286.24724-.02857.44063-.06373.58129-.10439v-4.71727ZM107.65084,52.04001l.20987-.01868.19778-.00659.2033.00659.20328.01868v8.9049c-.25494.08241-.5725.15274-.95049.20988-.37799.05714-.77357.08681-1.18563.08681-.45163,0-.87576-.05384-1.27134-.16043s-.73623-.2835-1.02522-.52963c-.28789-.24614-.51534-.57029-.68455-.97356-.16923-.40217-.25383-.89884-.25383-1.49,0-.54173.07471-1.02411.22307-1.44716.14834-.42305.35821-.78017.62963-1.07245.2714-.29009.59886-.51535.98124-.67138.38349-.15493.80544-.23406,1.26586-.23406.2714,0,.54172.02308.80873.06813.26703.04505.48349.09669.64832.15384v-2.84487Z"/><path class="cls-1" d="M114.86067,57.39867c0-.25493-.03296-.50546-.09889-.75269-.06593-.24504-.16921-.46151-.30876-.64612-.14066-.1846-.32087-.33404-.54282-.44942-.22198-.11538-.49008-.17251-.80325-.17251-.57579,0-1.02411.17691-1.34607.52963-.32085.35273-.51425.8494-.57907,1.49111h3.67887ZM111.15654,58.07555c0,.83731.19339,1.45375.58018,1.84713.38788.39448.96696.59227,1.74054.59227.31315,0,.60325-.02747.87137-.08021.26701-.05384.52852-.12527.78346-.21647.04066.0912.07471.20109.09889.33295.02418.13076.04066.25053.04945.35712-.23844.10768-.51865.189-.8395.24614-.32087.05824-.67139.08681-1.04938.08681-.54393,0-1.01092-.08021-1.4021-.24064-.39119-.15933-.71205-.38349-.96258-.67138-.25053-.2868-.43624-.62963-.5549-1.0285-.11978-.39777-.17912-.83511-.17912-1.312,0-.45931.05494-.89006.16592-1.29332.11209-.40107.28021-.75489.50656-1.05927.22637-.30328.51645-.54173.87028-.71424.35381-.17251.77796-.25932,1.27134-.25932.41206,0,.77796.07032,1.09883.20988.32196.14065.59116.33514.80984.58567.21757.25053.38238.54941.49338.89884.11098.34943.16701.72852.16701,1.13949,0,.07361-.0022.16812-.00659.28349-.00439.11538-.01098.21317-.01868.29558h-4.4942Z"/><path class="cls-1" d="M120.37922,60.10794c.11537.03297.23514.06923.35821.11098.12307.04066.26153.07802.41317.11098.15273.03296.32305.06153.51315.08571.189.02527.40656.03736.6538.03736.39558,0,.73512-.04725,1.01862-.14175.28349-.0945.51865-.22196.70434-.38239.18462-.15933.32197-.34833.41317-.5659.0901-.21757.13625-.45382.13625-.70874,0-.24614-.03186-.45711-.09339-.63403-.06153-.17691-.16923-.33844-.32087-.48678-.15273-.14834-.3626-.29009-.62963-.42525-.26701-.13515-.60325-.2802-1.00653-.43733-.28789-.10659-.5615-.22087-.82082-.34394-.25933-.12417-.48788-.27361-.68457-.45051-.1978-.17582-.35492-.38789-.4692-.63403-.11537-.24614-.17362-.55381-.17362-.92411,0-.66479.24174-1.20212.72303-1.61308.48018-.41096,1.18234-.61644,2.10535-.61644.18021,0,.3637.00879.54832.02527.18569.01538.35821.03627.51865.06153.16042.02418.30876.05275.44502.08571.13516.03296.24503.06153.32635.08681-.01648.12307-.03846.24833-.06703.3747-.02966.12746-.06373.24943-.10548.36371-.19669-.06593-.45052-.12526-.7593-.17801-.30876-.05384-.61534-.08021-.91971-.08021-.68237,0-1.17245.13955-1.46914.41865-.29669.27911-.44502.63183-.44502,1.05927,0,.22196.04614.41535.13625.57908.0901.16483.21648.30767.3769.43074s.35163.23624.57359.33954c.22307.10219.46042.20329.71643.30108.34613.13955.6692.2835.96917.43184.29999.14725.55711.31976.77139.51645.21426.19669.38238.42964.50656.69666.12307.26701.1846.58897.1846.96697,0,.42635-.07582.80654-.22746,1.13838-.15275.33404-.3692.61205-.64832.83841-.28019.22636-.62193.39777-1.0252.51755-.40326.11867-.85598.17911-1.35814.17911-.48568,0-.88896-.03516-1.20981-.10549-.32087-.06923-.62195-.14944-.90105-.23954.01648-.12307.04505-.25713.08682-.40107.04064-.14395.08569-.27251.13516-.38789"/><path class="cls-1" d="M130.70061,58.03863c-.13957-.01648-.31428-.03516-.52415-.05603-.21098-.01978-.40986-.03077-.59997-.03077-.61645,0-1.09333.11537-1.43177.34503-.33735.22965-.50547.55931-.50547.98565,0,.27141.05164.48898.15384.65271.1033.16482.23624.29009.40108.3758.16482.08571.34613.14395.54391.17252.1978.02857.39449.04285.59227.04285.25492,0,.49338-.01208.71534-.03626.22307-.02527.44063-.05824.65491-.09889v-2.35259ZM127.55246,53.50487c-.14066-.1879-.23955-.37689-.29669-.5659.12417-.13955.27251-.26701.44502-.38239.17251-.11427.3824-.17142.62963-.17142.1978,0,.3769.03187.53624.09779.16153.06594.31537.13735.4637.21537.14834.07802.29669.15054.44393.21648.14834.06483.30876.09779.48238.09779.13955,0,.26701-.02857.38238-.08571.11539-.05823.25494-.16042.41976-.30877.13187.189.23076.38569.29669.59117-.12417.13186-.27362.25383-.45161.36371-.17582.11098-.3846.16592-.62304.16592-.189,0-.36481-.03187-.52415-.0978-.16042-.06593-.31317-.13735-.45711-.21537s-.29008-.15054-.43843-.21647c-.14834-.06483-.30437-.0978-.4692-.0978-.17251,0-.31646.03297-.43183.0978-.11539.06593-.25164.16483-.40767.29558M130.70061,56.942c0-.54172-.12748-.9373-.3824-1.18892-.25603-.24944-.63402-.3747-1.13618-.3747-.32856,0-.62963.02308-.90105.06703-.2714.04505-.51425.1011-.72852.16592-.04177-.07362-.07693-.18021-.10439-.31976-.02968-.13955-.04395-.2714-.04395-.39447.21426-.06484.47688-.12087.79005-.16592s.63402-.06813.96367-.06813c.79885,0,1.39002.17472,1.7779.52415.38679.34942.58018.89664.58018,1.64384v4.15137c-.28899.05824-.63841.11538-1.04938.17252-.41206.05714-.80323.08681-1.17354.08681-.76478,0-1.36803-.15274-1.80867-.45601-.44063-.30438-.66041-.79665-.66041-1.47792,0-.32855.06375-.62303.19121-.88126s.30437-.47689.53074-.65271c.22746-.17691.49886-.30987.81532-.39997.31647-.0912.6648-.13626,1.0439-.13626.29558,0,.55161.01099.76478.03077.21426.02087.39117.03955.53074.05604v-.3824Z"/><path class="cls-1" d="M136.02136,60.52725c.6582,0,1.15047-.22965,1.47571-.69007.32415-.46041.48788-1.08784.48788-1.88448s-.16373-1.42518-.48788-1.88559c-.32524-.45931-.81751-.68896-1.47571-.68896s-1.15049.22965-1.47573.68896c-.32415.46042-.48679,1.08894-.48679,1.88559s.16264,1.42408.48679,1.88448c.32524.46041.81751.69007,1.47573.69007M136.02136,61.24148c-.4692,0-.88017-.08461-1.23398-.25273-.35494-.16812-.64832-.39997-.88346-.69666-.23406-.29449-.40986-.64391-.52415-1.04608-.11537-.40217-.17362-.83401-.17362-1.29332,0-.46041.05825-.89115.17362-1.29332.11428-.40217.29008-.7516.52415-1.04718.23514-.29559.52852-.52744.88346-.69556.35381-.16812.76478-.25383,1.23398-.25383s.87905.08571,1.22848.25383c.34942.16812.6428.39997.87685.69556.23515.29558.41097.64501.53074,1.04718.11978.40218.17912.83291.17912,1.29332,0,.45931-.05934.89115-.17912,1.29332-.11977.40217-.29558.7516-.53074,1.04608-.23405.29668-.52743.52853-.87685.69666-.34944.16812-.7593.25273-1.22848.25273"/><path class="cls-1" d="M144.75087,56.83102l.21537.01868.18462.01209.21096.01318c.07803.0044.17801.0055.30219.0055.29669,0,.58788-.02418.87687-.07362.28789-.04945.54941-.14944.78346-.30218.23514-.15164.42415-.36591.56809-.64062s.21537-.63842.21537-1.09003c0-.36152-.05494-.6626-.16592-.90434-.11098-.24283-.26921-.43843-.47579-.58567-.20548-.14725-.45602-.25493-.75269-.32086-.29669-.06483-.62634-.09889-.98785-.09889-.21428,0-.40327.00659-.56809.01868-.16483.01319-.29999.02747-.40658.04395v3.90414ZM143.89819,52.23681c.08241-.00769.19778-.02307.34612-.04285.14835-.02088.30987-.03736.48788-.04945.17692-.01208.35713-.02417.54282-.03736.1846-.01209.35163-.01868.49997-.01868.48568,0,.92631.04945,1.32079.14834.39449.0978.73512.25493,1.01862.4681.2846.21427.50436.49117.66039.83072.15603.34173.23515.75379.23515,1.23838,0,.51755-.089.96147-.26592,1.33068-.17691.3692-.41535.66919-.71643.89884-.29999.23075-.64941.39887-1.04938.50546-.39888.10659-.81642.16042-1.25266.16042-.1901,0-.35383-.00439-.49447-.01318-.13955-.0077-.29999-.01978-.4802-.03627v3.47339l-.19778.01868-.22307.00659-.24064-.00659-.19119-.01868v-8.85655Z"/><path class="cls-1" d="M153.79961,58.03863c-.13957-.01648-.31428-.03516-.52415-.05603-.20989-.01978-.40986-.03077-.59997-.03077-.61645,0-1.09333.11537-1.43177.34503-.33735.22965-.50547.55931-.50547.98565,0,.27141.05164.48898.15384.65271.1033.16482.23624.29009.40108.3758.16482.08571.34613.14395.54391.17252.1978.02857.39449.04285.59227.04285.25492,0,.49338-.01208.71534-.03626.22307-.02527.44063-.05824.65491-.09889v-2.35259ZM153.79961,56.942c0-.54172-.12748-.9373-.3824-1.18892-.25492-.24944-.63402-.3747-1.13509-.3747-.32965,0-.63072.02308-.90214.06703-.2714.04505-.51425.1011-.72852.16592-.04066-.07362-.07693-.18021-.10439-.31976-.02968-.13955-.04395-.2714-.04395-.39447.21426-.06484.47799-.12087.79005-.16592.31317-.04505.63402-.06813.96367-.06813.79885,0,1.39002.17472,1.7779.52415.38679.34942.58018.89664.58018,1.64384v4.15137c-.28899.05824-.63841.11538-1.04938.17252-.41206.05714-.80323.08681-1.17354.08681-.76478,0-1.36803-.15274-1.80867-.45601-.44063-.30438-.66041-.79665-.66041-1.47792,0-.32855.06375-.62303.19121-.88126.12855-.25823.30547-.47689.53183-.65271.22637-.17691.49777-.30987.81423-.39997.31647-.0912.6648-.13626,1.0439-.13626.29558,0,.55161.01099.76478.03077.21426.02087.39117.03955.53074.05604v-.3824Z"/><path class="cls-1" d="M156.6147,54.81137l.20987-.01868.19778-.00659.2033.00659.20437.01868v3.53493c0,.44283.04505.80654.13516,1.09004.09121.2835.22416.50546.40217.66589.17582.15933.39229.27031.64721.33184.25603.06153.54391.0934.86478.0934.2714,0,.51425-.01538.72852-.04395.21428-.02857.40327-.06813.56809-.11647v-5.55568l.20878-.01868.1978-.00659.20437.00659.2033.01868v6.12157c-.30438.08241-.64393.15384-1.01862.21537-.37361.06153-.7593.0934-1.15377.0934-.38679,0-.7516-.03736-1.09333-.11208-.34174-.07252-.63732-.21427-.88787-.42414-.25162-.20988-.45161-.49887-.59995-.86807-.14725-.3703-.22196-.85049-.22196-1.44166v-3.58438Z"/><path class="cls-1" d="M163.76357,52.04001l.20328-.01868.20437-.00659.19669.00659.21098.01868v7.59949c0,.21427.02418.3802.07362.49887.04945.11977.11098.20548.1846.25823l.24724.09889.24723.01868.28351-.01868.24723-.04286c.04066.09889.07034.20548.08682.32086.01538.11428.02857.22196.03736.31976-.11648.04066-.24614.07032-.38899.08681-.14505.01648-.27801.02417-.40217.02417-.17251,0-.34503-.01868-.51865-.05604-.17251-.03626-.32746-.10659-.46261-.20878-.13625-.10219-.24503-.24174-.32744-.41865-.08243-.17691-.12307-.40877-.12307-.69666v-7.7841Z"/><path class="cls-1" d="M169.66514,60.52725c.6582,0,1.14936-.22965,1.47571-.69007.32415-.46041.48679-1.08784.48679-1.88448s-.16264-1.42518-.48679-1.88559c-.32635-.45931-.81751-.68896-1.47571-.68896-.6593,0-1.15049.22965-1.47573.68896-.32526.46042-.48788,1.08894-.48788,1.88559s.16262,1.42408.48788,1.88448c.32524.46041.81642.69007,1.47573.69007M169.66514,61.24148c-.4692,0-.88126-.08461-1.23509-.25273s-.6483-.39997-.88235-.69666c-.23515-.29449-.40986-.64391-.52525-1.04608-.11537-.40217-.17251-.83401-.17251-1.29332,0-.46041.05714-.89115.17251-1.29332.11539-.40217.2901-.7516.52525-1.04718.23405-.29559.52852-.52744.88235-.69556s.76589-.25383,1.23509-.25383.87796.08571,1.22848.25383c.34942.16812.64171.39997.87576.69556.23515.29558.41206.64501.53183,1.04718.11868.40218.17912.83291.17912,1.29332,0,.45931-.06044.89115-.17912,1.29332-.11977.40217-.29667.7516-.53183,1.04608-.23405.29668-.52634.52853-.87576.69666-.35053.16812-.7593.25273-1.22848.25273"/><path class="cls-1" d="M107.67576,30.48388l-1.59219-4.92714-1.56914,4.92714h3.16133ZM105.60119,24.66999l.23514-.01868.27142-.00659.27799.00659.22856.01868,2.96244,8.85655-.20989.01868-.25931.00659-.23405-.00659-.20989-.01868-.74061-2.2537h-3.6547l-.70434,2.2537-.22746.01868-.24174.00659-.25273-.00659-.20439-.01868,2.96354-8.85655Z"/></svg>