<?xml version="1.0" encoding="UTF-8"?><svg id="Layer_12" xmlns="http://www.w3.org/2000/svg" viewBox="0 0 200 85"><defs><style>.cls-1{fill:#565656;stroke-width:0px;}</style></defs><path class="cls-1" d="M152.15609,29.44613c-2.59424-2.7045-7.38282-4.38403-12.49752-4.38403-5.10772,0-11.46946,1.70516-14.00312,6.48986-.81376,1.53589-.87432,2.76661-.87432,4.46867v.79512h7.92791v-.79512c0-1.80843.62274-2.80622,2.29762-3.68364,1.34021-.70117,3.07177-1.08786,4.8771-1.08786,3.88941,0,7.17472,1.81853,7.17472,3.97094,0,1.91869-1.31071,2.60899-3.57416,3.1533-1.85735.44726-4.17205.42241-6.62108.39834-2.76196-.0264-5.61631-.05668-7.95198.63128-2.39546.7066-5.3492,2.61054-5.81975,7.66934-.56916,6.12413,4.2233,9.68975,8.89851,10.98571,1.37748.38125,2.91337.57072,4.49818.57072,2.03051,0,4.14177-.31059,6.1055-.92402,1.54909-.48375,2.96928-1.19501,4.46479-2.24715v1.75175h7.13978v-20.93791c0-2.51969,0-4.69618-2.04215-6.8253ZM143.72191,50.56962c-2.53445,1.55685-7.14676,2.35197-9.97783,1.05524-1.4365-.65768-2.29374-1.78436-2.54842-3.3482-.12346-.75319-.11492-2.09884,1.3208-2.64548,1.18647-.45269,2.84426-.5086,4.05403-.54975.25469-.00854.48996-.01708.70039-.02718,1.82707-.0924,3.96318-.22751,6.18548-.66467,1.32934-.2609,2.55541-.60178,3.71936-1.03428.21897,3.24726-.94032,5.67144-3.4538,7.21432Z"/><path class="cls-1" d="M111.74161,47.19812l.38358-1.06456h-7.90927l-.21431.45735c-1.61897,3.45225-4.76762,5.5969-8.21598,5.5969-4.46634,0-8.25559-3.5695-9.1136-8.43728h25.91906l.05901-.73067c.03572-.44803.05435-.89995.05435-1.34332,0-.92712-.0792-1.8589-.23527-2.76972-1.37438-7.99935-8.39147-13.80512-16.68355-13.80512-9.32946,0-16.9196,7.43562-16.9196,16.57484s7.59014,16.57407,16.9196,16.57407c2.95064,0,5.85469-.75552,8.39846-2.18425,2.63617-1.47998,4.82197-3.62851,6.32136-6.21421.49151-.84792.90771-1.74088,1.23616-2.65402ZM86.99738,38.24603c1.27809-4.21631,4.77538-7.08154,8.78825-7.08154,4.01365,0,7.51016,2.86523,8.78748,7.08154h-17.57573Z"/><polygon class="cls-1" points="74.03862 25.95505 64.32325 47.60577 54.60865 25.95505 45.80176 25.95505 61.49762 57.346 67.14965 57.346 82.84551 25.95505 74.03862 25.95505"/><rect class="cls-1" x="114.245" y="16.58754" width="7.2182" height="7.55054"/><path class="cls-1" d="M114.245,57.77151c0,2.31858-2.05691,4.20466-4.58437,4.20466h-1.54676v6.43628h4.15885c5.09762-.15607,9.10351-4.46556,9.18892-9.84583l.00155-32.82045h-7.2182v32.02533Z"/></svg>