<?xml version="1.0" encoding="UTF-8"?><svg id="Layer_15" xmlns="http://www.w3.org/2000/svg" viewBox="0 0 200 85"><defs><style>.cls-1{fill:#565656;stroke-width:0px;}</style></defs><path class="cls-1" d="M75.68964,48.57512v11.39545c.00118.30234-.01361.60453-.04432.90531-.0706.92998-.67643,1.73363-1.55105,2.05751-2.54518,1.09155-5.21946,1.8532-7.95782,2.26643-2.14152.31312-4.30864.4149-6.47008.30388-2.14244-.08291-4.25252-.55039-6.22951-1.38012-3.57647-1.45779-6.34694-4.39218-7.59697-8.04645-1.59962-4.28293-1.72439-8.97716-.35453-13.33901,1.77896-5.69773,5.69773-9.09104,11.45243-10.46482,2.09551-.44891,4.2453-.58967,6.38145-.41783,3.54446.20703,7.03681.95204,10.3572,2.20945,1.51939.58243,2.0132,1.21551,2.0132,2.86786v11.64235h0ZM67.24434,48.70806v-6.57137c.10938-.84147-.43887-1.6282-1.26616-1.81694-.20892-.0823-.43049-.13295-.63308-.19626-1.33936-.35841-2.72246-.52676-4.10869-.50013-3.93776.03165-6.66634,2.05751-7.59697,5.69773-.61794,2.29979-.58506,4.726.09496,7.0082.67991,2.72494,2.92353,4.7791,5.69773,5.21658,2.21718.38675,4.49637.20154,6.62202-.53812.94329-.30388,1.26616-.80401,1.26616-1.8296-.05909-2.16092-.09074-4.32394-.09496-6.48908l.01899.01899ZM151.91887,48.6954c.05768,3.00895-.62726,5.98572-1.9942,8.66687-2.45002,4.63415-6.33081,7.24244-11.48408,7.98315-2.77236.42424-5.60506.20767-8.2807-.63308-4.71559-1.37959-8.42326-5.03494-9.86972-9.73045-1.47249-4.22916-1.42098-8.83991.14561-13.03513,2.18413-5.90031,6.53339-9.19866,12.73758-10.009,2.81278-.39284,5.67878-.10406,8.35666.842,5.31787,1.89924,8.50227,5.69773,9.86972,11.12956.3688,1.56801.54316,3.17547.51913,4.78609ZM135.5031,39.54106c-3.08443-.10875-5.88189,1.79895-6.90691,4.71012-.41818,1.13581-.65738,2.32968-.70905,3.53892-.15921,1.88852.12702,3.78804.83567,5.54578.79486,2.03812,2.52587,3.56632,4.64681,4.10236.53593.1373,1.0822.23046,1.63335.27855,3.35333.49184,6.57379-1.5019,7.62862-4.72278,1.0285-2.79306,1.0285-5.86115,0-8.65421-.73376-2.23085-2.58424-3.9131-4.87472-4.43156-.75337-.19625-1.51306-.25323-2.25377-.36719h0ZM83.5525,49.95523v-13.59224c.02192-1.04083.70416-1.95217,1.69666-2.26643,3.20303-1.13446,6.53594-1.86187,9.92038-2.16514,2.43147-.22816,4.8813-.17079,7.29942.17093,1.57198.21873,3.10342.66664,4.54551,1.32947,3.17517,1.41362,5.38129,4.38312,5.81801,7.83121.14256.86843.21244,1.74724.20892,2.62729v19.63183c0,.91164-.43683,1.35479-1.3358,1.36112h-5.74204c-.66353.07555-1.26266-.4011-1.33822-1.06463-.00881-.07742-.01012-.15552-.00391-.23319v-18.1251c-.00197-.6527-.0677-1.30364-.19625-1.94356-.27614-1.46748-1.28785-2.68966-2.67793-3.23504-.71552-.30984-1.47281-.5125-2.24744-.60143-1.95549-.20143-3.93117-.05786-5.837.42416-.29489.0677-.58149.16748-.85466.29755-.47894.21199-.78878.68543-.79135,1.20918v21.98056c.03221.69854-.50796,1.29093-1.2065,1.32314-.03886.00179-.07778.00179-.11664,0h-1.05724c-1.38645,0-2.77289-.04432-4.15301,0s-1.94356-.42416-1.89924-1.89924c-.00633-4.34926-.03166-8.70486-.03166-13.06045h0ZM35.27377,64.89593h-2.79189c-1.03825,0-1.3358-.43683-1.10156-1.44342.17482-.68051.28713-1.37557.33553-2.0765.11495-1.77183-.73759-3.46722-2.22844-4.43156-1.1009-.75751-2.31446-1.33652-3.5959-1.71565-2.08284-.63308-4.17833-1.26616-6.26117-1.95622-1.68786-.51505-3.29478-1.26523-4.77343-2.22844-2.4633-1.5864-3.96245-4.3063-3.98841-7.23611-.23424-5.27989,2.61463-9.22399,7.34374-11.05992,2.38137-.90094,4.92001-1.31221,7.46402-1.20918,3.85952.04642,7.66549.90945,11.16754,2.53232.50013.23424.99394.48747,1.47508.7597.85117.33863,1.26667,1.30316.92804,2.15433-.02655.06673-.0574.13167-.09237.1944-.17726.44316-.39251.86732-.59509,1.30415-.42416.91164-.89264,1.80428-1.26616,2.73491-.58877,1.44976-1.79162,1.58903-2.87419.96861-1.63424-.94732-3.38312-1.68134-5.20392-2.18413-2.17013-.67875-4.47727-.79422-6.70432-.33553-.6585.15414-1.28583.41963-1.85493.78502-1.17798.68686-1.57611,2.1986-.88925,3.37658.19055.3268.45364.60544.76897.81441.71175.5157,1.49715.9212,2.32974,1.20285,1.94989.66473,3.93776,1.21551,5.91297,1.81694,1.86421.52518,3.67117,1.23566,5.39385,2.12082,1.09225.57714,2.10163,1.29903,3.0008,2.14614,1.69431,1.63118,2.76482,3.80354,3.02612,6.14088.20088,1.52608.1474,3.07491-.15827,4.5835-.08299.37679-.18655.74875-.31021,1.11422-.17806.7177-.85247,1.19866-1.58903,1.13321h-2.86785v-.00633ZM166.68231,32.43789h7.96415c1.03826,0,1.44342.41783,1.46875,1.47508v4.07704c0,1.22185-.36718,1.59536-1.57005,1.60169h-7.93883c0,.36719-.03166.68373-.03166,1.00027v23.02514c.02604.6743-.49948,1.24204-1.17378,1.26809-.04346.00168-.08697.00103-.13036-.00193h-5.43183c-1.23451,0-1.63335-.40517-1.63335-1.62702v-30.59046c.00159-1.51034.19518-3.01436.57611-4.47588,1.19652-4.51386,4.10236-7.28043,8.63522-8.31235,2.61461-.57899,5.32422-.57899,7.93883,0l.29121.06964c1.11423.29122,1.38645.73437,1.1712,1.89924l-.66473,3.48194v.06964c-.23424,1.13955-.63308,1.42443-1.79795,1.26616-.46915-.08606-.94249-.14734-1.41809-.18359-.90115-.05402-1.80519-.03496-2.70326.05698-1.7439.17796-3.15106,1.50463-3.4313,3.23504-.20292.87357-.24369,1.77697-.12029,2.66527h0ZM189.33394,48.68274v14.56085c0,1.26616-.37985,1.63968-1.684,1.64601h-5.27989c-1.02559,0-1.45608-.44949-1.49406-1.47508v-29.67248c-.01947-.69901.5314-1.28146,1.23042-1.30093.04359-.00121.08721-.00018.1307.00311h5.58378c1.0889,0,1.5004.41783,1.5004,1.51939.01265,4.90848.01689,9.81486.01265,14.71912Z"/><path class="cls-1" d="M19.34546,61.05313c-.05698.39884-.09496.79768-.17093,1.19019-.32521,1.80385-1.8773,3.12816-3.70985,3.1654-.57708.03664-1.15646-.00597-1.72198-.12661-1.81547-.27664-3.18148-1.79915-3.26036-3.63388-.04596-.67729.00736-1.35766.15827-2.01953.32891-1.49826,1.54739-2.6387,3.06411-2.86785.86395-.18009,1.75856-.14969,2.60829.08863,1.9309.5128,2.98814,2.01953,3.03246,4.20366h0ZM185.21258,28.36718c-.45041-.02636-.89869-.08134-1.34213-.1646-1.82515-.36287-3.13194-1.97575-3.10843-3.83647-.025-.627.03031-1.25463.16461-1.86759.36507-1.56418,1.69225-2.71781,3.29203-2.86152.64912-.07468,1.30552-.05763,1.94988.05065,1.98962.27254,3.44554,2.01362,3.36166,4.02006.01088.60217-.06155,1.20296-.21525,1.78529-.36718,1.44975-1.67766,2.90584-4.10237,2.87419Z"/></svg>