<?xml version="1.0" encoding="utf-8"?>
<!-- Generator: Adobe Illustrator 28.3.0, SVG Export Plug-In . SVG Version: 6.00 Build 0)  -->
<svg version="1.1" id="Layer_1" xmlns="http://www.w3.org/2000/svg" xmlns:xlink="http://www.w3.org/1999/xlink" x="0px" y="0px"
	 viewBox="0 0 200 85" style="enable-background:new 0 0 200 85;" xml:space="preserve">
<style type="text/css">
	.st0{fill:#565656;}
</style>
<g>
	<path class="st0" d="M133.6,37.2c0.2,0,0.3-0.2,0.3-0.3c0,0,0,0,0,0c0-0.2-0.2-0.3-0.3-0.3c-0.2,0-0.3,0.2-0.3,0.3l0,0
		C133.3,37.1,133.4,37.2,133.6,37.2 M114.5,27.5c0,0.5,0.4,0.9,0.9,0.9c0.5,0,0.9-0.4,0.9-0.9s-0.4-0.9-0.9-0.9
		C114.9,26.6,114.5,27,114.5,27.5C114.5,27.5,114.5,27.5,114.5,27.5L114.5,27.5 M120,29.3c0,0.5,0.4,0.9,0.9,0.9s0.9-0.4,0.9-0.9
		s-0.4-0.9-0.9-0.9l0,0l0,0C120.4,28.5,120,28.9,120,29.3C120,29.3,120,29.3,120,29.3L120,29.3 M99.2,52.2c0,0.5,0.4,0.9,0.9,0.9
		c0.5,0,0.9-0.4,0.9-0.9c0-0.5-0.4-0.9-0.9-0.9l0,0C99.6,51.3,99.2,51.7,99.2,52.2C99.2,52.2,99.2,52.2,99.2,52.2L99.2,52.2
		 M103.5,55.8c0,0.5,0.4,0.9,0.9,0.9c0.5,0,0.9-0.4,0.9-0.9c0-0.5-0.4-0.9-0.9-0.9l0,0l0,0C103.9,54.9,103.5,55.3,103.5,55.8
		 M109,57.5c0,0.5,0.4,0.9,0.9,0.9c0.5,0,0.9-0.4,0.9-0.9c0-0.5-0.4-0.9-0.9-0.9l0,0l0,0C109.4,56.6,109,57,109,57.5
		C109,57.5,109,57.5,109,57.5 M114.6,57.4c0,0.5,0.4,0.9,0.9,0.9c0.5,0,0.9-0.4,0.9-0.9c0-0.5-0.4-0.8-0.9-0.9
		C115,56.5,114.6,56.9,114.6,57.4C114.6,57.4,114.6,57.4,114.6,57.4L114.6,57.4 M120,55.7c0,0.5,0.4,0.9,0.9,0.9
		c0.5,0,0.9-0.4,0.9-0.9c0-0.5-0.4-0.9-0.9-0.9l0,0C120.5,54.8,120.1,55.2,120,55.7C120.1,55.7,120.1,55.7,120,55.7 M124.4,52.2
		c0,0.5,0.4,0.9,0.9,0.9s0.9-0.4,0.9-0.9s-0.4-0.9-0.9-0.9l0,0l0,0C124.8,51.3,124.4,51.7,124.4,52.2
		C124.4,52.2,124.4,52.2,124.4,52.2 M124.3,32.8c0,0.5,0.4,0.9,0.9,0.9s0.9-0.4,0.9-0.9c0-0.5-0.4-0.9-0.9-0.9
		C124.7,31.9,124.3,32.3,124.3,32.8C124.3,32.8,124.3,32.8,124.3,32.8L124.3,32.8 M118.2,30.5c0-0.6-0.5-1.1-1.1-1.1
		c-0.6,0-1.1,0.5-1.1,1.1c0,0.6,0.5,1.1,1.1,1.1C117.7,31.6,118.2,31.1,118.2,30.5C118.2,30.5,118.2,30.5,118.2,30.5L118.2,30.5
		 M121.9,32.8c0-0.6-0.5-1.1-1.1-1.1c-0.6,0-1.1,0.5-1.1,1.1c0,0.6,0.5,1.1,1.1,1.1C121.4,33.9,121.9,33.4,121.9,32.8
		C121.9,32.8,121.9,32.8,121.9,32.8L121.9,32.8 M124.8,36.1c0-0.6-0.5-1.1-1.1-1.1c-0.6,0-1.1,0.5-1.1,1.1s0.5,1.1,1.1,1.1l0,0l0,0
		C124.3,37.2,124.8,36.7,124.8,36.1C124.8,36.1,124.8,36.1,124.8,36.1L124.8,36.1 M116.8,23.6c0-0.2-0.1-0.3-0.3-0.3
		c-0.2,0-0.3,0.1-0.3,0.3c0,0.2,0.1,0.3,0.3,0.3C116.7,23.9,116.8,23.7,116.8,23.6C116.8,23.6,116.8,23.6,116.8,23.6L116.8,23.6
		 M124.3,26.3c0-0.2-0.1-0.3-0.3-0.3c0,0,0,0,0,0l0,0c-0.2,0-0.3,0.1-0.3,0.3c0,0.1,0.1,0.3,0.2,0.3
		C124.1,26.6,124.3,26.4,124.3,26.3 M130.2,30.5c0-0.2-0.1-0.3-0.3-0.3c0,0,0,0,0,0l0,0c-0.2,0-0.3,0.1-0.3,0.3c0,0,0,0,0,0l0,0
		c0,0.2,0.1,0.3,0.2,0.4C130,30.8,130.1,30.7,130.2,30.5C130.2,30.5,130.2,30.5,130.2,30.5 M120,26.6c0-0.3-0.2-0.6-0.5-0.6
		c-0.3,0-0.6,0.2-0.6,0.5c0,0.3,0.2,0.6,0.5,0.6C119.7,27.2,120,26.9,120,26.6C120,26.6,120,26.6,120,26.6L120,26.6 M125.7,29.4
		c0-0.3-0.2-0.6-0.5-0.6c0,0,0,0,0,0l0,0c-0.3-0.1-0.6,0.2-0.7,0.5c-0.1,0.3,0.2,0.6,0.5,0.7c0,0,0,0,0,0h0.1
		C125.4,30,125.7,29.8,125.7,29.4C125.7,29.4,125.7,29.4,125.7,29.4L125.7,29.4 M129.6,33.5c-0.3,0-0.6,0.2-0.6,0.5
		c0,0.3,0.2,0.6,0.5,0.6c0.3,0,0.6-0.2,0.6-0.5C130.1,33.8,129.9,33.5,129.6,33.5C129.6,33.5,129.6,33.5,129.6,33.5L129.6,33.5
		 M112.6,25c-0.3,0-0.6,0.3-0.6,0.6s0.3,0.6,0.6,0.6c0.3,0,0.6-0.3,0.6-0.6l0,0C113.2,25.3,112.9,25.1,112.6,25
		C112.6,25,112.6,25,112.6,25 M109.9,26.6c-0.5,0-0.9,0.4-0.9,0.9c0,0.5,0.4,0.9,0.9,0.9c0.5,0,0.9-0.4,0.9-0.9l0,0
		C110.7,27,110.3,26.6,109.9,26.6L109.9,26.6L109.9,26.6 M104.3,28.5c-0.5,0-0.9,0.4-0.9,0.9c0,0.5,0.4,0.9,0.9,0.9
		c0.5,0,0.9-0.4,0.9-0.9l0,0C105.2,28.9,104.8,28.5,104.3,28.5 M96.2,41.7c-0.5,0-0.9,0.4-0.9,0.9c0,0.5,0.4,0.9,0.9,0.9
		c0.5,0,0.9-0.4,0.9-0.9l0,0C97.1,42.1,96.7,41.7,96.2,41.7L96.2,41.7L96.2,41.7 M97.3,36.5c-0.5,0-0.9,0.4-0.9,0.9
		c0,0.5,0.4,0.9,0.9,0.9c0.5,0,0.9-0.4,0.9-0.9l0,0C98.2,36.9,97.8,36.5,97.3,36.5L97.3,36.5 M100.1,31.9c-0.5,0-0.9,0.4-0.9,0.9
		c0,0.5,0.4,0.9,0.9,0.9c0.5,0,0.9-0.4,0.9-0.9l0,0C101,32.3,100.6,31.9,100.1,31.9 M112.6,56.3c0.6,0,1.1-0.5,1.1-1.1
		c0-0.6-0.5-1.1-1.1-1.1c-0.6,0-1.1,0.5-1.1,1.1l0,0C111.5,55.8,112,56.3,112.6,56.3 M112.6,30.9c0.6,0,1.1-0.5,1.1-1.1
		s-0.5-1.1-1.1-1.1c-0.6,0-1.1,0.5-1.1,1.1l0,0C111.5,30.4,112,30.9,112.6,30.9 M108.2,31.6c0.6,0,1.1-0.5,1.1-1.1s-0.5-1.1-1.1-1.1
		c-0.6,0-1.1,0.5-1.1,1.1l0,0C107.1,31.1,107.6,31.6,108.2,31.6C108.2,31.6,108.2,31.6,108.2,31.6L108.2,31.6 M104.4,33.9
		c0.6,0,1.1-0.5,1.1-1.1s-0.5-1.1-1.1-1.1c-0.6,0-1.1,0.5-1.1,1.1l0,0C103.3,33.4,103.8,33.9,104.4,33.9
		C104.4,33.9,104.4,33.9,104.4,33.9L104.4,33.9 M101.5,37.2c0.6,0,1.1-0.5,1.2-1.1c0-0.6-0.5-1.1-1.1-1.2c-0.6,0-1.1,0.5-1.2,1.1
		c0,0,0,0,0,0l0,0C100.4,36.7,100.9,37.2,101.5,37.2C101.5,37.2,101.5,37.2,101.5,37.2L101.5,37.2 M100.3,41.3
		c0.6,0,1.1-0.5,1.1-1.1c0-0.6-0.5-1.1-1.1-1.1c-0.6,0-1.1,0.5-1.1,1.1l0,0C99.2,40.8,99.7,41.3,100.3,41.3L100.3,41.3L100.3,41.3
		 M108.7,23.8c0.2,0,0.3-0.2,0.3-0.3c0-0.2-0.2-0.3-0.3-0.3c-0.2,0-0.3,0.2-0.3,0.3c0,0,0,0,0,0C108.4,23.7,108.6,23.9,108.7,23.8
		C108.7,23.8,108.7,23.8,108.7,23.8L108.7,23.8 M101.3,26.6c0.2,0,0.3-0.2,0.3-0.3c0,0,0,0,0,0l0,0c0-0.2-0.2-0.3-0.3-0.3
		c-0.2,0-0.3,0.2-0.3,0.3c0,0,0,0,0,0l0,0C101,26.4,101.1,26.6,101.3,26.6 M133.6,49.9c0.2,0,0.3-0.1,0.3-0.3c0-0.2-0.1-0.3-0.3-0.3
		h-0.1c-0.2,0-0.3,0.2-0.3,0.3c0,0,0,0,0,0l0,0C133.2,49.8,133.4,49.9,133.6,49.9 M130,54.9c0.2,0,0.3-0.2,0.3-0.3
		c0-0.2-0.2-0.3-0.3-0.3c-0.2,0-0.3,0.2-0.3,0.3C129.7,54.8,129.8,54.9,130,54.9C130,54.9,130,54.9,130,54.9 M124,59.1
		c0.2,0,0.3-0.2,0.3-0.3c0,0,0,0,0,0l0,0c0-0.2-0.1-0.3-0.3-0.3c-0.2,0-0.3,0.1-0.3,0.3c0,0,0,0,0,0c0,0,0,0,0,0.1
		C123.7,59,123.9,59.1,124,59.1C124,59.1,124,59.1,124,59.1L124,59.1 M116.6,61.8c0.2,0,0.3-0.2,0.3-0.3c0-0.2-0.2-0.3-0.3-0.3l0,0
		l0,0c-0.2,0-0.3,0.2-0.3,0.3C116.3,61.6,116.4,61.8,116.6,61.8 M108.7,61.8c0.2,0,0.3-0.2,0.3-0.3c0-0.2-0.2-0.3-0.3-0.3l0,0l0,0
		c-0.2,0-0.3,0.2-0.3,0.3C108.4,61.6,108.6,61.8,108.7,61.8L108.7,61.8 M101.3,59c0.2,0,0.3-0.2,0.3-0.3c0,0,0,0,0,0l0,0
		c0-0.2-0.2-0.3-0.3-0.3c-0.2,0-0.3,0.2-0.3,0.3c0,0,0,0,0,0l0,0C101,58.9,101.1,59.1,101.3,59 M95.4,54.8c0.2,0,0.3-0.2,0.3-0.3
		c0,0,0,0,0,0c0-0.2-0.2-0.3-0.3-0.3c-0.2,0-0.3,0.2-0.3,0.3l0,0l0,0C95.1,54.7,95.2,54.9,95.4,54.8 M91.7,49.9
		c0.2,0,0.3-0.1,0.3-0.3c0-0.2-0.1-0.3-0.3-0.3h-0.1c-0.2,0-0.3,0.2-0.2,0.4C91.4,49.8,91.5,49.9,91.7,49.9 M95.4,30.7
		c0.2,0,0.3-0.2,0.3-0.3c0,0,0,0,0,0c0-0.2-0.2-0.3-0.3-0.3c-0.2,0-0.3,0.2-0.3,0.3l0,0l0,0C95.1,30.6,95.2,30.7,95.4,30.7
		 M105.8,27.1c0.3,0,0.5-0.3,0.5-0.6c0-0.3-0.3-0.5-0.6-0.5c-0.3,0-0.5,0.3-0.5,0.6C105.3,26.9,105.5,27.1,105.8,27.1L105.8,27.1
		 M100.1,29.9c0.3,0,0.5-0.3,0.5-0.6c0-0.3-0.3-0.5-0.6-0.5c-0.3,0-0.5,0.3-0.5,0.6C99.6,29.7,99.8,29.9,100.1,29.9L100.1,29.9
		 M95.1,34.1c0,0.3,0.2,0.5,0.5,0.5h0.1c0.3,0,0.6-0.3,0.6-0.6c0-0.3-0.3-0.6-0.6-0.6c0,0,0,0-0.1,0C95.3,33.5,95.1,33.8,95.1,34.1
		 M131.8,44.9c-0.3,0-0.5,0.3-0.5,0.6c0,0.3,0.3,0.5,0.6,0.5l0,0c0.3,0,0.5-0.3,0.5-0.6S132.1,44.8,131.8,44.9L131.8,44.9
		L131.8,44.9 M129.6,50.4c-0.3,0-0.5,0.3-0.5,0.6c0,0.3,0.3,0.5,0.6,0.5c0.3,0,0.5-0.3,0.5-0.6C130.2,50.6,129.9,50.4,129.6,50.4
		L129.6,50.4 M125.2,55c-0.3,0-0.6,0.3-0.6,0.6c0,0.3,0.3,0.6,0.6,0.6c0,0,0,0,0.1,0c0.3,0,0.5-0.3,0.5-0.6
		C125.9,55.3,125.6,55,125.2,55L125.2,55 M119.4,57.9c-0.3,0-0.5,0.3-0.5,0.6l0,0c0,0.3,0.3,0.6,0.6,0.5c0.3,0,0.6-0.3,0.5-0.6l0,0
		c0,0,0,0,0-0.1C120,58.1,119.7,57.8,119.4,57.9C119.4,57.9,119.4,57.9,119.4,57.9L119.4,57.9 M112.6,58.8c-0.3,0-0.6,0.3-0.5,0.6
		c0,0.3,0.3,0.6,0.6,0.5h0.1c0.3,0,0.5-0.3,0.5-0.6C113.1,59,112.8,58.8,112.6,58.8 M106,58.1c-0.3,0-0.5,0.3-0.5,0.6
		c0,0.3,0.3,0.5,0.6,0.5c0.3,0,0.5-0.3,0.5-0.6C106.6,58.3,106.3,58,106,58.1C106,58.1,106,58.1,106,58.1L106,58.1 M100,55.1
		c-0.3,0-0.6,0.3-0.5,0.6c0,0.3,0.3,0.6,0.6,0.5l0,0h0.1c0.3,0,0.5-0.3,0.5-0.6C100.6,55.3,100.3,55.1,100,55.1 M95.6,50.4
		c-0.3,0-0.5,0.3-0.5,0.6c0,0.3,0.3,0.5,0.6,0.5c0.3,0,0.5-0.3,0.5-0.6C96.2,50.6,95.9,50.4,95.6,50.4L95.6,50.4 M93.2,39.5
		c-0.3,0-0.5,0.3-0.5,0.6c0,0.3,0.3,0.5,0.6,0.5c0.3,0,0.5-0.3,0.5-0.6C93.7,39.7,93.5,39.5,93.2,39.5L93.2,39.5 M109.3,54.5
		c0-0.6-0.5-1.1-1.1-1.1c-0.6,0-1.1,0.5-1.1,1.1c0,0.6,0.5,1.1,1.1,1.1l0,0C108.8,55.6,109.3,55.1,109.3,54.5L109.3,54.5L109.3,54.5
		 M117,53.4c-0.6,0-1.1,0.5-1.1,1.1s0.5,1.1,1.1,1.1c0.6,0,1.1-0.5,1.1-1.1l0,0C118.1,53.9,117.6,53.4,117,53.4
		C117,53.4,117,53.4,117,53.4L117,53.4 M120.8,51.2c-0.6,0-1.1,0.5-1.1,1.1c0,0.6,0.5,1.1,1.1,1.1s1.1-0.5,1.1-1.1c0,0,0,0,0,0
		C121.9,51.7,121.4,51.2,120.8,51.2C120.8,51.2,120.8,51.2,120.8,51.2 M124.8,48.9c0-0.6-0.5-1.1-1.1-1.1c-0.6,0-1.1,0.5-1.1,1.1
		c0,0.6,0.5,1.1,1.1,1.1C124.3,50,124.8,49.5,124.8,48.9C124.8,48.9,124.8,48.9,124.8,48.9L124.8,48.9 M104.5,51.1
		c-0.6,0-1.1,0.5-1.1,1.1s0.5,1.1,1.1,1.1c0.6,0,1.1-0.5,1.1-1.1l0,0C105.6,51.6,105.1,51.1,104.5,51.1
		C104.5,51.1,104.5,51.1,104.5,51.1L104.5,51.1 M101.5,47.8c-0.6,0-1.1,0.5-1.1,1.1c0,0.6,0.5,1.1,1.1,1.1c0.6,0,1.1-0.5,1.1-1.1
		c0,0,0,0,0,0l0,0C102.6,48.3,102.1,47.8,101.5,47.8L101.5,47.8L101.5,47.8 M146.2,38.2h6.9v9.2h2.4v-9.2h6.3l0.6-1.6h-15.6
		L146.2,38.2z M90.3,36.6h-2.4v10.8h11l0.6-1.6h-9.2V36.6z M112.8,36.6l5.8,10.7h2.6l-5.8-10.7L112.8,36.6z M104,47.3h2.6l5.8-10.7
		h-2.6L104,47.3z M138.8,44.6l-10.2-8h-2.4v10.7h2.4v-8l10.2,8h2.4V36.6h-2.4L138.8,44.6z M187.8,41.2h-7.4
		c-0.7,0.1-1.4-0.5-1.5-1.2c0,0,0,0,0,0c0,0,0-0.1,0-0.1v-0.3c0-0.7,0.6-1.3,1.3-1.3c0,0,0,0,0,0h10.1l0.6-1.6h-11.3
		c-2,0-3.1,1.4-3.1,2.7v0.7c0,1.4,1.1,2.8,3.2,2.8h7.4c0.7-0.1,1.4,0.5,1.5,1.2c0,0,0,0,0,0c0,0,0,0.1,0,0.1v0.3
		c0,0.7-0.6,1.3-1.4,1.3c0,0,0,0,0,0h-10.1l-0.6,1.6h11.3c2,0,3.1-1.4,3.1-2.7V44C190.9,42.6,189.8,41.2,187.8,41.2 M20.4,41.2h-7.4
		c-0.7,0.1-1.4-0.5-1.5-1.2c0,0,0,0,0,0c0,0,0-0.1,0-0.1v-0.3c0-0.7,0.6-1.3,1.3-1.3c0,0,0,0,0,0h10.1l0.6-1.6H12.2
		c-2,0-3.1,1.4-3.1,2.8v0.7c0,1.4,1.1,2.8,3.2,2.8h7.4c0.7-0.1,1.4,0.5,1.5,1.2c0,0,0,0,0,0c0,0,0,0.1,0,0.1v0.3
		c0,0.7-0.6,1.3-1.4,1.3c0,0,0,0,0,0H9.7l-0.6,1.6h11.3c2,0,3.1-1.4,3.1-2.7V44C23.5,42.6,22.4,41.2,20.4,41.2 M167.5,47.3h2.4V36.6
		h-2.4V47.3z M28.8,38.2h6.9v9.2h2.4v-9.2h6.3l0.6-1.6H29.4L28.8,38.2z M61.9,38.2l0.6-1.6H50.3v10.8H62l0.6-1.6h-9.8v-3h6.9
		l0.6-1.6h-7.5v-3H61.9z M72.2,45.8h9.2l-0.6,1.6h-11V36.6h2.4V45.8z"/>
	<path class="st0" d="M108.7,62.3c-0.4,0-0.8-0.3-0.8-0.7c0-0.2,0-0.4,0.2-0.6c0.1-0.2,0.3-0.3,0.5-0.3c0.2,0,0.4,0,0.6,0.2
		c0.2,0.1,0.3,0.3,0.3,0.5s0,0.4-0.2,0.6C109.2,62.1,109,62.2,108.7,62.3l0-0.6l0,0c0.1,0,0.2-0.1,0.2-0.2c0-0.1-0.1-0.2-0.2-0.2
		l0,0.1l0-0.1c-0.1,0-0.2,0.1-0.2,0.2s0.2,0.2,0.2,0.2L108.7,62.3C108.7,62.3,108.7,62.3,108.7,62.3z M116.6,62.3
		c-0.4,0-0.8-0.3-0.8-0.7c0-0.4,0.3-0.8,0.7-0.9c0.4,0,0.8,0.3,0.9,0.7C117.4,61.8,117.1,62.2,116.6,62.3L116.6,62.3
		C116.6,62.3,116.6,62.3,116.6,62.3z M116.5,61.3c-0.1,0-0.2,0.1-0.2,0.2c0,0.1,0.1,0.2,0.2,0.2c0,0,0,0,0,0L116.5,61.3z
		 M116.6,61.3C116.6,61.3,116.5,61.3,116.6,61.3l0,0.4c0.1,0,0.2-0.1,0.2-0.2C116.7,61.3,116.7,61.3,116.6,61.3z M112.6,60.4
		c-0.3,0-0.5-0.1-0.7-0.3c-0.2-0.2-0.3-0.5-0.3-0.7c0-0.6,0.4-1.1,1-1.1l0,1c0,0-0.1,0-0.1,0.1h0l0.1,0.1l-0.1-1.1
		c0.5,0,1,0.4,1.1,0.9c0.1,0.6-0.3,1.1-0.9,1.2L112.6,60.4C112.6,60.4,112.6,60.4,112.6,60.4z M106,59.7c-0.5,0-1-0.4-1.1-1
		c0-0.6,0.4-1.1,1-1.2l0.1,0c0.3,0,0.5,0.1,0.7,0.3s0.3,0.5,0.4,0.7C107.1,59.1,106.7,59.6,106,59.7C106.1,59.7,106.1,59.7,106,59.7
		z M106,58.6C106,58.6,106,58.6,106,58.6L106,58.6L106,58.6L106,58.6z M106,58.6L106,58.6L106,58.6L106,58.6z M124,59.6
		c-0.4,0-0.7-0.3-0.8-0.7l0-0.1l0-0.1c0-0.1,0.1-0.3,0.2-0.5c0.2-0.2,0.4-0.2,0.6-0.2c0.4,0,0.8,0.4,0.8,0.8c0,0.4-0.3,0.8-0.7,0.8
		l0,0L124,59.6C124,59.6,124,59.6,124,59.6z M124,59.1L124,59.1l0-0.1c0,0,0.1,0,0.1-0.1c0,0,0.1-0.1,0.1-0.1c0-0.1-0.1-0.1-0.2-0.2
		l0,0c-0.1,0-0.2,0.1-0.2,0.2c0,0.1,0.1,0.2,0.2,0.2h0c0,0,0,0,0,0L124,59.1z M101.2,59.5c-0.4,0-0.8-0.3-0.8-0.7
		c0-0.2,0.1-0.4,0.2-0.6c0.1-0.2,0.3-0.3,0.5-0.3c0.4,0,0.8,0.3,0.9,0.7c0,0.2-0.1,0.4-0.2,0.6S101.5,59.5,101.2,59.5
		C101.3,59.5,101.3,59.5,101.2,59.5z M101.2,58.5c-0.1,0-0.1,0-0.1,0.1c0,0-0.1,0.1-0.1,0.2c0,0.1,0.1,0.2,0.2,0.2
		c0,0,0.1,0,0.1-0.1c0,0,0.1-0.1,0.1-0.1C101.4,58.6,101.3,58.5,101.2,58.5z M119.4,59.5c-0.6,0-1-0.5-1.1-1c0-0.6,0.4-1.1,1-1.1
		l0.1,1c0,0-0.1,0-0.1,0.1l0.1,0l-0.1-1.1c0.3,0,0.6,0.1,0.8,0.3c0.2,0.2,0.3,0.5,0.3,0.7C120.5,59,120.1,59.5,119.4,59.5
		C119.5,59.5,119.5,59.5,119.4,59.5z M119.4,58.5L119.4,58.5L119.4,58.5z M109.9,58.9c-0.8,0-1.4-0.6-1.4-1.4v0c0-0.4,0.1-0.7,0.4-1
		c0.3-0.3,0.6-0.4,1-0.4c0,0,0,0,0,0c0.8,0,1.4,0.6,1.4,1.4S110.6,58.9,109.9,58.9z M109.9,57.1c-0.1,0-0.2,0-0.3,0.1
		c-0.1,0.1-0.1,0.2-0.1,0.3l-0.5,0h0.5c0,0.2,0.2,0.4,0.4,0.4s0.4-0.2,0.4-0.4C110.2,57.3,110.1,57.1,109.9,57.1z M115.5,58.8
		c-0.4,0-0.7-0.1-0.9-0.4c-0.3-0.3-0.4-0.6-0.4-1v0c0-0.8,0.6-1.4,1.4-1.4c0.7,0,1.3,0.6,1.4,1.3c0,0.4-0.1,0.7-0.4,1
		C116.2,58.6,115.9,58.7,115.5,58.8C115.5,58.8,115.5,58.8,115.5,58.8z M115.1,57.4c0,0.1,0,0.2,0.1,0.3s0.1,0.1,0.3,0.1
		c0.1,0,0.2,0,0.3-0.1s0.1-0.2,0.1-0.3c0-0.2-0.1-0.3-0.4-0.4c-0.1,0-0.2,0-0.3,0.1S115.1,57.3,115.1,57.4l-0.5,0L115.1,57.4z
		 M104.4,57.2c-0.8,0-1.4-0.6-1.4-1.4h0.5l-0.5,0c0-0.7,0.6-1.4,1.4-1.4c0.8,0,1.4,0.6,1.4,1.4S105.1,57.2,104.4,57.2z M104,55.8
		c0,0.2,0.2,0.4,0.4,0.4c0.2,0,0.4-0.2,0.4-0.4s-0.2-0.4-0.4-0.4C104.2,55.4,104,55.6,104,55.8L104,55.8z M120.9,57.1
		c-0.8,0-1.4-0.6-1.4-1.4l1,0c0,0.1,0,0.2,0.1,0.3c0.1,0.1,0.1,0.1,0.3,0.1c0.2,0,0.4-0.2,0.4-0.4c0-0.2-0.2-0.4-0.4-0.4
		c0,0,0,0,0,0c-0.1,0-0.2,0-0.3,0.1c-0.1,0.1-0.1,0.2-0.1,0.3l-1,0c0-0.4,0.1-0.7,0.4-1s0.6-0.4,1-0.4c0.8,0,1.4,0.6,1.4,1.4
		C122.3,56.4,121.7,57,120.9,57.1C120.9,57.1,120.9,57.1,120.9,57.1z M112.6,56.8C112.6,56.8,112.6,56.8,112.6,56.8l0-1
		c0.2,0,0.3-0.1,0.4-0.2c0.1-0.1,0.2-0.3,0.2-0.4c0-0.3-0.3-0.6-0.6-0.6c0,0,0,0,0,0c-0.3,0-0.6,0.3-0.6,0.6c0,0.3,0.3,0.6,0.6,0.6
		L112.6,56.8c-0.9,0-1.6-0.7-1.6-1.6c0-0.9,0.7-1.6,1.6-1.6c0,0,0,0,0,0c0.9,0,1.6,0.7,1.6,1.6C114.2,56.1,113.5,56.8,112.6,56.8z
		 M100.1,56.7c-0.6,0-1-0.5-1-1c0-0.3,0.1-0.6,0.3-0.8s0.5-0.3,0.7-0.3l0,1c0,0-0.1,0-0.1,0.1l0,0l0.1,0.1l-0.1-1.1
		c0.6,0,1,0.4,1.1,0.9c0.1,0.6-0.3,1.1-0.9,1.2L100.1,56.7C100.1,56.7,100.1,56.7,100.1,56.7z M125.3,56.7c-0.7,0-1.1-0.5-1.1-1
		c0-0.6,0.5-1.1,1.1-1.1l0,0.9v-0.9c0.7,0,1.1,0.5,1.1,1C126.4,56.1,125.9,56.6,125.3,56.7C125.3,56.7,125.3,56.7,125.3,56.7z
		 M125.2,55.6L125.2,55.6L125.2,55.6l0.2,0L125.2,55.6C125.2,55.5,125.2,55.6,125.2,55.6L125.2,55.6z M117,56.1
		C117,56.1,117,56.1,117,56.1c-0.4,0-0.8-0.2-1.1-0.5c-0.3-0.3-0.5-0.7-0.5-1.1c0-0.9,0.7-1.6,1.6-1.6c0,0,0,0,0,0l0,1
		c-0.4,0-0.6,0.3-0.6,0.6c0,0.3,0.3,0.6,0.6,0.6c0,0,0,0,0,0c0.3,0,0.6-0.3,0.6-0.6c0-0.3-0.3-0.6-0.6-0.6l0-1
		c0.9,0,1.6,0.7,1.6,1.6c0,0.4-0.2,0.8-0.5,1.1C117.8,55.9,117.4,56.1,117,56.1z M108.2,56.1c-0.9,0-1.6-0.7-1.6-1.6
		s0.7-1.6,1.6-1.6c0.9,0,1.6,0.7,1.6,1.6S109.1,56.1,108.2,56.1z M108.2,53.9c-0.3,0-0.6,0.3-0.6,0.6s0.3,0.6,0.6,0.6
		s0.6-0.3,0.6-0.6S108.6,53.9,108.2,53.9z M129.9,55.4c-0.4,0-0.8-0.3-0.8-0.7c0-0.4,0.3-0.8,0.7-0.9c0.5,0,0.8,0.3,0.9,0.7
		C130.8,55,130.5,55.3,129.9,55.4L129.9,55.4C130,55.4,130,55.4,129.9,55.4z M129.9,54.4c-0.1,0-0.2,0.1-0.2,0.2
		c0,0.1,0.1,0.2,0.2,0.2c0,0,0,0,0,0L129.9,54.4z M129.9,54.4C129.9,54.4,129.9,54.4,129.9,54.4l0,0.4c0.1,0,0.2-0.1,0.2-0.2
		C130.1,54.5,130,54.4,129.9,54.4z M95.4,55.3L95.4,55.3c-0.4,0-0.8-0.3-0.9-0.7c0-0.4,0.3-0.8,0.7-0.9c0.2,0,0.4,0.1,0.6,0.2
		c0.2,0.1,0.3,0.3,0.3,0.5c0,0.2-0.1,0.4-0.2,0.6C95.8,55.2,95.6,55.3,95.4,55.3z M95.4,54.7L95.4,54.7L95.4,54.7
		c0.1,0,0.2-0.1,0.2-0.2c0-0.1-0.1-0.2-0.2-0.2l0,0c-0.1,0-0.1,0-0.1,0.1c0,0-0.1,0.1,0,0.1C95.2,54.7,95.3,54.7,95.4,54.7
		C95.4,54.7,95.4,54.7,95.4,54.7z M120.8,53.9C120.8,53.9,120.8,53.9,120.8,53.9c-0.9,0-1.6-0.8-1.6-1.7c0-0.9,0.7-1.6,1.6-1.6v0
		c0.9,0,1.7,0.8,1.6,1.6c0,0.5-0.2,0.9-0.5,1.2C121.6,53.7,121.2,53.9,120.8,53.9z M120.8,51.7c-0.3,0-0.6,0.3-0.6,0.6
		c0,0.3,0.3,0.6,0.6,0.6c0.2,0,0.3-0.1,0.4-0.2c0.1-0.1,0.2-0.3,0.2-0.4C121.4,52,121.2,51.7,120.8,51.7L120.8,51.7
		C120.8,51.7,120.8,51.7,120.8,51.7z M104.5,53.8C104.5,53.8,104.4,53.8,104.5,53.8c-0.9,0-1.6-0.7-1.6-1.6c0-0.9,0.7-1.6,1.6-1.6
		c0,0,0,0,0,0l0,1c0,0,0,0,0,0c-0.3,0-0.6,0.3-0.6,0.6c0,0.2,0.1,0.3,0.2,0.4c0.1,0.1,0.3,0.1,0.4,0.2c0.3,0,0.6-0.3,0.6-0.6
		c0-0.2-0.1-0.3-0.2-0.4c-0.1-0.1-0.3-0.2-0.4-0.2l0-1c0.4,0,0.8,0.2,1.1,0.5c0.3,0.3,0.5,0.7,0.5,1.1
		C106.1,53.1,105.3,53.8,104.5,53.8z M125.2,53.6c-0.8,0-1.4-0.6-1.4-1.4v0c0-0.4,0.1-0.7,0.4-1c0.3-0.3,0.6-0.4,1-0.4
		c0.8,0,1.4,0.6,1.4,1.4S126,53.6,125.2,53.6z M125.2,51.8c-0.1,0-0.2,0-0.3,0.1s-0.1,0.2-0.1,0.3l-0.5,0h0.5c0,0.2,0.2,0.4,0.4,0.4
		s0.4-0.2,0.4-0.4S125.5,51.8,125.2,51.8C125.2,51.8,125.2,51.8,125.2,51.8z M100.1,53.5C100.1,53.5,100.1,53.5,100.1,53.5
		c-0.4,0-0.7-0.1-1-0.4c-0.3-0.3-0.4-0.6-0.4-1l1,0c0,0.1,0,0.2,0.1,0.3c0.1,0.1,0.2,0.1,0.3,0.1c0.1,0,0.2,0,0.3-0.1
		c0.1-0.1,0.1-0.2,0.1-0.3c0-0.2-0.1-0.4-0.4-0.4c-0.1,0-0.2,0-0.3,0.1c-0.1,0.1-0.1,0.2-0.1,0.3l-1,0c0-0.8,0.6-1.4,1.4-1.4
		c0.8,0,1.4,0.6,1.4,1.4c0,0.4-0.1,0.7-0.4,1C100.8,53.4,100.4,53.5,100.1,53.5z M95.7,52c-0.6,0-1-0.4-1.1-0.9c0-0.3,0-0.6,0.2-0.8
		c0.2-0.2,0.4-0.4,0.7-0.4l0.1,0.7l0-0.7c0.5,0,1,0.4,1.1,0.9C96.8,51.4,96.4,51.9,95.7,52C95.8,52,95.8,52,95.7,52z M95.7,50.9
		C95.7,50.9,95.7,50.9,95.7,50.9L95.7,50.9L95.7,50.9z M129.7,52c-0.6,0-1-0.4-1.1-0.9c-0.1-0.6,0.3-1.1,0.9-1.2l0.1,0.6l0-0.6
		c0.5,0,1,0.4,1,0.9C130.8,51.4,130.4,51.9,129.7,52C129.8,52,129.7,52,129.7,52z M129.6,50.9C129.6,50.9,129.6,50.9,129.6,50.9
		L129.6,50.9z M101.5,50.5C101.5,50.5,101.5,50.5,101.5,50.5c-0.4,0-0.9-0.2-1.2-0.5s-0.5-0.7-0.5-1.1s0.2-0.8,0.5-1.1
		c0.3-0.3,0.7-0.5,1.1-0.5c0,0,0,0,0,0v0c0.9,0,1.6,0.7,1.6,1.6c0,0.5-0.2,0.9-0.5,1.2C102.3,50.4,101.9,50.5,101.5,50.5z
		 M101.5,48.3c-0.2,0-0.3,0.1-0.4,0.2c-0.1,0.1-0.2,0.3-0.2,0.4s0.1,0.3,0.2,0.4c0.1,0.1,0.3,0.2,0.4,0.2c0.2,0,0.3-0.1,0.4-0.2
		c0.1-0.1,0.2-0.3,0.2-0.4C102.1,48.6,101.8,48.3,101.5,48.3L101.5,48.3C101.5,48.3,101.5,48.3,101.5,48.3z M123.7,50.5
		c-0.9,0-1.6-0.7-1.6-1.6c0-0.4,0.2-0.8,0.5-1.1c0.3-0.3,0.7-0.5,1.1-0.5c0,0,0,0,0,0c0.4,0,0.8,0.2,1.1,0.5
		c0.3,0.3,0.4,0.6,0.5,0.9l0,0l0,0.2C125.3,49.8,124.6,50.5,123.7,50.5z M123.7,48.3C123.7,48.3,123.7,48.3,123.7,48.3
		c-0.3,0-0.6,0.3-0.6,0.6c0,0.3,0.3,0.6,0.6,0.6c0.3,0,0.6-0.3,0.6-0.6v0c0-0.2-0.1-0.3-0.2-0.4C124,48.4,123.9,48.3,123.7,48.3z
		 M133.6,50.4L133.6,50.4c-0.4,0-0.8-0.3-0.8-0.7c0-0.4,0.3-0.8,0.7-0.9l0.1,0c0.4,0,0.8,0.4,0.8,0.8
		C134.4,50.1,134,50.4,133.6,50.4z M133.5,49.8l0,0.3L133.5,49.8C133.6,49.8,133.6,49.8,133.5,49.8c0.1,0,0.2-0.1,0.2-0.2
		c0-0.1-0.1-0.2-0.2-0.2l0,0c-0.1,0-0.1,0.1-0.1,0.2C133.4,49.7,133.4,49.8,133.5,49.8z M91.7,50.4v-0.6c0.1,0,0.1,0,0.2-0.1
		c0,0,0-0.1,0-0.2c0-0.1-0.1-0.2-0.2-0.2v0c-0.1,0-0.2,0.1-0.2,0.2c0,0.1,0.1,0.2,0.2,0.2L91.7,50.4c-0.4,0-0.7-0.3-0.8-0.7
		c0-0.2,0-0.4,0.1-0.6s0.3-0.3,0.5-0.3l0.2,0c0.4,0,0.8,0.4,0.8,0.8C92.5,50.1,92.1,50.4,91.7,50.4z M20.4,47.9h-12l1-2.6h10.5
		c0.5,0,0.8-0.4,0.9-0.8v-0.3c0-0.5-0.5-0.9-0.9-0.8l-7.5,0c-2.4,0-3.7-1.7-3.7-3.3v-0.7c0-1.5,1.2-3.2,3.6-3.3h12.1l-1,2.6H12.8
		c-0.5,0-0.8,0.4-0.8,0.8v0.3c0,0.3,0.1,0.5,0.3,0.6c0.2,0.1,0.4,0.2,0.6,0.2l7.5,0c0,0,0,0,0,0h0c2.4,0,3.6,1.7,3.6,3.3v0.7
		C24,46.3,22.7,47.9,20.4,47.9z M9.8,46.9h10.6c1.8,0,2.6-1.2,2.6-2.2V44c0-1.1-0.9-2.3-2.7-2.3h-7.4c-1,0.1-1.9-0.7-2-1.7
		c0-0.1,0-0.1,0-0.2l0-0.3c0-1,0.8-1.8,1.9-1.8h9.8l0.2-0.6H12.2c-1.8,0-2.6,1.2-2.6,2.3v0.7c0,1.1,0.8,2.3,2.7,2.3h7.4
		c1-0.1,1.9,0.7,2,1.7c0,0.1,0,0.1,0,0.2l0,0.3c0,1-0.9,1.8-1.9,1.8H10L9.8,46.9z M81.2,47.9H69.3V36.1h3.4v9.2h9.4L81.2,47.9z
		 M70.3,46.9h10.2l0.2-0.6h-9v-9.2h-1.4V46.9z M156,47.9h-3.4v-9.2h-7.1l1-2.6h16.7l-0.9,2.6H156V47.9z M153.6,46.9h1.4v-9.2h6.4
		l0.2-0.6h-14.5l-0.2,0.6h6.7V46.9z M99.2,47.9H87.3V36.1h3.4v9.2h9.4L99.2,47.9z M88.3,46.9h10.2l0.2-0.6h-9v-9.2h-1.4V46.9z
		 M62.3,47.9H49.8V36.1h13.5l-1,2.6h-9.1v2h7.7l-1,2.6h-6.7v2h10.1L62.3,47.9z M50.8,46.9h10.8l0.2-0.6h-9.6v-4h7l0.2-0.6h-7.3v-4
		h9.4l0.2-0.6h-11V46.9z M38.6,47.9h-3.4v-9.2h-7.1l0.9-2.6h16.7l-1,2.6h-6.1V47.9z M36.2,46.9h1.4v-9.2H44l0.2-0.6H29.7l-0.2,0.6
		h6.7V46.9z M187.8,47.9h-12l1-2.6h10.5c0.5,0,0.8-0.4,0.9-0.8v-0.3c0-0.3-0.1-0.5-0.3-0.6c-0.2-0.1-0.4-0.2-0.6-0.2l-7.5,0
		c-2.4,0-3.7-1.7-3.7-3.3v-0.7c0-1.6,1.3-3.2,3.6-3.2h12l-1,2.6h-10.5c-0.5,0-0.9,0.4-0.9,0.8v0.3c0,0.3,0.1,0.5,0.3,0.7
		c0.2,0.1,0.4,0.2,0.6,0.2l7.5,0c2.4,0,3.7,1.7,3.7,3.3v0.7C191.4,46.3,190.1,47.9,187.8,47.9z M177.2,46.9h10.6
		c1.8,0,2.6-1.2,2.6-2.2V44c0-1.1-0.9-2.3-2.7-2.3v0h-7.4c-0.4,0-0.9-0.1-1.3-0.4s-0.6-0.8-0.7-1.3c0-0.1,0-0.1,0-0.2l0-0.3
		c0-1,0.8-1.8,1.8-1.8c0,0,0,0,0,0l9.8,0l0.2-0.6h-10.6c-1.8,0-2.6,1.2-2.6,2.2v0.7c0,1.1,0.8,2.3,2.7,2.3h7.4
		c0.5,0,0.9,0.1,1.3,0.4c0.4,0.3,0.6,0.8,0.7,1.3c0,0.1,0,0.1,0,0.2l0,0.3c0,0.5-0.2,1-0.6,1.3s-0.8,0.5-1.3,0.5h-9.7L177.2,46.9z
		 M170.4,47.8H167V36.1h3.4V47.8z M168,46.8h1.4v-9.7H168V46.8z M141.7,47.8h-3.1l-9.5-7.5v7.5h-3.4V36.2h3.1l9.5,7.4l0-7.5h3.4
		V47.8z M139,46.8h1.7v-9.7h-1.4l0,8.5l-10.8-8.5h-1.8v9.7h1.4v-8.6L139,46.8z M122.1,47.8h-3.7l-5.7-10.5l-5.7,10.5h-3.7l6.4-11.7
		h2.5l0,0l3.7,0L122.1,47.8z M118.9,46.8h1.5l-5.3-9.7l-1.4,0L118.9,46.8z M104.8,46.8h1.5l5.3-9.7h-1.5L104.8,46.8z M131.9,46.5
		c-0.5,0-1-0.4-1.1-1c0-0.3,0.1-0.6,0.2-0.8c0.2-0.2,0.4-0.4,0.7-0.4c0.3,0,0.6,0.1,0.8,0.2c0.2,0.2,0.4,0.4,0.4,0.7
		c0,0.3-0.1,0.6-0.2,0.8C132.5,46.3,132.2,46.5,131.9,46.5C131.9,46.5,131.9,46.5,131.9,46.5z M131.9,45.4
		C131.8,45.4,131.8,45.4,131.9,45.4L131.9,45.4L131.9,45.4z M96.2,43.9C96.2,43.9,96.2,43.9,96.2,43.9c-0.4,0-0.7-0.1-1-0.4
		c-0.3-0.3-0.4-0.6-0.4-1c0-0.8,0.6-1.4,1.4-1.4v0c0.8,0,1.4,0.6,1.4,1.4c0,0.4-0.1,0.7-0.4,1C96.9,43.8,96.6,43.9,96.2,43.9z
		 M96.2,42.2c-0.1,0-0.2,0-0.3,0.1c-0.1,0.1-0.1,0.2-0.1,0.3s0,0.2,0.1,0.3c0.1,0.1,0.2,0.1,0.3,0.1c0.1,0,0.2,0,0.3-0.1
		s0.1-0.2,0.1-0.3C96.6,42.3,96.4,42.2,96.2,42.2l0-0.5L96.2,42.2C96.2,42.2,96.2,42.2,96.2,42.2z M100.3,41.8
		C100.3,41.8,100.3,41.8,100.3,41.8L100.3,41.8c-0.9,0-1.6-0.7-1.6-1.6c0-0.4,0.2-0.8,0.5-1.1c0.3-0.3,0.7-0.5,1.1-0.5c0,0,0,0,0,0
		c0.4,0,0.8,0.2,1.1,0.5c0.3,0.3,0.5,0.7,0.5,1.1C101.9,41.1,101.2,41.8,100.3,41.8z M100.3,39.6c-0.2,0-0.3,0.1-0.4,0.2
		c-0.1,0.1-0.2,0.3-0.2,0.4c0,0.3,0.3,0.6,0.6,0.6v0.5l0-0.5c0,0,0,0,0,0c0.3,0,0.6-0.3,0.6-0.6c0-0.2-0.1-0.3-0.2-0.4
		C100.6,39.7,100.5,39.6,100.3,39.6z M93.3,41.1c-0.6,0-1-0.4-1.1-0.9c-0.1-0.6,0.3-1.1,0.9-1.2l0.1,0.6l0-0.6c0.5,0,1,0.4,1.1,0.9
		c0,0.3,0,0.6-0.2,0.8C93.9,41,93.6,41.1,93.3,41.1C93.3,41.1,93.3,41.1,93.3,41.1z M93.2,40.1C93.2,40.1,93.2,40.1,93.2,40.1
		L93.2,40.1z M97.3,38.8C97.3,38.8,97.3,38.8,97.3,38.8c-0.8,0-1.4-0.6-1.4-1.4c0-0.4,0.1-0.7,0.4-1c0.3-0.3,0.6-0.4,1-0.4l0,1
		c-0.1,0-0.2,0-0.3,0.1c-0.1,0.1-0.1,0.2-0.1,0.3s0,0.2,0.1,0.3c0.1,0.1,0.2,0.1,0.3,0.1c0.2,0,0.4-0.2,0.4-0.4
		c0-0.2-0.2-0.4-0.4-0.4l0-1c0.7,0,1.3,0.7,1.3,1.4C98.7,38.2,98,38.8,97.3,38.8z M123.7,37.7C123.7,37.7,123.7,37.7,123.7,37.7
		c-0.9,0-1.6-0.7-1.6-1.6s0.7-1.6,1.6-1.6c0.9,0,1.6,0.7,1.6,1.6v0c0,0.4-0.2,0.8-0.5,1.1C124.6,37.5,124.2,37.7,123.7,37.7z
		 M123.7,35.5c-0.3,0-0.6,0.3-0.6,0.6c0,0.3,0.3,0.6,0.6,0.6c0,0,0,0,0,0c0.2,0,0.3-0.1,0.4-0.2c0.1-0.1,0.2-0.3,0.2-0.4l0.5,0h-0.5
		C124.3,35.7,124.1,35.5,123.7,35.5z M101.5,37.7C101.5,37.7,101.5,37.7,101.5,37.7L101.5,37.7c-0.5,0-0.9-0.2-1.2-0.5
		c-0.3-0.3-0.5-0.7-0.5-1.1c0-0.5,0.2-0.9,0.5-1.2c0.3-0.3,0.8-0.4,1.2-0.4c0.4,0,0.8,0.2,1.1,0.5c0.3,0.3,0.4,0.7,0.4,1.2
		C103.1,37,102.4,37.7,101.5,37.7z M101.5,36.7C101.5,36.7,101.5,36.7,101.5,36.7c0.3,0,0.6-0.3,0.6-0.6c0-0.2,0-0.3-0.2-0.4
		c-0.1-0.1-0.3-0.2-0.4-0.2c-0.2,0-0.3,0.1-0.4,0.2c-0.1,0.1-0.2,0.3-0.2,0.4c0,0.2,0.1,0.3,0.2,0.4
		C101.2,36.6,101.4,36.7,101.5,36.7L101.5,36.7z M133.6,37.7L133.6,37.7c-0.4,0-0.8-0.3-0.9-0.7c0-0.4,0.3-0.8,0.7-0.9
		c0.2,0,0.4,0.1,0.6,0.2c0.2,0.1,0.3,0.3,0.3,0.5C134.4,37.3,134,37.6,133.6,37.7z M133.6,37.1L133.6,37.1L133.6,37.1
		c0.1,0,0.2-0.1,0.2-0.2c0-0.1-0.1-0.2-0.2-0.2v0c-0.1,0-0.2,0.1-0.2,0.2C133.3,37,133.5,37.1,133.6,37.1L133.6,37.1z M95.7,35.1
		c-0.6,0-1.1-0.5-1.1-1l0,0c0-0.6,0.4-1.1,1-1.1c0.7,0,1.2,0.5,1.2,1C96.8,34.6,96.3,35.1,95.7,35.1z M94.8,34.1h0.8c0,0,0,0,0,0
		l0.6-0.1l-0.5,0L95.7,34L94.8,34.1z M129.6,35.1C129.5,35.1,129.5,35.1,129.6,35.1c-0.6,0-1.1-0.5-1.1-1.1c0-0.6,0.5-1,1.1-1l0,0
		c0.3,0,0.6,0.2,0.7,0.4c0.2,0.2,0.3,0.5,0.2,0.8C130.6,34.7,130.1,35.1,129.6,35.1z M129.5,34C129.5,34,129.5,34,129.5,34L129.5,34
		l0-0.5L129.5,34C129.6,34,129.5,34,129.5,34z M120.8,34.4c-0.9,0-1.6-0.7-1.6-1.6c0-0.4,0.2-0.8,0.5-1.1c0.3-0.3,0.7-0.5,1.1-0.5
		c0,0,0,0,0,0c0.4,0,0.8,0.2,1.1,0.5c0.3,0.3,0.5,0.7,0.5,1.1v0C122.4,33.7,121.7,34.4,120.8,34.4z M120.8,32.2
		C120.8,32.2,120.8,32.2,120.8,32.2c-0.3,0-0.6,0.3-0.6,0.6c0,0.3,0.3,0.6,0.6,0.6c0.3,0,0.6-0.3,0.6-0.6l0.5,0l-0.5,0
		c0-0.2-0.1-0.3-0.2-0.4C121.1,32.2,121,32.2,120.8,32.2z M104.4,34.4C104.4,34.4,104.4,34.4,104.4,34.4l0-1c0,0,0,0,0,0
		c0.3,0,0.6-0.3,0.6-0.6c0-0.3-0.3-0.6-0.6-0.6c0,0,0,0,0,0c-0.3,0-0.6,0.3-0.6,0.6c0,0.3,0.3,0.6,0.6,0.6L104.4,34.4
		c-0.9,0-1.6-0.7-1.6-1.6s0.7-1.6,1.6-1.6c0,0,0,0,0,0c0.4,0,0.8,0.2,1.1,0.5c0.3,0.3,0.5,0.7,0.5,1.1
		C106.1,33.7,105.3,34.4,104.4,34.4z M100.1,34.2C100.1,34.2,100.1,34.2,100.1,34.2c-0.8,0-1.4-0.6-1.4-1.4c0-0.4,0.1-0.7,0.4-1
		c0.3-0.3,0.6-0.4,1-0.4c0,0,0,0,0,0l0,0.5l0-0.5c0.7,0,1.4,0.6,1.4,1.4C101.5,33.6,100.9,34.2,100.1,34.2z M100.1,32.4
		c-0.1,0-0.2,0-0.3,0.1c-0.1,0.1-0.1,0.2-0.1,0.3c0,0.2,0.2,0.4,0.4,0.4c0,0,0,0,0,0c0.2,0,0.4-0.2,0.4-0.4
		C100.5,32.6,100.3,32.4,100.1,32.4L100.1,32.4z M125.2,34.2c-0.8,0-1.4-0.6-1.4-1.4v0c0-0.8,0.6-1.4,1.4-1.4c0.8,0,1.4,0.6,1.4,1.4
		C126.6,33.5,125.9,34.2,125.2,34.2C125.2,34.2,125.2,34.2,125.2,34.2z M124.8,32.8c0,0.1,0,0.2,0.1,0.3s0.2,0.1,0.3,0.1
		c0,0,0,0,0,0c0.1,0,0.2,0,0.3-0.1c0.1-0.1,0.1-0.2,0.1-0.3c0-0.2-0.2-0.4-0.4-0.4C125,32.4,124.8,32.6,124.8,32.8l-0.5,0
		L124.8,32.8z M117.1,32.1c-0.9,0-1.6-0.7-1.6-1.6c0-0.9,0.7-1.6,1.6-1.6c0,0,0,0,0,0c0.9,0,1.6,0.7,1.6,1.6v0
		C118.7,31.4,118,32.1,117.1,32.1z M117.1,29.9c-0.1,0-0.3,0.1-0.4,0.2c-0.1,0.1-0.2,0.3-0.2,0.4c0,0.3,0.3,0.6,0.6,0.6
		c0.3,0,0.6-0.3,0.6-0.6l0.5,0l-0.5,0c0-0.2-0.1-0.3-0.2-0.4C117.4,29.9,117.2,29.9,117.1,29.9z M108.2,32.1
		C108.2,32.1,108.2,32.1,108.2,32.1l0-1c0.2,0,0.3-0.1,0.4-0.2c0.1-0.1,0.2-0.3,0.2-0.4c0-0.3-0.3-0.6-0.6-0.6
		c-0.2,0-0.3,0.1-0.4,0.2c-0.1,0.1-0.2,0.3-0.2,0.4c0,0.3,0.3,0.6,0.6,0.6L108.2,32.1c-0.9,0-1.6-0.7-1.6-1.6c0-0.4,0.2-0.8,0.5-1.1
		c0.3-0.3,0.7-0.5,1.1-0.5c0,0,0,0,0,0c0.9,0,1.6,0.7,1.6,1.6c0,0.4-0.2,0.8-0.5,1.1C109,31.9,108.6,32.1,108.2,32.1z M112.6,31.4
		C112.6,31.4,112.6,31.4,112.6,31.4l0-1c0,0,0,0,0,0c0.3,0,0.6-0.3,0.6-0.6c0-0.3-0.3-0.6-0.6-0.6c0,0,0,0,0,0
		c-0.3,0-0.6,0.3-0.6,0.6c0,0.3,0.3,0.6,0.6,0.6L112.6,31.4c-0.9,0-1.6-0.7-1.6-1.6c0-0.4,0.2-0.8,0.5-1.1c0.3-0.3,0.7-0.5,1.1-0.5
		c0,0,0,0,0,0c0.4,0,0.8,0.2,1.1,0.5c0.3,0.3,0.5,0.7,0.5,1.1s-0.2,0.8-0.5,1.1C113.5,31.3,113.1,31.4,112.6,31.4z M129.9,31.3
		c0,0-0.1,0-0.1,0c-0.5-0.1-0.7-0.5-0.6-0.9c0-0.2,0.1-0.4,0.3-0.5c0.2-0.1,0.4-0.2,0.6-0.2l0.1,0c0.2,0,0.3,0.1,0.4,0.3
		c0.1,0.2,0.2,0.4,0.2,0.6l0,0v0.1C130.6,31,130.2,31.3,129.9,31.3z M129.9,30.6l0,0.1c0,0,0.1,0,0.1,0c0,0,0,0,0.1-0.1L129.9,30.6z
		 M129.7,30.6C129.7,30.6,129.7,30.6,129.7,30.6L129.7,30.6L129.7,30.6z M129.7,30.4c0,0,0,0.1,0,0.1l0,0L129.7,30.4l0.2,0.1l0.1,0
		l0.1,0c0,0,0,0,0,0l0.1,0l-0.1,0c0,0,0,0,0,0c0-0.1-0.1-0.2-0.2-0.2c0,0,0,0,0,0l0,0.2L129.7,30.4l0.2-0.1
		C129.7,30.3,129.7,30.4,129.7,30.4L129.7,30.4L129.7,30.4z M95.4,31.2L95.4,31.2c-0.4,0-0.8-0.3-0.9-0.7c0-0.2,0.1-0.4,0.2-0.6
		c0.1-0.2,0.3-0.3,0.5-0.3c0.2,0,0.4,0.1,0.6,0.2c0.2,0.1,0.3,0.3,0.3,0.5c0,0.2-0.1,0.4-0.2,0.6C95.9,31.1,95.7,31.2,95.4,31.2z
		 M95.4,30.6L95.4,30.6L95.4,30.6c0.1,0,0.2-0.1,0.2-0.2c0-0.1-0.1-0.2-0.2-0.2l0,0c-0.1,0-0.1,0-0.1,0.1c0,0-0.1,0.1,0,0.1
		C95.2,30.5,95.3,30.7,95.4,30.6C95.4,30.6,95.4,30.6,95.4,30.6z M104.3,30.7C104.3,30.7,104.3,30.7,104.3,30.7
		c-0.4,0-0.7-0.1-1-0.4c-0.3-0.3-0.4-0.6-0.4-1s0.1-0.7,0.4-1c0.3-0.3,0.6-0.4,1-0.4l0,0.5l0-0.5c0.7,0,1.4,0.6,1.4,1.4
		c0,0.4-0.1,0.7-0.4,1C105,30.6,104.7,30.7,104.3,30.7z M104.3,29c-0.1,0-0.2,0-0.3,0.1c-0.1,0.1-0.1,0.2-0.1,0.3
		c0,0.1,0,0.2,0.1,0.3c0.1,0.1,0.2,0.1,0.3,0.1c0,0,0,0,0,0c0.1,0,0.2,0,0.3-0.1c0.1-0.1,0.1-0.2,0.1-0.3
		C104.7,29.1,104.5,29,104.3,29L104.3,29z M120.9,30.7c-0.8,0-1.4-0.6-1.4-1.4h1c0,0.2,0.2,0.4,0.4,0.4s0.4-0.2,0.4-0.4
		s-0.2-0.4-0.4-0.4c-0.2,0-0.4,0.2-0.4,0.4h-1c0-0.8,0.6-1.4,1.4-1.4c0.8,0,1.4,0.6,1.4,1.4C122.3,30.1,121.7,30.7,120.9,30.7z
		 M125.1,30.5C125.1,30.5,125.1,30.5,125.1,30.5l-0.2,0c-0.6-0.1-1-0.7-0.9-1.2c0.1-0.6,0.7-1,1.2-0.9c0.6,0,1,0.6,0.9,1.1l0,0
		c0,0.3-0.2,0.5-0.4,0.7C125.6,30.4,125.4,30.5,125.1,30.5z M125.1,29.3l-0.1,0l0,0.6l0.1-0.5L125.1,29.3L125.1,29.3
		C125.2,29.4,125.2,29.3,125.1,29.3z M100.1,30.4L100.1,30.4c-0.6,0-1-0.4-1.1-1c0-0.6,0.4-1.1,1-1.1c0.6,0,1.1,0.4,1.1,1
		C101.2,29.9,100.7,30.4,100.1,30.4L100.1,30.4z M100.1,29.4L100.1,29.4C100.1,29.4,100.1,29.4,100.1,29.4z M109.9,28.9
		C109.9,28.9,109.9,28.9,109.9,28.9c-0.8,0-1.4-0.6-1.4-1.4c0-0.8,0.6-1.4,1.4-1.4c0,0,0,0,0,0v0c0.8,0,1.4,0.6,1.4,1.4
		C111.2,28.2,110.6,28.9,109.9,28.9z M109.9,27.1c-0.1,0-0.2,0-0.3,0.1c-0.1,0.1-0.1,0.2-0.1,0.3c0,0.2,0.2,0.4,0.4,0.4c0,0,0,0,0,0
		c0.1,0,0.2,0,0.3-0.1c0.1-0.1,0.1-0.2,0.1-0.3C110.2,27.3,110.1,27.1,109.9,27.1l0-0.5L109.9,27.1
		C109.9,27.1,109.9,27.1,109.9,27.1z M115.4,28.8c-0.8,0-1.4-0.6-1.4-1.4s0.6-1.4,1.4-1.4s1.4,0.6,1.4,1.4S116.1,28.8,115.4,28.8z
		 M115.4,27.1c-0.2,0-0.4,0.2-0.4,0.4s0.2,0.4,0.4,0.4s0.4-0.2,0.4-0.4S115.6,27.1,115.4,27.1z M119.5,27.6
		C119.4,27.6,119.4,27.6,119.5,27.6c-0.7-0.1-1.1-0.5-1.1-1.1c0-0.6,0.5-1,1.1-1c0.6,0,1,0.5,1,1.1l0,0.1
		C120.5,27.2,120,27.6,119.5,27.6z M119.5,26.5l-0.1,0.6l0-0.5L119.5,26.5C119.5,26.5,119.5,26.5,119.5,26.5z M119.5,26.5
		L119.5,26.5L119.5,26.5z M105.8,27.6c-0.5,0-1-0.4-1.1-0.9c-0.1-0.6,0.3-1.1,0.9-1.2c0.6,0,1.1,0.4,1.1,0.9
		C106.9,27,106.5,27.5,105.8,27.6l0-0.6L105.8,27.6z M105.8,26.5L105.8,26.5C105.8,26.5,105.8,26.5,105.8,26.5z M124,27.1
		C124,27.1,124,27.1,124,27.1c-0.5-0.1-0.8-0.4-0.8-0.8c0-0.5,0.3-0.8,0.8-0.8c0.3,0,0.5,0.1,0.6,0.3c0.1,0.2,0.2,0.4,0.2,0.6l0,0
		C124.8,26.7,124.4,27.1,124,27.1z M124,26.3l0,0.2c0.1,0,0.2-0.1,0.2-0.2l0,0l0,0c0,0,0,0,0,0c0-0.1-0.1-0.2-0.2-0.2c0,0,0,0,0,0
		L124,26.3l-0.2,0c0,0,0,0,0,0L124,26.3z M101.2,27.1c-0.4,0-0.8-0.3-0.8-0.7c0-0.4,0.3-0.8,0.7-0.9c0.4,0,0.8,0.3,0.9,0.7
		c0,0.2-0.1,0.4-0.2,0.6C101.7,26.9,101.5,27,101.2,27.1C101.3,27.1,101.3,27.1,101.2,27.1z M101.2,26.1c-0.1,0-0.1,0-0.1,0.1
		c0,0-0.1,0.1-0.1,0.2c0,0.1,0.1,0.2,0.2,0.2c0.1,0,0.2-0.1,0.2-0.2C101.4,26.1,101.3,26,101.2,26.1L101.2,26.1z M112.6,26.7
		C112.6,26.7,112.6,26.7,112.6,26.7c-0.6,0-1.1-0.5-1.1-1.1c0-0.3,0.1-0.6,0.3-0.8c0.2-0.2,0.5-0.3,0.8-0.3v0h0.1
		c0.2,0,0.5,0.1,0.7,0.3c0.2,0.2,0.3,0.5,0.3,0.8c0,0.3-0.1,0.6-0.3,0.8C113.2,26.6,112.9,26.7,112.6,26.7z M112.6,25.6
		C112.6,25.6,112.5,25.6,112.6,25.6c0,0.1,0,0.1,0,0.1l0,0c0,0,0.1,0,0.1-0.1L112.6,25.6L112.6,25.6z M112.6,25L112.6,25L112.6,25
		L112.6,25z M116.6,24.3C116.5,24.3,116.5,24.3,116.6,24.3c-0.5,0-0.8-0.4-0.8-0.9c0-0.4,0.4-0.8,0.9-0.7c0.4,0.1,0.7,0.4,0.7,0.8h0
		c0,0.3-0.1,0.5-0.3,0.6C116.9,24.3,116.7,24.3,116.6,24.3z M116.3,23.5c0,0.1,0.1,0.2,0.2,0.2c0.1,0,0.2-0.1,0.2-0.2c0,0,0,0,0,0
		l-0.3,0l0.3,0c0-0.1-0.1-0.2-0.2-0.2C116.5,23.3,116.4,23.4,116.3,23.5L116.3,23.5z M108.7,24.3c-0.4,0-0.7-0.3-0.8-0.7l0-0.1
		c0-0.4,0.3-0.8,0.7-0.9c0.5,0,0.8,0.3,0.9,0.7C109.5,23.9,109.2,24.3,108.7,24.3l0-0.6c0.1,0,0.2-0.1,0.2-0.2c0,0,0,0,0,0l-0.2,0
		l0,0.1l0-0.1l-0.2,0c0,0,0,0,0,0c0,0.1,0.1,0.2,0.2,0.2c0,0,0,0,0,0L108.7,24.3C108.7,24.3,108.7,24.3,108.7,24.3z M108.7,23.3
		c-0.1,0-0.2,0.1-0.2,0.2l0.2-0.1L108.7,23.3z M108.7,23.3C108.7,23.3,108.7,23.3,108.7,23.3l0,0.1l0.1-0.1
		C108.8,23.4,108.7,23.3,108.7,23.3z"/>
</g>
</svg>
