<?xml version="1.0" encoding="UTF-8"?><svg id="Layer_15" xmlns="http://www.w3.org/2000/svg" viewBox="0 0 200 85"><defs><style>.cls-1{fill:#565656;stroke-width:0px;}</style></defs><path class="cls-1" d="M10.11079,27.34507h6.33526v5.65204h4.56511v4.503h-4.56511v9.2855c0,1.95647.6211,2.32914,2.73286,2.32914h1.83226v4.59616h-4.03717c-5.1241,0-6.86319-.99377-6.86319-5.80732v-10.40348h-3.26079v-4.503h3.26079v-5.65203ZM42.50134,47.25143c-1.86331,4.90671-6.21104,7.01847-10.34137,7.01847-6.73897,0-11.36619-4.06823-11.36619-10.99353,0-6.64581,5.03094-10.83825,11.11775-10.83825,6.89425,0,11.11775,5.21727,10.68298,12.57735h-15.37231c.18633,2.95024,2.48441,4.28561,4.7825,4.28561,2.4223,0,3.94401-.86954,4.65828-2.0807l5.83837.03106ZM27.31536,41.16462h8.97495c-.12422-2.60863-1.92542-3.91295-4.34772-3.91295-2.29808,0-4.28561,1.18009-4.62722,3.91295ZM64.39524,40.60563h-5.90048c-.55899-2.4223-2.0807-3.26079-3.94401-3.26079-2.26703,0-4.503,1.55276-4.503,5.99364,0,4.503,2.23597,5.99364,4.503,5.99364,2.32914,0,3.78873-1.21115,4.25456-3.19868h5.90048c-1.42854,6.14892-6.39737,8.1054-10.55876,8.1054-6.83214,0-10.58981-4.37878-10.58981-10.99353s4.31667-10.83825,10.58981-10.83825c4.28561,0,9.006,1.95648,10.24821,8.19856ZM71.75532,35.76102c.9006-1.55276,3.16763-3.19868,6.42842-3.19868,5.31043,0,6.98741,3.13657,6.98741,8.75756v12.45313h-6.33526v-10.83825c0-2.95024-.09317-5.37254-3.16763-5.37254-2.73286,0-3.8819,1.77015-3.8819,5.65205v10.62087h-6.33526v-27.94966h6.33526l-.03105,9.87553ZM99.76708,39.11497c-.43477-1.55276-2.04964-1.98753-4.03717-1.98753-2.20492,0-3.29185.52794-3.29185,1.55276,0,.96271.74532,1.5217,2.54652,1.86331l3.8819.68322c4.96883.9006,7.36008,2.39125,7.36008,6.0247,0,4.65828-4.28562,7.01847-10.03082,7.01847-5.52782,0-9.44077-2.32914-10.15504-7.23585h5.90048c.55899,1.98753,2.17386,2.60863,4.34772,2.60863,2.26703,0,3.85084-.6211,3.85084-1.86331,0-.9006-.80744-1.5217-3.26079-1.92542l-3.69556-.6211c-4.00612-.65216-6.73897-2.67075-6.73897-6.33525,0-4.13034,4.34772-6.39737,9.47183-6.39737,4.72039,0,9.03706,1.89437,9.81344,6.64581l-5.96259-.03106ZM109.48735,27.34506h6.33525v5.65204h4.56511v4.50301h-4.56511v9.2855c0,1.95647.6211,2.32914,2.73286,2.32914h1.8012v4.59616h-4.00612c-5.1241,0-6.8632-.99377-6.8632-5.80732v-10.40348h-3.26079v-4.503h3.26079v-5.65204ZM134.85943,39.98452c0-2.48441-1.18009-3.29185-3.50923-3.29185-2.04964,0-3.41607,1.05587-3.69556,3.0434h-5.93154c.31055-3.91295,4.00612-7.36008,10.15505-7.36008,5.99364,0,9.37867,2.4223,9.25444,8.7265l-.09316,4.503v2.17386c0,2.26702.15528,4.72039.46583,5.99364h-6.24209l-.09316-2.51547c-1.55276,2.20492-4.00612,3.01236-6.98741,3.01236-3.94401,0-7.17375-2.29808-7.17375-6.08682,0-5.09305,5.74521-6.73898,13.7885-7.36008l.0621-.83847ZM135.04576,44.54964c-4.44089.43477-7.39113.86954-7.39113,3.16763,0,1.33537,1.27326,2.23598,2.91918,2.23598,2.54653,0,4.47194-1.08693,4.47194-4.90671v-.49689ZM155.6664,39.11498c-.55899-.09316-1.18009-.15528-1.73909-.12422-3.07446,0-4.65828,1.11799-4.65828,4.34772v10.40348h-6.36631v-20.74486h6.11787v3.94401c.96271-2.48441,2.7018-3.94401,5.65205-4.06823h.46583c.18633,0,.34161,0,.52794.03106v6.21104ZM169.70334,39.11498c-.43477-1.55276-2.04964-1.98753-4.03717-1.98753-2.20492,0-3.29185.52794-3.29185,1.55276,0,.96271.74532,1.5217,2.54653,1.86331l3.85084.68322c4.96883.9006,7.36008,2.39125,7.36008,6.0247,0,4.65828-4.28561,7.01847-10.03082,7.01847-5.49677,0-9.44077-2.32914-10.15505-7.23585h5.90048c.55899,1.98753,2.17386,2.60863,4.34772,2.60863,2.26702,0,3.85084-.6211,3.85084-1.86331,0-.9006-.80744-1.5217-3.26079-1.92542l-3.69556-.6211c-4.00612-.65216-6.70792-2.67075-6.70792-6.33525,0-4.13034,4.34772-6.39737,9.47183-6.39737,4.72039,0,9.03706,1.89437,9.81344,6.64581l-5.9626-.03106Z"/><path class="cls-1" d="M176.00754,59.11451v-5.34149h17.14246v5.34149h-17.14246Z"/></svg>