<?xml version="1.0" encoding="UTF-8"?><svg id="Layer_6" xmlns="http://www.w3.org/2000/svg" xmlns:xlink="http://www.w3.org/1999/xlink" viewBox="0 0 200 85"><defs><style>.cls-1{fill:#565656;}.cls-1,.cls-2,.cls-3{stroke-width:0px;}.cls-4{mask:url(#mask);}.cls-5{filter:url(#luminosity-noclip);}.cls-2{fill:#000;}.cls-3{fill:#fff;}</style><filter id="luminosity-noclip" x="93.7016" y="44.4193" width="15.32819" height="18.33048" color-interpolation-filters="sRGB" filterUnits="userSpaceOnUse"><feFlood flood-color="#fff" result="bg"/><feBlend in="SourceGraphic" in2="bg"/></filter><mask id="mask" x="93.7016" y="44.4193" width="15.32819" height="18.33048" maskUnits="userSpaceOnUse"><g class="cls-5"><path class="cls-2" d="M104.17585,54.61136l-.05699,2.16485c-.03732.15832-.3166,1.69106-1.77509,2.12479-2.66077.79126-3.55961-.71087-3.69595-1.35721-.44152-2.09312,1.35218-3.2085,5.52803-2.93243Z"/></g></mask></defs><path id="Base" class="cls-1" d="M134.67431,35.12129c-.02224-.37244-.06132-1.10294-.08748-1.61953-.02659-.51659-.06583-1.19942-.08791-1.51039-.02616-.31504-.08283-1.08985-.13122-1.72851-.04825-.63909-.09649-1.23909-.10957-1.335-.01307-.09663-.05217-.5211-.08734-.9412-.03517-.41996-.0744-.81405-.08748-.87523-.01307-.06132-.06132-.46442-.10956-.89745-.11335-1.04626-.25372-2.20136-.28438-2.33694-.01307-.06132-.06132-.41152-.10956-.77089-.21449-1.63652-.61235-3.91722-.95414-5.47078-.04824-.21913-.12656-.57341-.17481-.78789-.12264-.56032-.26737-1.12501-.31504-1.22557-.02209-.04825-.06132-.16625-.09198-.26273-.09649-.32362-.58242-1.4049-.70492-1.57579-.01773-.02616-.15723-.23163-.30661-.45919-.31054-.46835-1.10686-1.29998-1.58422-1.65019-.94512-.69591-1.99588-1.16875-3.35239-1.50138-.23379-.05715-.46727-.11562-.70041-.1754-.16188-.04766-.48607-.118-1.18198-.26229-.19717-.04135-.39412-.08373-.59085-.12715-.84471-.20547-3.59361-.65217-5.38344-.87973-.35936-.04373-.71349-.09198-.78789-.10899-.13166-.02673-.76624-.09198-2.05706-.21913-.35936-.03517-.85372-.08748-1.09436-.10956-.24064-.02616-.67426-.06539-.9627-.09198-.28903-.02151-.76174-.06132-1.05062-.08283-.98043-.08342-3.70274-.24064-5.20863-.30661-1.47755-.06447-3.58991-.10632-5.74809-.121-2.09368-.01424-4.23048-.0029-5.87266.03817h.00017c-2.00489.04765-3.47562.11813-6.17192.28437-1.24708.0744-2.60839.18397-3.56702.27987-.24064.02616-.74401.0744-1.11601.10957-.51847.05087-1.12032.11709-1.72879.18897-1.22533.14473-2.47748.31235-3.12949.42352-.20606.03517-.50802.08342-.67833.10957-.16638.02208-.46428.07425-.65681.10957-.1924.03516-.51645.09648-.72192.13107-.72265.12264-1.95215.3723-2.64806.53867-.19298.04825-.53867.13108-.76624.18397-.2277.05216-.43303.10041-.45919.10491-1.28297.30603-2.55665.92362-3.53694,1.72444-.95428.77481-1.80741,2.02654-2.23652,3.26956-.06975.19254-.14023.38944-.16173.43768-.05162.11544-.22341.82479-.40132,1.63152-.07852.35605-.15824.73107-.22934,1.08237-.03458.19239-.0959.47678-.13107.63459-.03532.15723-.08283.43303-.11364.61249-.02659.17932-.06132.39845-.08341.48128-.06583.24994-.33262,1.95665-.50352,3.19531-.16624,1.19942-.2758,2.07072-.37171,2.95452-.04824.43304-.09649.85765-.10506.94105-.01308.08283-.05275.50758-.09199.9412-.03516.43304-.08733.9627-.11407,1.18184-.09198.80489-.31969,4.31118-.43303,6.78427-.08749,1.83343-.1443,5.75981-.11364,7.90028.03066,2.66971.09591,5.05547.15723,5.88695.02224.33669.06583,1.04626.09198,1.57578.02616.52953.06132,1.20785.08341,1.50981.10056,1.51446.17947,2.50783.21856,2.82287.02224.19298.0744.70506.10956,1.13359.03517.42911.08749.9412.10957,1.1381.02616.19704.0744.6215.10899.9457.10956,1.0371.19298,1.71543.26288,2.16663.03517.24064.09649.65217.13107.91897.12715.9627.27581,1.89925.43769,2.75762.03517.19239.09198.51659.13165.72206.0744.43754.24515,1.30884.36779,1.86002.41996,1.93064.60393,2.50783,1.09843,3.45803.13558.26229.31054.56876.38944.67832.07425.10957.18382.2668.24064.35021.24965.37185.96329,1.09842,1.35724,1.37889.06524.04766.19239.1395.27522.20547.08806.06975.17088.12249.19298.12249.01758,0,.06132.03066.0959.06598.17089.16624,1.37481.73964,1.89083.89281.09649.03066.21463.06976.26288.09198.11407.05231.75708.21405,1.53204.38944.33713.07891.68283.16174.76581.18382.2014.05231,1.47058.30603,2.42935.48142.55118.10042,1.62403.2713,2.2977.36779.25386.03459.57791.08283.72221.10899.52952.09198,2.71824.34628,4.09247.47736.49451.04824,1.10294.10506,1.35665.13107.41153.04374.83163.07891,2.84495.2232.30196.02209.98945.06132,1.53205.08792.54275.02616,1.29998.06539,1.68535.08748,3.11626.17932,12.02762.17932,15.10014,0,.38537-.02616,1.1426-.06132,1.68534-.08748.93204-.04359,1.27368-.06583,2.73539-.1754,1.8731-.14415,4.62679-.41152,5.55883-.5426.2668-.03923.72657-.10055,1.02853-.14022,1.11601-.14415,2.64806-.37637,3.52328-.5381.95878-.1754,2.22795-.42911,2.4295-.48142.08283-.02209.42853-.10491.7658-.18382.75709-.17089,1.41391-.33713,1.5319-.38944.14543-.05244.29133-.10354.43769-.15331.35878-.118,1.54963-.68283,1.65004-.77932.03066-.03066.11814-.0959.19254-.14022.34163-.21405.49887-.33655.80998-.61701.3502-.31969.83613-.84457.95413-1.02403.03924-.06132.1443-.20998.23163-.32812.09198-.12249.16639-.23206.16639-.24964,0-.01773.07033-.14023.15315-.27145.08356-.13107.18397-.32405.22379-.42911.04359-.10041.08718-.20998.10491-.23148.08283-.10957.38944-.98087.52051-1.47537.20606-.76581.59085-2.57351.73107-3.42737.03517-.21856.0744-.42403.08748-.4592.03967-.09649.28045-1.59787.49887-3.12933.04824-.33713.09649-.67426.10956-.74416.03532-.20154.19254-1.54512.26288-2.2541.03458-.35021.08283-.75317.10899-.89746.02673-.14473.0744-.617.10956-1.05062.03517-.43304.08342-.96721.10507-1.18184.02616-.21856.06583-.71742.09183-1.11601.02616-.39845.06583-.88831.08748-1.09422.0266-.20562.0744-.96285.10957-1.68491.03967-.7225.08341-1.61095.10956-1.96959.19691-3.18223.19691-11.53327,0-14.81576Z"/><g id="Name"><rect class="cls-3" x="72.8722" y="44.92532" width="5.12057" height="17.42008"/><circle class="cls-3" cx="75.43248" cy="40.16353" r="3.01711"/><path class="cls-3" d="M87.59148,39.66002l-5.08991.85314v4.41217h-2.53907v3.89572h2.53456l.04844,8.03562c.03759,1.79092.42642,3.10517,1.55138,4.23678,1.77738,1.78789,4.68366,1.91356,7.6837,1.23046.03953-1.29707-.03953-2.54183,0-3.8389-1.72757.35896-3.12011.25457-3.7614-.66444-.13549-.19417-.3272-.55285-.3454-1.12658-.01857-2.62431-.03715-5.24862-.05572-7.87293h4.38092v-3.89572h-4.37685"/><g class="cls-4"><path class="cls-3" d="M94.59488,45.63431l-.03517,4.1057c4.24383-1.76473,7.93717-1.66327,9.1454.08143.23504.3394.45435.85408.45126,1.64875-1.52176-.16944-6.75557-.58139-9.36185,2.64604-.20556.25455-.39974.53788-.576.85392-.10592.20018-1.08689,2.47597-.03388,4.97348,1.22535,2.90628,6.02702,3.42522,8.2569,2.15305.83906-.47869,1.39867-1.09271,1.7474-1.56305.02194.60392.04389,1.20785.06583,1.81177h4.77501l-.0599-11.40301c-.04028-1.79343-.61176-2.91298-1.05504-3.55074-2.13867-3.07693-7.55028-3.94115-13.31996-1.75734Z"/></g><path class="cls-3" d="M111.55983,44.92531h5.12522l.04219,11.09163c.07924,1.16178.66027,2.65742,2.56649,2.62978,1.56583-.02271,2.5812-1.09979,2.67823-2.58466.01775-3.71225.03549-7.4245.05324-11.13675h5.12057v17.42022l-4.8888-.05682-.09605-1.78126c-1.61555,2.23187-4.61608,2.86086-7.35753,1.70685-1.99731-.84076-3.16575-3.04811-3.19555-5.3337-.016-3.9851-.032-7.9702-.048-11.9553Z"/><polygon class="cls-3" points="115.372 39.6032 115.372 42.56165 123.86312 42.56165 123.86312 38.14106 115.372 39.6032"/></g></svg>