<?xml version="1.0" encoding="UTF-8"?><svg id="Layer_4" xmlns="http://www.w3.org/2000/svg" viewBox="0 0 200 85"><defs><style>.cls-1{fill:#565656;stroke-width:0px;}</style></defs><path class="cls-1" d="M22.37636,47.95005v-1.70174h5.96206v2.1645c-.01785,1.09964.85911,2.00554,1.95875,2.02339.09069.00147.18138-.00325.27142-.01414,1.00008.13569,1.93723-.51785,2.15554-1.5032.15963-.54444.14606-1.12504-.03881-1.66144-1.1539-2.90192-9.03863-4.21554-10.04027-8.73859-.20392-.99362-.21659-2.017-.03732-3.01537.61502-3.63187,3.80653-4.9455,7.7683-4.9455,3.15419,0,7.5011.73443,7.5011,5.6038v1.58531h-5.53812v-1.39125c.06398-1.04919-.7347-1.9516-1.7839-2.01557-.09798-.00597-.19628-.00436-.29402.00483-.96871-.10666-1.85635.55012-2.03761,1.50768-.06225.38549-.04907.7794.03881,1.15987.65233,2.58844,9.07744,3.98118,10.00146,8.65798.23093,1.21208.24357,2.45565.03732,3.67218-.53889,3.70801-3.84683,5.09925-7.84592,5.09925-4.19763,0-8.07879-1.50768-8.07879-6.49199ZM94.61376,47.87392v-1.70174h5.88593v2.12568c-.03548,1.08106.81214,1.9862,1.8932,2.02168.09807.00322.19624-.00094.29369-.01243.99138.14782,1.92962-.49198,2.15405-1.46887.15956-.53171.14649-1.1003-.03732-1.62412-1.11658-2.85863-8.92518-4.17971-9.92383-8.6953-.20429-.98045-.21746-1.99111-.03881-2.97655.61949-3.59306,3.81548-4.90669,7.69664-4.90669,3.11687,0,7.42347.77325,7.42347,5.56499v1.54649h-5.49931v-1.35244c.06754-1.04319-.72338-1.94361-1.76657-2.01115-.09028-.00584-.18085-.00521-.27104.0019-.95287-.12635-1.83562.52187-2.00029,1.46887-.06289.38539-.05021.77933.03732,1.15987.61501,2.58844,8.95653,3.94237,9.88652,8.57886.23067,1.19904.24332,2.42984.03732,3.63337-.53888,3.71099-3.80802,5.06343-7.76233,5.06343-4.16031.00299-8.00863-1.50917-8.00863-6.41586h0ZM115.69296,48.68747c-.05358-.48821-.06607-.98006-.03732-1.47036v-16.00233h5.61575v16.50241c-.00728.28415.00519.56845.03732.85087.31471,1.16862,1.51718,1.86086,2.68581,1.54615.75407-.20307,1.34307-.79209,1.54615-1.54615.03332-.28233.0463-.56668.03881-.85087v-16.50241h5.61873v15.99935c0,.42543-.03881,1.23749-.03881,1.47036-.38364,4.17971-3.65426,5.5232-7.73098,5.5232s-7.35033-1.35094-7.73546-5.5232v.00298ZM161.92956,48.4546c-.05709-.48997-.08301-.98308-.07763-1.47634v-9.38644c0-.38662.03732-1.08225.07613-1.47036.50007-4.17225,3.84684-5.48588,7.80861-5.48588,3.92445,0,7.38466,1.31362,7.77129,5.48737.04607.48869.05854.97997.03732,1.47036v.72697h-5.61575v-1.23003c.00091-.28536-.02458-.5702-.07613-.85087-.38271-1.2218-1.68342-1.90202-2.90521-1.51931-.72473.22701-1.29231.79459-1.51931,1.51931-.06501.34428-.09055.69486-.07613,1.04493v10.20149c-.0065.28418.00647.56846.03881.85087.27509,1.04536,1.2696,1.73539,2.34512,1.6271,1.05835.11268,2.03348-.58468,2.26898-1.62262.05177-.28052.06484-.56681.03881-.85087v-3.25122h-2.26898v-3.24674h7.84741v5.98595c.00561.49078-.02031.98141-.07763,1.46887-.38364,4.05731-3.88116,5.48737-7.80861,5.48737s-7.42347-1.42558-7.80711-5.48289v.00298ZM83.65246,53.51355l-.14927-20.63734-3.85131,20.63734h-5.61575l-3.80951-20.63734-.14927,20.63734h-5.5426l.46126-22.25996h9.04012l2.80787,17.39209,2.80787-17.39209h9.03863l.50007,22.25996h-5.53812ZM54.11084,53.51355l-3.00044-20.63734-3.07806,20.63734h-5.99938l4.07821-22.25996h9.88652l4.0782,22.25996h-5.96505ZM148.12008,53.28217l-5.57693-18.51165.30751,18.51016h-5.46349v-22.0271h8.23105l5.22464,17.93247-.30004-17.93247h5.5008v22.03008l-7.92354-.0015Z"/></svg>