<?xml version="1.0" encoding="UTF-8"?><svg id="Layer_1" xmlns="http://www.w3.org/2000/svg" viewBox="0 0 200 85"><defs><style>.cls-1{fill:#565656;stroke-width:0px;}</style></defs><path class="cls-1" d="M181.34196,31.07213h.31415c.35424,0,.65597-.12892.65597-.46218,0-.23867-.17287-.47455-.65597-.47455-.14133,0-.23779.00958-.31415.02102v.91571ZM181.34196,32.56931h-.42967v-2.70312c.22723-.03246.44111-.06498.76386-.06498.41056,0,.67983.08595.8412.20533.16138.11841.24727.30174.24727.55952,0,.35522-.23676.57003-.52705.65788v.02102c.23583.04297.39819.25876.45162.6569.06399.42014.12799.58151.17287.66746h-.4526c-.06492-.08594-.12984-.33326-.18333-.68941-.06399-.3447-.23681-.47264-.58054-.47264h-.30364v1.16205ZM181.79549,29.11278c-1.06652,0-1.93828.91571-1.93828,2.04623,0,1.15247.87176,2.05669,1.94879,2.05669,1.07801.01149,1.93828-.90422,1.93828-2.04618,0-1.14103-.86027-2.05674-1.93828-2.05674h-.01051ZM181.806,28.73469c1.32529,0,2.38135,1.07704,2.38135,2.42432,0,1.36733-1.05606,2.43483-2.39186,2.43483-1.32436,0-2.40139-1.0675-2.40139-2.43483,0-1.34728,1.07704-2.42432,2.40139-2.42432h.01051Z"/><polygon class="cls-1" points="15.81265 50.5831 21.18644 26.75915 42.43715 26.75915 41.44983 31.56482 29.75702 31.56482 28.87954 35.58942 39.07425 35.58942 38.02963 40.33872 27.81487 40.33872 26.68817 45.52634 38.70759 45.52634 37.65344 50.5831 15.81265 50.5831"/><path class="cls-1" d="M50.7585,35.4538c-1.50959,4.20318-2.03283,8.05784-2.03283,8.05784-.50799,2.832,1.52577,3.84797,3.48512,3.84797,1.60316,0,3.86704-.94817,4.5736-2.90268,1.46471-4.06664,2.03381-8.1323,2.03381-8.1323.72568-4.50105-3.4861-3.84797-3.4861-3.84797-3.36862-.22723-4.5736,2.97714-4.5736,2.97714M41.61028,36.61488c2.17891-8.42157,7.98618-8.34902,14.88388-8.20387,4.72256.09929,12.05184.14515,10.74562,7.55079,0,0-.29122,2.10445-.77149,4.38074h-7.43527l14.94215,17.89832h-9.91688l-6.47566-7.75895s-2.46915.87175-6.38874.72568c-3.91959-.14612-11.18106.00283-10.88984-6.82418.14515-3.4116,1.30622-7.76853,1.30622-7.76853"/><path class="cls-1" d="M71.14504,29.42502h8.66987s-2.77377,12.19987-3.37053,15.20947c0,0,.08785,2.50836,2.73651,2.51506,0,0,3.46889.53566,4.16593-2.30782l3.46797-15.4167h8.80255s-3.33045,15.24863-3.91289,17.13631c-.57956,1.88773-3.48513,4.42948-10.09063,4.79325-1.13814.06018-3.12136,0-5.37188-.29313l-7.91363-9.36402s2.1197-9.77075,2.81674-12.27241"/><polygon class="cls-1" points="98.89336 29.42502 107.7513 29.42502 102.96763 50.54301 94.31497 50.54301 98.89336 29.42502"/><polygon class="cls-1" points="115.18373 50.54203 106.44703 50.54203 111.04264 29.42409 130.10388 29.42409 129.09368 33.55658 119.05839 33.55658 118.09976 37.44562 126.66647 37.44562 125.76324 41.5017 117.2872 41.5017 115.18373 50.54203"/><path class="cls-1" d="M133.25482,41.33367h5.55902l-.67983-6.96933-4.8792,6.96933ZM127.15344,50.54203h-6.13765l14.91258-21.11794h10.59094l2.10635,17.13822,7.11251-6.53579-6.97978-10.60243h11.22497l3.38011,5.37662,5.46829-5.37662h8.60015l-11.16576,9.80513,7.28919,11.31281h-10.82301l-3.6532-6.30475-6.05645,6.30475h-13.08786l-.40679-4.61374h-9.25514l-3.11945,4.61374Z"/></svg>