<?xml version="1.0" encoding="UTF-8"?><svg id="Layer_7" xmlns="http://www.w3.org/2000/svg" viewBox="0 0 200 85"><defs><style>.cls-1{fill:#878d96;stroke-width:0px;}</style></defs><path class="cls-1" d="M20.8666,53.98507c-3.3865.04314-6.64454-1.29463-9.02356-3.70513-2.45545-2.30963-3.82932-5.54345-3.78716-8.91418-.04047-3.3704,1.33313-6.60356,3.78716-8.91418,2.36749-2.43561,5.627-3.79868,9.02356-3.77349,3.23517-.04312,6.35255,1.2127,8.65442,3.48638l-2.43362,2.47464c-1.6666-1.61063-3.90335-2.4955-6.22079-2.46097-2.43061-.02985-4.76207.96226-6.42587,2.73441-1.72816,1.71447-2.6813,4.06027-2.63871,6.49423-.02027,2.40561.93115,4.71761,2.6387,6.41219,3.52062,3.50851,9.19495,3.57519,12.79705.15039,1.07243-1.17444,1.73037-2.66801,1.87307-4.25201h-8.20323v-3.50005h11.60757c.11406.7049.15984,1.41915.13672,2.13284.14588,2.98498-.93601,5.89965-2.99418,8.06651-2.29027,2.38451-5.48685,3.68203-8.79113,3.56841h0ZM47.85524,51.66082c-3.23665,3.10255-8.34358,3.10255-11.58023,0-1.56765-1.51998-2.4257-3.62792-2.36527-5.81062-.05874-2.1824.79904-4.28968,2.36527-5.81062,3.23947-3.09555,8.34077-3.09555,11.58023,0,1.56622,1.52094,2.42402,3.62823,2.36527,5.81062.05687,2.18477-.80627,4.29301-2.37894,5.81062h.01366ZM38.83168,49.37759c1.6722,1.78578,4.47545,1.87786,6.26123.20566.07078-.06628.13938-.13487.20566-.20566.91273-.94334,1.40576-2.21534,1.36721-3.52739.0407-1.31648-.45236-2.59352-1.36721-3.54106-1.71913-1.79333-4.56654-1.85349-6.35987-.13436-.04573.04384-.09052.08863-.13436.13436-.91485.94754-1.40791,2.22459-1.36721,3.54106-.03491,1.31402.46316,2.5863,1.38088,3.52739h.01366ZM65.65626,51.66082c-3.23665,3.10255-8.34358,3.10255-11.58023,0-1.56765-1.51998-2.42571-3.62792-2.36527-5.81062-.05875-2.1824.79905-4.28968,2.36527-5.81062,3.23665-3.10255,8.34358-3.10255,11.58023,0,1.56622,1.52094,2.42402,3.62823,2.36527,5.81062.06044,2.18271-.79762,4.29064-2.36527,5.81062ZM56.63271,49.37759c1.6722,1.78578,4.47545,1.87786,6.26123.20566.07078-.06628.13938-.13487.20566-.20566.91273-.94334,1.40576-2.21534,1.36721-3.52739.0407-1.31648-.45236-2.59352-1.36721-3.54106-1.71913-1.79333-4.56654-1.85349-6.35987-.13436-.04573.04384-.09052.08863-.13436.13436-.91485.94754-1.40791,2.22459-1.36721,3.54106-.03491,1.31402.46316,2.5863,1.38088,3.52739h.01366ZM77.35954,61.28595c-1.63872.05212-3.24574-.45943-4.5528-1.44924-1.16053-.87244-2.07451-2.0314-2.65238-3.36333l3.11723-1.29885c.33925.79598.86996,1.49578,1.54494,2.03714.72247.5824,1.62907.88783,2.55668.86134,1.19024.07241,2.35308-.37676,3.18559-1.23048.8237-.99359,1.23042-2.26766,1.13478-3.55474v-1.1758h-.12304c-1.05634,1.25462-2.64188,1.93848-4.27935,1.84573-2.07532.00627-4.05853-.85642-5.46882-2.37894-1.52957-1.50969-2.37441-3.57977-2.33792-5.72859-.03815-2.16119.80607-4.2446,2.33792-5.76961,1.4069-1.52897,3.39106-2.39704,5.46882-2.39261.86969-.00152,1.72889.18993,2.51565.56055.68062.29723,1.28744.74067,1.77737,1.29885h.12304v-1.29884h3.39068v14.56074c.18039,2.32793-.60588,4.6274-2.17385,6.35751-1.49293,1.42826-3.49973,2.19252-5.56453,2.11917h-.00001ZM77.60564,50.78581c1.18194.02598,2.31421-.47503,3.08989-1.36721.84356-.96669,1.2883-2.2178,1.24416-3.50005.05064-1.30388-.39382-2.57866-1.24416-3.56841-.77451-.89375-1.90757-1.3951-3.08989-1.36721-1.21329-.02491-2.37871.47313-3.19926,1.36721-.90438.95418-1.3957,2.2267-1.36721,3.54106-.02809,1.30212.46395,2.56173,1.36721,3.50005.81667.90272,1.98206,1.41071,3.19926,1.39455ZM91.12731,29.59412v23.89876h-3.56841v-23.89875h3.56841ZM100.91649,53.98507c-2.16037.05553-4.24617-.79167-5.75594-2.33792-1.53148-1.53441-2.36666-3.62977-2.31058-5.79695-.0817-2.17209.72267-4.28416,2.22854-5.85164,1.42016-1.49711,3.40573-2.32608,5.46882-2.28323.93823-.00991,1.86864.17152,2.73441.53321.77986.31477,1.49052.77925,2.09182,1.36721.51632.49844.97494,1.05336,1.36721,1.65432.31728.5074.58729,1.04285.80665,1.59963l.36914.9297-10.93765,4.49811c.67714,1.55581,2.24235,2.53407,3.93755,2.46097,1.63901.00446,3.15997-.85205,4.00591-2.25589l2.73441,1.84573c-.69782.99835-1.59081,1.84484-2.62503,2.48831-1.22992.77706-2.66073,1.17636-4.11529,1.14845h.00002ZM96.35003,45.6041l7.27353-3.02152c-.22411-.53276-.62482-.97211-1.13478-1.24416-.57101-.32245-1.21738-.48758-1.87308-.47852-1.11267.02882-2.16902.49558-2.93949,1.29885-.93355.89334-1.41982,2.15663-1.32619,3.44536h.00001ZM126.6063,53.98507c-6.22099.10739-11.35115-4.84867-11.45854-11.06966-.00262-.15196-.00217-.30395.00136-.45589-.1444-6.22024,4.78106-11.3798,11.00129-11.52419.15194-.00353.30394-.00398.4559-.00136,3.11174-.09729,6.09752,1.23196,8.10752,3.60942l-1.96878,1.91409c-1.4774-1.85823-3.75308-2.89957-6.12508-2.80277-2.27482-.05125-4.47212.82767-6.08406,2.43363-1.67672,1.68606-2.57369,3.99539-2.47464,6.37118-.09905,2.37579.79792,4.68512,2.47464,6.37118,1.61194,1.60596,3.80924,2.48488,6.08406,2.43363,2.64685.02966,5.16309-1.14794,6.83603-3.19926l1.96878,1.96878c-1.03083,1.23265-2.32498,2.21844-3.78717,2.88481-1.57612.72767-3.29551,1.09211-5.03131,1.06642ZM140.71586,53.49288h-2.83013v-22.08037h2.83013v22.08037ZM145.33702,40.20364c3.08696-3.06574,8.06945-3.06574,11.1564,0,1.46469,1.54645,2.25206,3.61325,2.18754,5.74227.06453,2.12901-.72284,4.19582-2.18754,5.74227-3.08696,3.06574-8.06945,3.06574-11.1564,0-1.46469-1.54645-2.25206-3.61325-2.18754-5.74227-.06453-2.12901.72284-4.19582,2.18754-5.74226h0ZM147.44251,49.9108c1.81125,1.91415,4.83126,1.99757,6.74543.18633.0638-.06038.12594-.12251.18632-.18633.99922-1.07221,1.52628-2.50063,1.46292-3.9649.06336-1.46427-.4637-2.89269-1.46292-3.9649-1.81125-1.91415-4.83126-1.99757-6.74543-.18633-.0638.06038-.12594.12252-.18632.18633-.99922,1.07221-1.52628,2.50063-1.46292,3.9649-.05597,1.46154.47582,2.88459,1.47658,3.95122l-.01366.01367ZM174.36279,53.49288h-2.73441v-2.09183h-.08203c-.48667.79449-1.17551,1.44557-1.99613,1.88674-.85156.49353-1.81853.75296-2.80278.75196-1.61888.11074-3.19974-.52362-4.29303-1.72268-1.03571-1.30999-1.55609-2.95379-1.46292-4.62116v-9.297h2.83013v8.77746c0,2.81644,1.24416,4.22467,3.73247,4.22467,1.12174.03498,2.19125-.4743,2.87114-1.36721.73355-.92965,1.12462-2.08354,1.10743-3.26762v-8.3673h2.83013v15.09396ZM183.97425,53.98507c-1.94293.00645-3.79136-.83783-5.05866-2.31058-1.41746-1.56555-2.17652-3.61746-2.11917-5.72859-.05735-2.11113.70171-4.16304,2.11917-5.72859,1.2673-1.47275,3.11573-2.31703,5.05866-2.31058,1.07558-.01698,2.13816.23691,3.08988.73829.83631.42084,1.54449,1.05821,2.05081,1.84573h.12304l-.12304-2.09182v-6.98642h2.83013v22.08037h-2.73441v-2.09183h-.12304c-.50632.78752-1.2145,1.42488-2.05081,1.84573-.94356.49694-1.99619.75069-3.06255.73829ZM184.43909,51.40106c1.29404.01884,2.53387-.51891,3.40435-1.47658.9614-1.09468,1.45264-2.52416,1.36721-3.97857.08543-1.45441-.40581-2.88389-1.36721-3.97857-1.71762-1.88772-4.64031-2.02561-6.52804-.30799-.10744.09777-.21023.20054-.30798.30799-.96453,1.08742-1.45649,2.51409-1.36721,3.9649-.08929,1.45081.40268,2.87748,1.36721,3.9649.87182.97503,2.12387,1.52374,3.43168,1.50393Z"/></svg>