<?xml version="1.0" encoding="UTF-8"?><svg id="Layer_3" xmlns="http://www.w3.org/2000/svg" viewBox="0 0 200 85"><defs><style>.cls-1,.cls-2{fill:#878d96;stroke-width:0px;}.cls-2{fill-rule:evenodd;}</style></defs><path class="cls-2" d="M91.95359,30.31578C64.57385,55.09751,53.83848-3.51868,19.75755,18.66501l38.40559,54.66415"/><path class="cls-2" d="M103.27082,36.30847l9.37401,20.32503,2.15206-.01761,8.23564-20.43359-3.67185-.12616-5.57453,15.10258-6.71731-14.97642M132.9332,36.16177l-8.75641,20.3089,4.0342.13789,1.65035-5.09043h8.61852l1.65035,4.95254,3.94326.13789-8.25177-20.44679h-2.88851ZM134.4926,41.20525l2.29142,7.15153h-5.17991l2.88849-7.15153Z"/><path class="cls-2" d="M71.56119,32.94647c9.85447,5.74202,20.05224-3.40776,23.18205-6.62252l4.09491-5.85896c-8.91332-8.81637-18.05699.6661-34.74968,7.58541,1.64986,1.2435,4.07771,2.91676,7.47272,4.89606h0Z"/><path class="cls-2" d="M78.2948,36.44287c-2.46081,0-5.012-.5964-7.55842-2.08121-4.04096-2.35561-6.73946-4.28011-8.41737-5.59956-.1521.0593-.2999.12035-.4532.1791,7.36977,7.89577,15.26733,9.85357,23.6948,5.88616-2.2465.96681-4.70526,1.61551-7.26582,1.61551Z"/><path class="cls-1" d="M149.76681,56.36212v-19.3847h3.58677v16.09133h8.91926v3.29337M166.75594,56.23596v-19.67223h11.6097v1.51979c-.84645.52958-1.64743,1.19706-2.43226,1.80879h-6.0997v4.36134h7.65178v3.31392h-7.65178v5.35302h8.51289v3.31538"/></svg>