<?xml version="1.0" encoding="UTF-8"?><svg id="Layer_2" xmlns="http://www.w3.org/2000/svg" viewBox="0 0 200 85"><defs><style>.cls-1{fill:#565656;stroke-width:0px;}</style></defs><polygon class="cls-1" points="63.25445 14.25747 64.80374 70.60124 71.70622 70.74253 71.70622 44.96445 77.48127 44.96445 77.48127 38.48543 71.70622 38.48543 71.70622 21.30081 79.4536 21.30081 79.4536 14.25747 63.25445 14.25747"/><polygon class="cls-1" points="82.9749 14.536 90.3081 14.536 90.72229 70.32024 83.53841 70.32024 82.9749 14.536"/><path class="cls-1" d="M94.97301,14.36164h16.24396s4.02709,8.64514,5.41576,20.77569c1.72374,15.06521.84608,34.90438.84608,34.90438h-5.30431l-.84608-25.34372h-8.95194l-.0372,25.34372h-6.74142l-.62484-55.68007ZM110.99657,38.67351s-.71934-6.68727-2.0999-11.71388c-1.01242-3.68805-2.80237-6.1351-2.80237-6.1351h-4.04884v17.62775l8.95111.22123Z"/><polygon class="cls-1" points="117.51676 14.86057 136.74555 14.86057 136.74555 20.2755 130.99885 20.2755 130.00413 70.66738 122.58694 70.66738 123.59456 20.38612 117.42557 20.38612 117.51676 14.86057"/></svg>