<?xml version="1.0" encoding="UTF-8"?><svg id="Layer_3" xmlns="http://www.w3.org/2000/svg" viewBox="0 0 200 85"><defs><style>.cls-1{fill:#565656;stroke-width:0px;}</style></defs><path class="cls-1" d="M57.033,23.49543l-7.50193,27.38655h-4.38426l-5.30982-19.90864-5.35853,19.90864h-4.38422l-7.50195-27.38655h4.33552l5.35853,19.8601,5.40725-19.8601h4.28684l5.4072,19.8601,5.35853-19.8601h4.28684Z"/><path class="cls-1" d="M59.02994,23.59258l4.33555-.33991v6.70094l-.09743,2.52501h.14614c2.04597-.77693,3.65351-1.11679,5.60205-1.11679,3.50765,0,5.84562,1.55381,5.84562,7.57498v11.94522h-4.33537v-11.60531c0-3.59327-1.7536-4.07887-3.79984-4.07887-1.26651,0-2.33821.29138-3.4099.58271v15.10147h-4.33555v-27.28944h.04871Z"/><path class="cls-1" d="M80.85405,23.83543c2.24073,0,2.58177,1.31106,2.58177,2.76781s-.48713,2.76781-2.58177,2.76781c-2.14349,0-2.53338-1.31106-2.53338-2.76781-.04839-1.45675.34104-2.76781,2.53338-2.76781ZM78.66172,31.60467h4.33582v19.22886h-4.33582v-19.22886Z"/><path class="cls-1" d="M86.65082,31.60453h2.97166l.58438,1.55386h.2922c1.12036-.97115,2.97166-1.84519,5.31009-1.84519.29219,0,.58438,0,.92542.04858v4.22451c-.77933-.09711-1.6075-.2428-2.43568-.2428-1.16921,0-2.14348.29133-3.26385.77693v14.71298h-4.33537v-19.22886h-.04885Z"/><path class="cls-1" d="M98.53702,50.88202v-27.28944l4.33582-.33991v27.62935h-4.33582Z"/><path class="cls-1" d="M133.61121,31.36173c6.13782,0,8.47624,3.59327,8.47624,10.00287,0,6.02116-2.19233,9.90581-8.57394,9.90581-6.38116,0-8.62234-3.93318-8.62234-9.90581.04885-6.40961,2.58178-10.00287,8.72004-10.00287ZM137.70324,41.36461c0-3.6418-.58483-6.60383-4.04363-6.60383-3.50719,0-4.38421,2.86492-4.38421,6.60383,0,3.49616.73093,6.50676,4.18973,6.50676,3.45834,0,4.23812-2.86491,4.23812-6.50676Z"/><path class="cls-1" d="M152.99892,31.36173c6.13782,0,8.4758,3.59327,8.4758,10.00287,0,6.02116-2.19189,9.90581-8.57348,9.90581s-8.62235-3.93318-8.62235-9.90581c.04885-6.40961,2.58178-10.00287,8.72003-10.00287ZM157.0905,41.36461c0-3.6418-.58438-6.60383-4.04318-6.60383-3.50719,0-4.38423,2.86492-4.38423,6.60383,0,3.49616.73094,6.50676,4.18928,6.50676,3.4588,0,4.23812-2.86491,4.23812-6.50676Z"/><path class="cls-1" d="M164.30074,50.88202v-27.28944l4.33536-.33991v27.62935h-4.33536Z"/><path class="cls-1" d="M106.37958,31.60453h3.26385l.34104,1.40821c1.31531-.7284,3.70214-1.69955,5.84563-1.69955,3.94593,0,6.81989,2.86492,6.81989,9.71154,0,6.74951-3.02051,10.09998-8.08635,10.09998-1.8513,0-3.89708-.38844-3.89708-.38844v8.8375l-4.33582.48555v-28.45481h.04884ZM110.71495,47.2887c1.21806.04853,1.90015.09711,3.16661.09711,2.67901,0,4.43306-1.40817,4.43306-7.04089,0-3.83607-1.55911-4.85575-4.38422-4.85575-1.12082,0-2.14348.19422-3.1666.53413v11.2654h-.04885Z"/><path class="cls-1" d="M127.81444,19.80509c-3.21546-3.73894-13.49415-.43702-24.9416,7.42933v1.99088c10.08374-7.138,18.99827-10.43992,21.5312-7.52644,3.16661,3.69038-4.72526,15.68413-17.68297,26.80384-12.95771,11.11971-26.01311,17.18941-29.17972,13.49903-1.6559-1.89377-.29219-6.06969,3.16661-11.16829h-2.04624c-4.33537,6.40965-5.94287,11.79971-3.70214,14.37289,4.04318,4.66193,19.14483-1.69932,33.75888-14.27573,14.56521-12.52788,23.13915-26.46397,19.09598-31.1255Z"/><path class="cls-1" d="M174.77708,26.50603c-1.5591,0-2.63063-1.16542-2.63063-2.6707,0-1.60239,1.21806-2.67067,2.63063-2.67067s2.63063,1.06828,2.63063,2.67067-1.21808,2.6707-2.63063,2.6707ZM174.77708,21.65024c-1.16921,0-2.04625.92262-2.04625,2.23368,0,1.2139.77979,2.23363,2.04625,2.23363,1.16921,0,2.04579-.92257,2.04579-2.23363s-.87658-2.23368-2.04579-2.23368ZM174.2411,25.38919h-.48713v-2.96203h1.12036c.73093,0,1.07197.2428,1.07197.87404,0,.53413-.34104.77693-.77978.82546l.82817,1.31106h-.53553l-.77978-1.26248h-.43828v1.21395ZM174.77708,23.68965c.38989,0,.68208-.04853.68208-.48555,0-.33991-.34104-.38849-.63323-.38849h-.58483v.87404h.53598Z"/></svg>