<?xml version="1.0" encoding="UTF-8"?><svg id="Layer_9" xmlns="http://www.w3.org/2000/svg" viewBox="0 0 200 85"><defs><style>.cls-1{fill:#878d96;fill-rule:evenodd;stroke-width:0px;}</style></defs><path class="cls-1" d="M16.51858,29.36863h41.84657v1.20227H16.51858v-1.20227ZM16.51858,31.89364h41.84657v1.20227H16.51858v-1.20227ZM16.51858,35.50125h41.84657v1.20227H16.51858v-1.20227ZM9.42382,37.9062h56.0365v2.16441H9.42382v-2.16441ZM11.22763,41.27288h52.42888v1.20267H11.22763v-1.20267ZM9.42382,58.46888h56.0365v2.16441H9.42382v-2.16441ZM32.15091,19.50792c-7.57583,1.20227-14.55013,7.45536-14.55013,7.45536v1.08221h39.9227v-1.08221s-7.09437-6.13263-14.55053-7.3353l-10.82204-.12007h0ZM11.7087,43.55775h.96174v13.58799h-.96174v-13.58799ZM13.8731,43.55775h.96214v13.58799h-.96214v-13.58799ZM17.12012,43.55775h.96174v13.58799h-.96174v-13.58799ZM19.16406,43.55775h1.08221v13.58799h-1.08221v-13.58799ZM22.53114,43.55775h.96174v13.58799h-.96174v-13.58799ZM24.57548,43.55775h1.0822v13.58799h-1.08221v-13.58799h0ZM27.8221,43.55775h1.0822v13.58799h-1.0822v-13.58799ZM29.98651,43.55775h.96214v13.58799h-.96214v-13.58799ZM33.23312,43.55775h.96214v13.58799h-.96214v-13.58799ZM35.39793,43.55775h.96174v13.58799h-.96174v-13.58799ZM38.64454,43.55775h.96214v13.58799h-.96214v-13.58799ZM40.68888,43.55775h1.0822v13.58799h-1.0822v-13.58799ZM43.93549,43.55775h1.0822v13.58799h-1.0822v-13.58799ZM46.09991,43.55775h1.0822v13.58799h-1.0822v-13.58799ZM49.34612,43.55775h.96213v13.58799h-.96214v-13.58799h0ZM51.51133,43.55775h.96134v13.58799h-.96134v-13.58799ZM54.75794,43.55775h.96214v13.58799h-.96214v-13.58799ZM56.92195,43.55775h.96253v13.58799h-.96253v-13.58799ZM60.16936,43.55775h.96134v13.58799h-.96134v-13.58799ZM62.21291,43.55775h1.0822v13.58799h-1.0822v-13.58799ZM73.22827,59.98561v-19.26773h3.59651l4.62432,13.61644c.51391,1.28519.77044,2.05564,1.02782,2.82606,0-.77044.51391-1.79825,1.02782-3.08345l4.62432-13.35906h3.33913v19.26773h-2.56954v-16.18513l-5.39476,16.18513h-2.31216l-5.65214-16.44251v16.44251h-2.31131,0ZM95.57944,59.98561v-19.26773h2.56954v19.26773h-2.56954ZM107.1411,59.98561v-16.95557h-6.16605v-2.31216h15.15817v2.31216h-6.42343v16.95557h-2.56869ZM118.18886,53.56305l5.65214-.25738c.25653.77044.51391,1.54258.77044,2.05564.77044.77044,1.54172,1.02781,2.56954,1.02781s1.54172-.25738,2.05564-.51476c.51391-.51391.77044-1.02697.77044-1.54173,0-.51391-.25738-.77044-.77044-1.28435-.25738-.25738-1.28434-.77044-3.08345-1.02781-2.56954-.51391-4.36779-1.28435-5.39561-2.31216-1.28434-1.02781-1.79825-2.31216-1.79825-3.85389,0-.77044.51391-1.7974,1.02782-2.5687.51391-1.02781,1.28435-1.54173,2.56954-2.05564,1.02782-.51391,2.56954-.77044,4.62432-.77044,2.56869,0,4.36779.25738,5.65214,1.28519,1.2852,1.02697,2.05564,2.31216,2.31216,4.36694l-5.65214.25738c0-.77044-.51391-1.54173-1.02782-1.79825-.25738-.51391-1.02782-.77044-1.79825-.77044s-1.28434.25738-1.54172.51391c-.51391.25738-.51391.77044-.51391,1.02781s0,.77044.25653,1.02781c.25738.25738,1.02782.25738,2.05564.51391,2.56954.51476,4.36779,1.28435,5.65214,1.79825.93521.47418,1.73176,1.18235,2.31216,2.05564.51305.77044.77044,1.7974.77044,2.82522,0,1.28519-.25823,2.56954-1.02867,3.59735-.51305,1.02781-1.54087,1.79825-2.82522,2.31216-1.28434.51391-2.82607.77044-4.62432.77044-3.08345,0-5.39561-.77044-6.67995-1.79825-1.28349-1.28435-2.05478-3.08345-2.31131-4.8817v.00005ZM136.94439,40.71789h5.39476v19.26773h-5.39476v-19.26773ZM143.62264,53.04999c0-2.31216.77214-3.85389,2.05564-5.39561,1.54172-1.28435,3.34083-2.05478,5.90952-2.05478,2.82607,0,4.88255.77044,6.1652,2.5687,1.2852,1.28519,1.79911,2.82606,1.79911,4.62518,0,2.31216-.77044,4.11041-2.05564,5.39561-1.54172,1.28435-3.33913,2.05478-5.90952,2.05478-2.31216,0-4.10956-.51391-5.39476-1.79825-1.7974-1.28519-2.56954-3.08431-2.56954-5.39561h0ZM149.01911,53.04999c0,1.02697.25653,2.05478.77044,2.56954.51305.77044,1.02697,1.02781,1.7974,1.02781s1.2852-.25738,1.79911-1.02781c.51305-.51476.77044-1.54258.77044-2.82606,0-1.02781-.25823-2.05478-.77044-2.56954-.51476-.51391-1.02867-1.02781-1.79911-1.02781s-1.2852.51476-1.7974,1.02781c-.51391.51391-.77044,1.54087-.77044,2.82606ZM165.46162,50.48044l-5.13824-.51391c.25652-1.02781.51476-1.54258,1.02697-2.05564.25823-.51391.77044-1.02781,1.54173-1.54173.51476-.25738,1.02867-.25738,2.05564-.51476.77044-.25652,1.7991-.25652,2.5704-.25652,1.7974,0,3.0826,0,3.85303.25652,1.02697.25738,1.7974.51476,2.56868,1.28519.51476.25738.77044.77044,1.02867,1.54173.25652.77044.25652,1.54173.25652,2.05564v6.16519c0,.77044.25652,1.28519.25652,1.54173,0,.25738.25823.77044.51476,1.54173h-4.88256c-.25652-.51391-.51306-.77044-.51306-1.02697,0,0,0-.25738-.25823-.77044-.51306.77044-1.28349,1.02697-2.05393,1.54173-.77044.25652-2.05564.51391-3.34083.51391-1.54173,0-2.82606-.51391-3.59735-1.28435-1.02697-.77044-1.28349-1.54173-1.28349-2.82606,0-1.02781.25652-1.79825.77044-2.56954.77044-.77044,1.7974-1.28435,3.59565-1.54173,2.05564-.25738,3.34083-.77044,3.85473-.77044.51306-.25738,1.28349-.51391,1.7974-.77044,0-.51391,0-1.02781-.25652-1.28519-.25823-.25652-.77044-.51391-1.54173-.51391s-1.54173.25738-2.05564.51391c-.25568.25652-.51306.77044-.76958,1.28435h.00001ZM170.08593,53.30566c-.77044.25738-1.54173.51476-2.31216.77044-1.02697.25738-1.7974.51476-2.05564.77129-.25652.25652-.25652.51391-.25652,1.02697,0,.25738,0,.77129.25652,1.02781.25823.25738.77044.25738,1.28519.25738.77044,0,1.28519,0,1.7974-.25738.51476-.25652.77044-.77044,1.02867-1.02781.25652-.51391.25652-1.02697.25652-1.79825v-.77044h.00001ZM177.02157,45.85527h4.88256v2.31216c.77044-.76958,1.54173-1.54087,2.31216-2.05478.77044-.25738,1.7974-.51391,2.82606-.51391,1.54173,0,2.5687.51391,3.33913,1.28435,1.02867,1.02781,1.28519,2.31216,1.28519,4.11041v8.99211h-5.39476v-7.70692c0-1.02781,0-1.54173-.51476-1.79825-.25652-.51391-.77044-.77044-1.28519-.77044-.51306,0-1.02697.25738-1.54173.77044-.51306.51391-.51306,1.54173-.51306,2.82522v6.67995h-5.39646v-14.13035h.00087Z"/></svg>