<?xml version="1.0" encoding="UTF-8"?><svg id="Layer_2" xmlns="http://www.w3.org/2000/svg" viewBox="0 0 466 195"><defs><style>.cls-1{fill:red;stroke-width:0px;}</style></defs><g id="Graphic_Elements"><path class="cls-1" d="M313.26319,16.70332c10.4599,2.12394,21.13774,3.70185,31.33484,6.48495,21.75976,5.93891,43.55519,11.91875,64.79289,18.99739,16.57979,5.52617,30.68775,14.51653,41.76543,26.39056,19.83718,21.2631,19.80645,45.03571-.18261,66.16786-9.9004,10.46625-22.50541,18.31835-36.22765,25.01026-29.58464,14.42767-61.87494,22.62119-95.39904,27.6171-58.60731,8.7343-117.53216,10.01346-176.5877,3.6048-29.96612-3.25198-59.18023-9.09326-86.64908-19.95267-12.9879-5.13476-25.15562-11.28648-35.55512-19.6206C-2.65033,132.80546-6.42413,108.77474,10.3365,85.93169c8.94918-12.19732,21.27867-21.80681,35.02705-30.14619,35.7236-21.66825,75.62897-36.03512,118.49786-44.52709,68.32862-13.53553,137.08005-15.24264,206.03564-3.06899,5.50493.97194,10.94699,2.30079,16.27814,3.80357,7.86091,2.21573,10.46343,4.88162,9.26319,8.78107-1.20554,3.9164-5.23719,4.52617-13.35489,3.1865-18.0506-2.97866-36.16619-5.70945-54.31992-8.22187-4.64802-.64338-9.53658-.09646-14.31459-.09646-.06181.3537-.12398.7074-.18579,1.06109ZM215.92391,182.14255c27.37384-1.90354,54.86-3.06636,82.0929-5.8974,34.12352-3.5475,67.27108-10.63842,98.1584-23.71356,14.16341-5.99562,27.91497-12.71764,38.05874-23.00909,5.59041-5.67174,10.82372-12.25228,13.41353-19.14472,5.63598-14.99914-2.44358-27.38734-14.51487-38.14883-9.6256-8.58142-21.50827-14.72787-34.4506-19.20055-68.28871-23.60073-139.07433-33.82699-213.05483-26.99915-8.43383.77843-16.87261,3.49693-25.63282.76644-1.76751-.55101-4.36262.50424-6.5056,1.02046-33.12673,7.9813-64.29203,19.48234-92.75484,35.7352-12.14335,6.93395-23.40718,14.74132-32.2624,24.61914-18.35719,20.4762-15.50141,40.61244,8.31374,56.69372,6.0888,4.11108,12.70638,7.93424,19.7351,10.78604,10.77992,4.37358,21.87491,8.43088,33.27791,11.49811,40.92618,11.00849,83.27936,13.73664,126.12564,14.99417Z"/></g></svg>